<svg xmlns="http://www.w3.org/2000/svg" viewBox="0 0 519 474.32"><defs><style>.cls-1{fill:#261300;stroke:#000;stroke-miterlimit:10;stroke-width:14px;}.cls-2{fill:#ff7c00;}.cls-3{fill:#2ec8e3;}.cls-4{fill:#efefef;}.cls-5{fill:#ff5691;}.cls-6{fill:#fff;}</style></defs><g id="Layer_2" data-name="Layer 2"><g id="Layer_1-2" data-name="Layer 1"><circle class="cls-1" cx="293.85" cy="225.15" r="218.15"/><path class="cls-2" d="M373.9,351.68,284,58.38c-5.29-16.83-26.93-25-49.05-25s-43.75,8.18-49,25l-83,272.28a218.72,218.72,0,0,0,45.3,56.88c9.83-.91,17.42-5,19.93-13.74l16.35-60.11H285.91l16.35,60.11c2.88,10.09,12.5,13.94,24.52,13.94,20.67,0,48.08-13,48.08-30.77A24.74,24.74,0,0,0,373.9,351.68ZM199.84,256l35.1-128.86L270,256Z"/><path class="cls-2" d="M435.44,45.87a44.08,44.08,0,0,0-14.06,2.27C406.4,53.14,396,65.85,396,80c0,18.27,17.31,34.62,39.43,34.62,14.89,0,27.74-7.75,34.3-18.55A30.85,30.85,0,0,0,474.38,80C474.38,61.74,457.07,45.87,435.44,45.87Zm0,113c-21.64,0-37,9.13-37,22.6V364.66c0,11.54,15.39,23.08,37,23.08q2,0,4-.15a219.26,219.26,0,0,0,33.48-37.84V181.47C472.94,168,456.11,158.87,435.44,158.87Z"/><path class="cls-3" d="M133.18,285.31l44.33,32.32a1.28,1.28,0,0,1,.28,1.79l-7.51,10.31a5.13,5.13,0,0,1-7.15,1.12L125,303a5.11,5.11,0,0,1-1.12-7.14l7.52-10.31A1.27,1.27,0,0,1,133.18,285.31Z"/><path class="cls-4" d="M153.16,323.49l1.33,38.68-70.6,37.25,13.89-78.6,37.27-10.5Z"/><path class="cls-3" d="M52.11,312.3l13.4,9.77a1.29,1.29,0,0,1,.28,1.79L56,337.26a1.27,1.27,0,0,1-1.78.28l-13.4-9.77a1.27,1.27,0,0,1-.28-1.78l9.77-13.41A1.29,1.29,0,0,1,52.11,312.3Z"/><path class="cls-5" d="M67.36,408.06l13.4,9.77a1.27,1.27,0,0,1,.28,1.78L71.27,433a1.29,1.29,0,0,1-1.79.28l-13.4-9.77a1.29,1.29,0,0,1-.28-1.79l9.78-13.4A1.27,1.27,0,0,1,67.36,408.06Z"/><path class="cls-3" d="M21.65,376.64a9.69,9.69,0,0,1-2.49,10.67,9.57,9.57,0,1,1,1.83-12A9.37,9.37,0,0,1,21.65,376.64Z"/><path class="cls-3" d="M130,453.81a9.6,9.6,0,0,1,2.09,13.38h0a9.57,9.57,0,0,1-15.47-11.27h0A9.6,9.6,0,0,1,130,453.81Z"/><path class="cls-3" d="M163.49,393.32l13.4,9.77a1.29,1.29,0,0,1,.28,1.79l-9.78,13.4a1.28,1.28,0,0,1-1.79.28l-13.4-9.77a1.28,1.28,0,0,1-.28-1.78l9.78-13.41A1.28,1.28,0,0,1,163.49,393.32Z"/><path class="cls-6" d="M136.66,338.72A9.57,9.57,0,0,1,120,346.35a9.57,9.57,0,1,1,16.71-7.63Z"/><path d="M114.55,341.92a12.61,12.61,0,0,0,2.78,6.27l-13.41,18.38a3.2,3.2,0,0,0,5.16,3.77L122.49,352a12.75,12.75,0,0,0,12.33-22.08l-.12-.1a12.76,12.76,0,0,0-20.15,12.14Zm11.73-8.14a6.41,6.41,0,0,1,6.39,3.06,6.37,6.37,0,0,1-9.23,8.41,6.71,6.71,0,0,1-1.08-1,6.31,6.31,0,0,1-1.49-3.25A6.4,6.4,0,0,1,126.28,333.78Z"/><path d="M94.63,320.31l-13.88,78.6a3.19,3.19,0,0,0,4.63,3.38L156,365a3.18,3.18,0,0,0,1.7-2.93L156.57,330l4.69,3.42a8.31,8.31,0,0,0,11.6-1.81l7.52-10.31a4.48,4.48,0,0,0-1-6.25l-44.33-32.33a4.48,4.48,0,0,0-6.25,1L121.3,294a8.31,8.31,0,0,0,1.82,11.6l4.78,3.49-31,8.73A3.2,3.2,0,0,0,94.63,320.31Zm32.25-19.9a1.92,1.92,0,0,1-.42-2.67l6.39-8.77L174.09,319l-6.39,8.77a1.93,1.93,0,0,1-2.68.41Zm7.59,13.44L150,325.18l1.21,35.15-63,33.26,12.4-70.19Z"/><path d="M38.94,330.35l4,2.92a77.18,77.18,0,0,0-10,27,54.74,54.74,0,0,0,5.32,34.52l-13.62-9.93a12.69,12.69,0,0,0,0-9.35,12.76,12.76,0,0,0-20.31-4.83,12.77,12.77,0,0,0,11.81,21.88,13.13,13.13,0,0,0,1.38-.46A12.55,12.55,0,0,0,20.93,390l35.29,25.74-3,4.12a4.48,4.48,0,0,0,1,6.25l13.4,9.77a4.48,4.48,0,0,0,6.25-1l3.1-4.26,35.61,26a12.77,12.77,0,0,0,22.08,12.47l0,0a12.77,12.77,0,0,0-18.24-17.53l-13.94-10.16A54.94,54.94,0,0,0,137,435.92a77.3,77.3,0,0,0,22.62-17.74l4.07,3a4.47,4.47,0,0,0,6.25-1l9.78-13.41a4.48,4.48,0,0,0-1-6.25l-13.4-9.77a4.48,4.48,0,0,0-6.25,1l-9.78,13.41a4.47,4.47,0,0,0,1,6.24l4.14,3a71,71,0,0,1-20.32,15.82,49,49,0,0,1-24.65,5.55c-9.55-.45-19.21-3.92-28.74-10.32l2.88-3.95a4.47,4.47,0,0,0-1-6.24l-13.4-9.77a4.47,4.47,0,0,0-6.24,1l-3,4.07c-8.94-7.06-15.15-15.14-18.49-24a49,49,0,0,1-2.3-25,71.29,71.29,0,0,1,8.91-24.39l4.19,3.06a4.47,4.47,0,0,0,6.25-1l9.78-13.41a4.49,4.49,0,0,0-1-6.25L54,309.72a4.48,4.48,0,0,0-6.25,1L38,324.11A4.47,4.47,0,0,0,38.94,330.35ZM15.12,386.12a6.37,6.37,0,0,1-7.72-9.36,6.37,6.37,0,0,1,11.73,3,6.46,6.46,0,0,1-4,6.34ZM119.2,457.78a6.37,6.37,0,0,1,10.3,7.51l0,0a6.37,6.37,0,0,1-10.3-7.51Zm36.44-50.44L163.16,397l10.3,7.51-7.53,10.31ZM67,411.76l10.3,7.52-7.52,10.31-10.3-7.51ZM51.78,316l10.3,7.51-7.52,10.32-10.31-7.52Z"/><path d="M100.86,376.19a3.19,3.19,0,1,1-3.76,5.16h0a3.2,3.2,0,1,1,3.77-5.16Z"/></g></g></svg>