<svg xmlns="http://www.w3.org/2000/svg" viewBox="0 0 511.65 512"><defs><style>.cls-1{fill:#5dbc9d;}</style></defs><g id="Layer_2" data-name="Layer 2"><g id="Layer_1-2" data-name="Layer 1"><path d="M322.26,190.36a8.86,8.86,0,0,1-6.64-14.7l11.7-13.28a8.85,8.85,0,1,1,13.27,11.7L328.9,187.36A8.84,8.84,0,0,1,322.26,190.36Z"/><path d="M347.24,223.83a8.85,8.85,0,0,1-3.72-16.89l16.07-7.41A8.85,8.85,0,1,1,367,215.6L350.94,223A8.75,8.75,0,0,1,347.24,223.83Z"/><path d="M356.46,264.54a8.85,8.85,0,0,1-.14-17.69L374,246.6c4.88.27,8.91,3.84,9,8.71a8.85,8.85,0,0,1-8.71,9l-17.69.25Z"/><path d="M364.73,312.48a8.74,8.74,0,0,1-3.48-.71L345,304.83a8.85,8.85,0,0,1,7-16.28l16.27,6.94a8.85,8.85,0,0,1-3.48,17Z"/><path d="M336.47,352.6a8.81,8.81,0,0,1-6.46-2.8l-12.08-12.94a8.84,8.84,0,1,1,12.93-12.07l12.08,12.93a8.85,8.85,0,0,1-6.47,14.88Z"/><path d="M294.45,378A8.83,8.83,0,0,1,286.1,372l-5.79-16.73a8.84,8.84,0,1,1,16.7-5.78l5.79,16.72a8.83,8.83,0,0,1-5.45,11.25A8.92,8.92,0,0,1,294.45,378Z"/><path class="cls-1" d="M60.53,286.82A381,381,0,0,1,26.4,266.13c10.68-8.18,22.7-16.07,32.91-22.54,5,6.67,10.1,13.42,14.91,20.15C69.73,271.48,65.1,279.22,60.53,286.82Z"/><path d="M57.17,255.46q3.27,4.36,6.49,8.79c-2.08,3.57-4.2,7.12-6.31,10.67-5.68-3.22-10.81-6.26-15.46-9.17,5.11-3.6,10.32-7.06,15.28-10.29m3.2-22.18A4.45,4.45,0,0,0,58,234c-15.38,9.66-29.71,19.19-41.79,28.93a4.39,4.39,0,0,0,.14,6.93C28.75,279,44,287.94,60.17,296.7a4.23,4.23,0,0,0,5.65-1.52c5.82-9.67,11.78-19.59,17.46-29.47a4.43,4.43,0,0,0-.21-4.78C76.94,252.26,70.4,243.56,63.89,235a4.4,4.4,0,0,0-3.52-1.72Z"/><path class="cls-1" d="M122.27,153.55l5.23-.17c-1.46,1.82-2.89,3.66-4.27,5.53C122.92,157.12,122.6,155.34,122.27,153.55Z"/><path class="cls-1" d="M137.57,144.14h-.21c-7.1.3-14.21.53-21.23.73a3.8,3.8,0,0,0-3.63,4.53q2,10.8,3.83,21.77a4.39,4.39,0,0,0,4.37,3.74,4.29,4.29,0,0,0,3.68-2.06,156.81,156.81,0,0,1,16.42-21.41,4.35,4.35,0,0,0-3.23-7.3Z"/><path class="cls-1" d="M90,224.58l5.15-3.19q-.87,4-1.53,8Z"/><path class="cls-1" d="M102.27,207.29a4.38,4.38,0,0,0-2.36.7c-6.08,3.83-12.22,7.63-18.28,11.35a4.83,4.83,0,0,0-1.31,7.07c4.29,5.66,8.56,11.39,12.73,17.16a4.38,4.38,0,0,0,7.94-2.12,154.83,154.83,0,0,1,5.46-28.57,4.35,4.35,0,0,0-4.18-5.59Z"/><path class="cls-1" d="M9.51,234a246.43,246.43,0,0,1,8.72-46.78c6.16,9.69,13,19.14,19.27,27.65C26.62,221.8,17.48,228,9.51,234Z"/><path class="cls-1" d="M22.08,208.67c.92,1.29,1.83,2.57,2.75,3.84l-4,2.64q.57-3.26,1.21-6.48m-5.14-36.58a4.34,4.34,0,0,0-4.19,3A254.8,254.8,0,0,0,0,243.23a4.43,4.43,0,0,0,4.47,4.61,4.25,4.25,0,0,0,2.67-.94,458.57,458.57,0,0,1,39.11-27.17,4.43,4.43,0,0,0,1.18-6.4C37.43,200,28.15,187,20.71,174.24a4.32,4.32,0,0,0-3.77-2.15Z"/><path class="cls-1" d="M93.4,369.65c-13.38-1.12-25.54-2.48-36.31-4.07,4.35-8.92,9.73-18.81,16.85-31l22.32,11.39C95.19,353.86,94.22,361.81,93.4,369.65Z"/><path d="M77.42,346.25l1.47.75L81,348.05,86.68,351q-.59,4.54-1.12,9.09-7.75-.74-14.88-1.6c2-3.81,4.26-7.85,6.74-12.21m-5.16-22a4.47,4.47,0,0,0-3.84,2.19c-8.22,14-15.79,27.56-21.89,40.7a4.44,4.44,0,0,0,3.31,6.23c14.82,2.41,31.09,4.15,47.19,5.41h.33a4.47,4.47,0,0,0,4.41-4.06c1.2-12.34,2.58-22.87,3.7-30.76a4.34,4.34,0,0,0-2.35-4.51c-4.65-2.39-9.38-4.81-14.15-7.23s-9.81-5-14.71-7.51a4.42,4.42,0,0,0-2-.47Z"/><path class="cls-1" d="M68.14,195.71C59.07,183.59,50.06,171,43.2,159c14-2.5,29.13-3.56,42.71-4.2,1.5,7.93,3.23,17.46,4.72,27-2,1.25-4.1,2.45-6.17,3.66-4.78,2.79-9.72,5.69-14.49,9C69.36,194.89,68.74,195.3,68.14,195.71Z"/><path d="M78.63,164c.77,4.27,1.56,8.72,2.3,13.23l-1,.56c-3.19,1.87-6.47,3.79-9.75,5.87-4.35-6-8.59-12-12.46-17.89,7-.82,14-1.36,20.87-1.77m10.89-18.25h-.19c-19.37.82-37.66,2.23-53.88,5.7a4.41,4.41,0,0,0-3,6.32c7.75,14.79,19,30.46,31.24,46.78A4.06,4.06,0,0,0,67,206.17a4.14,4.14,0,0,0,2.16-.61c2-1.23,4-2.48,5.94-3.87,7.28-5.12,15.18-9.2,22.71-13.95a4.47,4.47,0,0,0,2-4.44c-1.69-11.35-3.78-22.74-5.93-34a4.45,4.45,0,0,0-4.37-3.58Z"/><path class="cls-1" d="M26,347.5a244.59,244.59,0,0,1-13.58-47.44c8.46,5.56,18.14,11.33,29.67,17.69C35.67,328.87,30.42,338.58,26,347.5Z"/><path class="cls-1" d="M25.67,318.62,30,321.11q-1.23,2.17-2.38,4.29c-.69-2.26-1.35-4.52-2-6.78M6.47,286.18a4.45,4.45,0,0,0-4.42,5,253.79,253.79,0,0,0,19.71,69,4.25,4.25,0,0,0,3.94,2.56,4.46,4.46,0,0,0,4.1-2.65c6.27-13.66,13.88-27.55,22.22-41.8a4.43,4.43,0,0,0-1.7-6.12C35.34,304,21.17,295.68,9,287a4.22,4.22,0,0,0-2.49-.81Z"/><path class="cls-1" d="M115.43,117.76c-3.08-16.34-5.37-30.28-6.45-43,11.24,3.48,23.9,8.08,39.86,14.47-1.6,5.62-7.75,27.64-7.75,27.64C132.55,117.27,123.91,117.51,115.43,117.76Z"/><path d="M119.32,87.52c5.74,2,12,4.33,18.82,7q-1.26,4.48-2.5,9l-.42,1.49-.93,3.33c-3.84.14-7.7.27-11.54.38-1.36-7.55-2.52-14.57-3.43-21.17M104.09,64.27a4.41,4.41,0,0,0-4.4,4.61c.86,16.22,3.94,34.25,7.53,53.15a5.69,5.69,0,0,0,5.57,4.65H113c10.46-.29,21.24-.59,31.78-1.1a4.34,4.34,0,0,0,4-3.17c1.18-4.18,2.36-8.42,3.55-12.69,2-7.27,4.06-14.58,6.16-21.87a4.45,4.45,0,0,0-2.59-5.34c-17.29-7-34.45-13.45-50.54-18.07a4.26,4.26,0,0,0-1.21-.17Z"/><path class="cls-1" d="M48,121.89A250,250,0,0,1,74.22,88.22c1.29,10.54,3.09,21.16,4.87,30.87C67.29,119.76,57.14,120.68,48,121.89Z"/><path class="cls-1" d="M77.55,73.9a4.28,4.28,0,0,0-3,1.28,257.2,257.2,0,0,0-39.13,50.31,4.45,4.45,0,0,0,3.78,6.66,4.93,4.93,0,0,0,.75-.06,375.73,375.73,0,0,1,44.66-4.41,4.42,4.42,0,0,0,4.13-5.24C85.78,107,83.26,92,82,77.91a4.43,4.43,0,0,0-4.46-4Z"/><path class="cls-1" d="M159.27,54.66c-11.2-4.43-21-8-29.92-11.08A247,247,0,0,1,170.6,23.94C166.73,33.23,163,43.39,159.27,54.66Z"/><path d="M154.93,40c-.36,1-.71,2-1.07,3L150.94,42c1.32-.66,2.65-1.3,4-1.91m23.81-28a4.69,4.69,0,0,0-1.36.21,254.64,254.64,0,0,0-60.9,28.92,4.43,4.43,0,0,0,1.21,7.93c13.9,4.33,28.27,9.74,42.71,15.53A4.55,4.55,0,0,0,162,65a4.4,4.4,0,0,0,4.19-3.07A398.47,398.47,0,0,1,182.67,18.4,4.48,4.48,0,0,0,178.74,12Z"/><path class="cls-1" d="M90,439.37a247.86,247.86,0,0,1-34-37.72c10.51,1.51,22.21,2.8,34.72,3.86C90.29,415.37,90.05,427.48,90,439.37Z"/><path class="cls-1" d="M76.45,413.07l5.1.5c0,1.63-.08,3.29-.13,5q-2.52-2.7-5-5.48m-30-21.74a4.44,4.44,0,0,0-3.67,6.85A257.44,257.44,0,0,0,91.63,452.5a4.26,4.26,0,0,0,2.75,1,4.49,4.49,0,0,0,4.49-4.5c-.11-17,.24-35,.86-47.37A4.4,4.4,0,0,0,95.67,397c-16.52-1.3-33.2-3.15-48.52-5.65a6.42,6.42,0,0,0-.74-.05Z"/><path class="cls-1" d="M255.63,503.17a246.32,246.32,0,0,1-129.32-36.58c-.61-19.18-.32-43.15.3-58.81,25.3,1.05,59.53,1.31,69.75,1.36a163.46,163.46,0,0,0,59.3,11.15,167.58,167.58,0,0,0,26.66-2.16C354.7,406.34,412.25,344.9,419.16,272c4.46-47-10.45-91.89-42-126.54A164.68,164.68,0,0,0,255.65,91.72c-2,0-3.9,0-5.92.14l22-34.28a13.36,13.36,0,0,0-2.52-17.24L233.54,9.87c7.39-.68,14.8-1,22.11-1,68.89,0,132.85,27.65,180.08,77.86s70.84,115.85,66.6,184.91C494.77,394.8,392.26,496.35,269,502.83Q262.25,503.18,255.63,503.17Z"/><path d="M256.32,17.7a236.06,236.06,0,0,1,173,75.08c45.5,48.37,68.3,111.7,64.22,178.3-7.29,118.74-106.13,216.66-225,222.91-4.27.22-8.59.33-12.84.33A237.55,237.55,0,0,1,135,461.51c-.35-14.57-.22-31.21.13-44.57,22.93.75,49.12,1,59.55,1a172.1,172.1,0,0,0,60.94,11.16,176.31,176.31,0,0,0,28.1-2.28A172.68,172.68,0,0,0,428,272.87c4.69-49.47-11-96.81-44.23-133.32A173.6,173.6,0,0,0,265.8,83.19l13.36-20.82a22.22,22.22,0,0,0-4.25-28.76L256.32,17.7M255.64,0a255,255,0,0,0-33.37,2.21A4.43,4.43,0,0,0,220,10l43.38,37.09a4.41,4.41,0,0,1,.84,5.75L237.47,94.56a4.4,4.4,0,0,0,3.63,6.79l.47,0a139,139,0,0,1,14.07-.75A155.47,155.47,0,0,1,410.35,271.19c-6.59,69.49-60.55,127-129.45,138.2a158.58,158.58,0,0,1-25.26,2.05,154.76,154.76,0,0,1-57.58-11.15c-13.18-.05-50.16-.36-75.52-1.56h-.22a4.35,4.35,0,0,0-4.35,4.16c-.85,17.29-1.17,45.87-.42,66.38a4.44,4.44,0,0,0,2.1,3.59,254.69,254.69,0,0,0,136,39.15c4.55,0,9.15-.12,13.76-.36C398,504.88,503.26,400.71,511.15,272.15,520.29,123.46,402.38,0,255.64,0Z"/><path class="cls-1" d="M92.43,303.58c1.36-2.27,2.73-4.56,4.08-6.84q1.39,5.29,3.11,10.51Z"/><path class="cls-1" d="M98.43,280.31a4.36,4.36,0,0,0-3.81,2.2c-3.7,6.34-7.46,12.64-11.18,18.84-.17.27-.41.68-.69,1.15-1.1,1.82-.87,5.61,1.8,7L97.27,316,109.11,322a4.09,4.09,0,0,0,1.8.45c2,0,3.57-1.62,2.74-3.49a154.92,154.92,0,0,1-10.92-35.11,4.3,4.3,0,0,0-4.3-3.57Z"/><path class="cls-1" d="M129.35,371.89c.36-3.42.73-6.67,1.1-9.73q4.44,5.22,9.32,10.08C136.19,372.15,132.69,372,129.35,371.89Z"/><path class="cls-1" d="M127.43,346.73a4.39,4.39,0,0,0-4.4,3.8c-1,6.9-2,15.41-3,25.1a4.43,4.43,0,0,0,4.13,4.9c8.23.38,17.71.66,27.19.87h.11a4.38,4.38,0,0,0,2.87-7.7,155.9,155.9,0,0,1-23.48-25.22,4.3,4.3,0,0,0-3.46-1.75Z"/><path class="cls-1" d="M215.9,77.94q-11.25-4.55-23.25-9.59c4.39-13.64,8.59-25,12.94-35l25.14,21.5Z"/><path d="M209.15,48l10,8.53L212.43,67l-8.81-3.64c1.86-5.48,3.7-10.57,5.53-15.34M204,21.69a4.36,4.36,0,0,0-4,2.53C193,39.27,187.14,56,181.78,73.41L187.93,76c9.74,4.07,19.1,8,28.12,11.56a4.34,4.34,0,0,0,1.61.31,4.44,4.44,0,0,0,3.72-2.06l18.87-29.44a4.41,4.41,0,0,0-.85-5.75L206.88,22.78A4.42,4.42,0,0,0,204,21.69Z"/><path class="cls-1" d="M182.34,103l6.88,2.84q-4.51,2-8.88,4.25Z"/><path class="cls-1" d="M179.72,92.71c-2.8,0-4.56,3.16-5.77,7.44-1.37,4.86-3,10.62-4.07,14.47-.66,2.36-1.31,4.7-2,7a2.94,2.94,0,0,0,3,3.61,3.2,3.2,0,0,0,1.72-.51,154.91,154.91,0,0,1,30-14.7,4.39,4.39,0,0,0,.16-8.19q-8.17-3.3-16.71-6.84c-.77-.32-2.73-1.22-4.73-2a4.62,4.62,0,0,0-1.6-.31Z"/></g></g></svg>