<svg xmlns="http://www.w3.org/2000/svg" viewBox="0 0 511.61 512"><defs><style>.cls-1{fill:#b7f900;stroke:#000;stroke-miterlimit:10;stroke-width:4px;}.cls-2{fill:#5dbc9d;}</style></defs><g id="Layer_2" data-name="Layer 2"><g id="Layer_1-2" data-name="Layer 1"><g id="Layer_2-2" data-name="Layer 2"><g id="Layer_1-2-2" data-name="Layer 1-2"><path class="cls-1" d="M322.3,190.4a8.86,8.86,0,0,1-6.6-14.7l11.7-13.3a8.88,8.88,0,1,1,13.7,11.3c-.1.1-.2.3-.4.4L329,187.4A9.27,9.27,0,0,1,322.3,190.4Z"/><path class="cls-1" d="M347.2,223.8a8.84,8.84,0,0,1-3.7-16.9l16.1-7.4a8.83,8.83,0,1,1,7.7,15.9c-.1.1-.2.1-.3.2L350.9,223A9.09,9.09,0,0,1,347.2,223.8Z"/><path class="cls-1" d="M356.5,264.5a8.86,8.86,0,0,1-.1-17.7l17.7-.3c4.9.3,8.9,3.8,9,8.7a8.84,8.84,0,0,1-8.7,9h0l-17.7.3Z"/><path class="cls-1" d="M364.7,312.5a8.42,8.42,0,0,1-3.5-.7l-16.3-6.9a8.82,8.82,0,0,1,7-16.2l16.3,6.9a8.85,8.85,0,0,1,4.7,11.6,8.71,8.71,0,0,1-8.2,5.3Z"/><path class="cls-1" d="M336.5,352.6a9,9,0,0,1-6.5-2.8l-12.1-12.9a8.84,8.84,0,1,1,12.9-12.1h0l12.1,12.9a8.94,8.94,0,0,1-.4,12.5A8.47,8.47,0,0,1,336.5,352.6Z"/><path class="cls-1" d="M294.5,378a8.93,8.93,0,0,1-8.4-6l-5.8-16.7a8.83,8.83,0,1,1,16.5-6.3c.1.2.1.3.2.5l5.8,16.7a8.77,8.77,0,0,1-5.4,11.2h0A7.92,7.92,0,0,1,294.5,378Z"/><path class="cls-2" d="M60.5,286.8a382.13,382.13,0,0,1-34.1-20.7c10.7-8.2,22.7-16.1,32.9-22.5,5,6.7,10.1,13.4,14.9,20.1C69.7,271.5,65.1,279.2,60.5,286.8Z"/><path class="cls-2" d="M57.2,255.5c2.2,2.9,4.3,5.8,6.5,8.8-2.1,3.6-4.2,7.1-6.3,10.7-5.7-3.2-10.8-6.3-15.5-9.2,5.1-3.7,10.3-7.1,15.3-10.3m3.2-22.2a5.13,5.13,0,0,0-2.4.7c-15.4,9.7-29.7,19.2-41.8,28.9a4.33,4.33,0,0,0-.6,6.2,6,6,0,0,0,.8.8C28.8,279,44.1,288,60.2,296.7a4.31,4.31,0,0,0,5.7-1.5c5.8-9.7,11.8-19.6,17.5-29.5a4.4,4.4,0,0,0-.2-4.8C77.1,252.2,70.5,243.5,64,235A4.75,4.75,0,0,0,60.4,233.3Z"/><path class="cls-2" d="M122.3,153.6l5.2-.2c-1.5,1.8-2.9,3.7-4.3,5.5C122.9,157.1,122.6,155.3,122.3,153.6Z"/><path class="cls-2" d="M137.6,144.1h-.2c-7.1.3-14.2.5-21.2.7a3.8,3.8,0,0,0-3.7,3.9,1.27,1.27,0,0,0,.1.6c1.3,7.2,2.6,14.5,3.8,21.8a4.25,4.25,0,0,0,4.4,3.7,4.36,4.36,0,0,0,3.7-2.1,148,148,0,0,1,16.4-21.4,4.38,4.38,0,0,0-.2-6.1,5.33,5.33,0,0,0-3.1-1.1Z"/><path class="cls-2" d="M90,224.6l5.2-3.2c-.6,2.7-1.1,5.3-1.5,8Z"/><path class="cls-2" d="M102.3,207.3a4.2,4.2,0,0,0-2.4.7L81.6,219.4A4.77,4.77,0,0,0,80,226c.1.1.2.3.3.4,4.3,5.7,8.6,11.4,12.7,17.2a4.45,4.45,0,0,0,6.1,1.1,4.37,4.37,0,0,0,1.8-3.2,147.43,147.43,0,0,1,5.5-28.6,4.32,4.32,0,0,0-2.9-5.4,2.54,2.54,0,0,0-1.2-.2Z"/><path class="cls-2" d="M9.5,234a249,249,0,0,1,8.7-46.8c6.2,9.7,13,19.1,19.3,27.6C26.6,221.8,17.5,228,9.5,234Z"/><path class="cls-2" d="M22.1,208.7c.9,1.3,1.8,2.6,2.8,3.8l-4,2.6c.3-2.1.7-4.3,1.2-6.4m-5.2-36.6a4.42,4.42,0,0,0-4.2,3A255.23,255.23,0,0,0,0,243.2a4.44,4.44,0,0,0,4.2,4.6h.2a4.39,4.39,0,0,0,2.7-.9Q26,232.35,46.2,219.7a4.39,4.39,0,0,0,1.4-6.1c-.1-.1-.1-.2-.2-.3C37.4,200,28.1,187,20.7,174.2a4.41,4.41,0,0,0-3.8-2.1Z"/><path class="cls-2" d="M93.4,369.6c-13.4-1.1-25.5-2.5-36.3-4.1,4.3-8.9,9.7-18.8,16.9-31L96.3,346C95.2,353.9,94.2,361.8,93.4,369.6Z"/><path class="cls-2" d="M77.4,346.3l1.5.8,2.1,1,5.7,3c-.4,3-.8,6.1-1.1,9.1-5.2-.5-10.1-1-14.9-1.6,2-3.9,4.2-8,6.7-12.3m-5.1-22a4.29,4.29,0,0,0-3.8,2.2c-8.2,14-15.8,27.6-21.9,40.7a4.51,4.51,0,0,0,2.2,5.9,2.28,2.28,0,0,0,1.1.3c14.8,2.4,31.1,4.1,47.2,5.4h.3a4.46,4.46,0,0,0,4.4-4.1c1.2-12.3,2.6-22.9,3.7-30.8a4.29,4.29,0,0,0-2.3-4.5c-4.7-2.4-9.4-4.8-14.2-7.2s-9.8-5-14.7-7.5a4.77,4.77,0,0,0-2-.4Z"/><path class="cls-2" d="M68.1,195.7c-9-12.1-18-24.7-24.9-36.7,14-2.5,29.1-3.6,42.7-4.2,1.5,7.9,3.2,17.5,4.7,27-2,1.3-4.1,2.4-6.2,3.7-4.8,2.8-9.7,5.7-14.5,9C69.4,194.9,68.7,195.3,68.1,195.7Z"/><path class="cls-2" d="M78.6,164c.8,4.3,1.6,8.7,2.3,13.2l-1,.6c-3.2,1.9-6.5,3.8-9.8,5.9-4.3-6-8.6-12-12.5-17.9,7.1-.9,14.1-1.4,21-1.8m10.9-18.3h-.2c-19.4.8-37.7,2.2-53.9,5.7a4.41,4.41,0,0,0-3.4,5.2,4.87,4.87,0,0,0,.4,1.1c7.8,14.8,19,30.5,31.2,46.8a3.7,3.7,0,0,0,3.3,1.6,4.28,4.28,0,0,0,2.2-.6c2-1.2,4-2.5,5.9-3.9,7.3-5.1,15.2-9.2,22.7-13.9a4.4,4.4,0,0,0,2-4.4c-1.7-11.4-3.8-22.7-5.9-34a4.31,4.31,0,0,0-4.3-3.6Z"/><path class="cls-2" d="M26,347.5a244.47,244.47,0,0,1-13.6-47.4c8.5,5.6,18.1,11.3,29.7,17.7C35.7,328.9,30.4,338.6,26,347.5Z"/><path class="cls-2" d="M25.7,318.6l4.3,2.5c-.8,1.4-1.6,2.9-2.4,4.3-.7-2.3-1.3-4.5-1.9-6.8M6.5,286.2A4.46,4.46,0,0,0,2,290.6v.6a255.75,255.75,0,0,0,19.7,69,4.24,4.24,0,0,0,3.9,2.6,4.41,4.41,0,0,0,4.1-2.6c6.3-13.7,13.9-27.5,22.2-41.8a4.54,4.54,0,0,0-1.6-6.1.1.1,0,0,1-.1-.1C35.3,304,21.2,295.7,9,287a4.38,4.38,0,0,0-2.5-.8Z"/><path class="cls-2" d="M115.4,117.8c-3.1-16.3-5.4-30.3-6.4-43,11.2,3.5,23.9,8.1,39.9,14.5-1.6,5.6-7.8,27.6-7.8,27.6C132.6,117.3,123.9,117.5,115.4,117.8Z"/><path class="cls-2" d="M119.3,87.5c5.7,2,12,4.3,18.8,7-.8,3-1.7,6-2.5,9l-.4,1.5-.9,3.3c-3.8.1-7.7.3-11.5.4-1.4-7.5-2.6-14.6-3.5-21.2M104.1,64.3a4.44,4.44,0,0,0-4.4,4.4v.2c.9,16.2,3.9,34.3,7.5,53.2a5.78,5.78,0,0,0,5.6,4.7h.2c10.5-.3,21.2-.6,31.8-1.1a4.38,4.38,0,0,0,4-3.2c1.2-4.2,2.4-8.4,3.6-12.7,2-7.3,4.1-14.6,6.2-21.9a4.39,4.39,0,0,0-2.6-5.3c-17.3-7-34.4-13.4-50.5-18.1a3.4,3.4,0,0,0-1.4-.2Z"/><path class="cls-2" d="M48,121.9A251.37,251.37,0,0,1,74.2,88.2c1.3,10.5,3.1,21.2,4.9,30.9C67.3,119.8,57.1,120.7,48,121.9Z"/><path class="cls-2" d="M77.6,73.9a4.34,4.34,0,0,0-3,1.3,257.24,257.24,0,0,0-39.1,50.3,4.46,4.46,0,0,0,1.7,6.1,3.94,3.94,0,0,0,2.1.6,2.2,2.2,0,0,0,.8-.1,371.69,371.69,0,0,1,44.7-4.4,4.44,4.44,0,0,0,4.2-4.6,1.27,1.27,0,0,0-.1-.6A433.84,433.84,0,0,1,82,77.9a4.44,4.44,0,0,0-4.4-4Z"/><path class="cls-2" d="M159.3,54.7c-11.2-4.4-21-8-29.9-11.1A240.24,240.24,0,0,1,170.7,24C166.7,33.2,163,43.4,159.3,54.7Z"/><path class="cls-2" d="M154.9,40c-.4,1-.7,2-1.1,3l-2.9-1c1.4-.7,2.7-1.3,4-2m23.9-27.9a6.75,6.75,0,0,0-1.4.2,253.85,253.85,0,0,0-60.9,28.9,4.38,4.38,0,0,0-1.2,6.1,4.3,4.3,0,0,0,2.4,1.8c13.9,4.3,28.3,9.7,42.7,15.5a4.15,4.15,0,0,0,1.6.3,4.38,4.38,0,0,0,4.2-3.1,374,374,0,0,1,16.5-43.5,4.52,4.52,0,0,0-2.1-6,5.54,5.54,0,0,0-1.8-.2Z"/><path class="cls-2" d="M90,439.4a248.15,248.15,0,0,1-34-37.7c10.5,1.5,22.2,2.8,34.7,3.9C90.3,415.4,90.1,427.5,90,439.4Z"/><path class="cls-2" d="M76.4,413.1l5.1.5c0,1.6-.1,3.3-.1,5-1.7-1.8-3.3-3.7-5-5.5m-30-21.7a4.4,4.4,0,0,0-4.4,4.5,5.13,5.13,0,0,0,.7,2.4,257.68,257.68,0,0,0,48.9,54.3,4.55,4.55,0,0,0,2.8,1,4.48,4.48,0,0,0,4.5-4.5h0c-.1-17,.2-35,.9-47.4a4.43,4.43,0,0,0-4.1-4.6c-16.5-1.3-33.2-3.1-48.5-5.6a.78.78,0,0,0-.8-.1Z"/><path class="cls-2" d="M255.6,503.2a246,246,0,0,1-129.3-36.6c-.6-19.2-.3-43.1.3-58.8,25.3,1,59.5,1.3,69.8,1.4a162.51,162.51,0,0,0,59.3,11.1,160.31,160.31,0,0,0,26.7-2.2c72.4-11.8,129.9-73.2,136.8-146.1,4.5-47-10.5-91.9-42-126.5A164.51,164.51,0,0,0,255.7,91.8c-2,0-3.9,0-5.9.1l22-34.3a13.32,13.32,0,0,0-2.5-17.2L233.5,9.9c7.4-.7,14.8-1,22.1-1,68.9,0,132.9,27.7,180.1,77.9s70.8,115.8,66.6,184.9c-7.5,123.1-110,224.7-233.3,231.1C264.5,503.1,260,503.2,255.6,503.2Z"/><path d="M256.3,17.7a235.91,235.91,0,0,1,173,75.1c45.5,48.4,68.3,111.7,64.2,178.3-7.3,118.7-106.1,216.7-225,222.9-4.3.2-8.6.3-12.8.3A238.35,238.35,0,0,1,135,461.5c-.4-14.6-.2-31.2.1-44.6,22.9.8,49.1,1,59.6,1a171.52,171.52,0,0,0,60.9,11.2,176.56,176.56,0,0,0,28.1-2.3A172.74,172.74,0,0,0,428,272.8c4.7-49.5-11-96.8-44.2-133.3a173.89,173.89,0,0,0-118-56.4l13.4-20.8a22.27,22.27,0,0,0-4.3-28.8L256.3,17.7M255.6,0a248.71,248.71,0,0,0-33.4,2.2,4.43,4.43,0,0,0-3.8,5,4.32,4.32,0,0,0,1.5,2.8l43.4,37.1a4.44,4.44,0,0,1,.8,5.8L237.3,94.6a4.48,4.48,0,0,0,1.3,6.1,4.76,4.76,0,0,0,2.3.7h.5c4.7-.5,9.4-.7,14.1-.8A155.33,155.33,0,0,1,410.9,256.1c0,5-.2,10.1-.7,15.1-6.6,69.5-60.5,127-129.4,138.2a153.23,153.23,0,0,1-25.3,2,155.7,155.7,0,0,1-57.6-11.1c-13.2,0-50.2-.4-75.5-1.6h-.2a4.31,4.31,0,0,0-4.3,4.2c-.8,17.3-1.2,45.9-.4,66.4a4.43,4.43,0,0,0,2.1,3.6,254.6,254.6,0,0,0,136,39.1c4.5,0,9.1-.1,13.8-.4C398,504.8,503.2,400.7,511.1,272.1,520.3,123.5,402.4,0,255.6,0Z"/><path class="cls-2" d="M92.4,303.6c1.4-2.3,2.7-4.6,4.1-6.8.9,3.5,2,7,3.1,10.5Z"/><path class="cls-2" d="M98.4,280.3a4.29,4.29,0,0,0-3.8,2.2c-3.7,6.3-7.5,12.6-11.2,18.8-.2.3-.4.7-.7,1.1-1.1,1.8-.9,5.6,1.8,7l12.7,6.5,11.8,6a6.07,6.07,0,0,0,1.8.5c2,0,3.6-1.6,2.7-3.5a153.66,153.66,0,0,1-10.9-35.1,4.05,4.05,0,0,0-4.2-3.5Z"/><path class="cls-2" d="M129.4,371.9c.4-3.4.7-6.7,1.1-9.7,3,3.5,6.1,6.8,9.3,10.1C136.2,372.1,132.7,372,129.4,371.9Z"/><path class="cls-2" d="M127.4,346.7a4.42,4.42,0,0,0-4.4,3.8c-1,6.9-2,15.4-3,25.1a4.46,4.46,0,0,0,3.9,4.9h.2c8.2.4,17.7.7,27.2.9h.1a4.37,4.37,0,0,0,4.4-4.4,4.46,4.46,0,0,0-1.5-3.3,160.31,160.31,0,0,1-23.5-25.2,4.17,4.17,0,0,0-3.4-1.8Z"/><path class="cls-2" d="M215.9,77.9c-7.5-3-15.3-6.2-23.3-9.6,4.4-13.6,8.6-25,12.9-35l25.1,21.5Z"/><path class="cls-2" d="M209.1,48l10,8.5L212.4,67l-8.8-3.6c1.9-5.5,3.7-10.6,5.5-15.4M204,21.7a4.45,4.45,0,0,0-4,2.5c-7,15-12.9,31.8-18.2,49.2l6.1,2.6c9.7,4.1,19.1,8,28.1,11.6a4.53,4.53,0,0,0,1.6.3,4.36,4.36,0,0,0,3.7-2.1l18.9-29.4a4.47,4.47,0,0,0-.9-5.8L206.8,22.8A3.93,3.93,0,0,0,204,21.7Z"/><path class="cls-2" d="M182.3,103l6.9,2.8c-3,1.3-6,2.8-8.9,4.3Z"/><path class="cls-2" d="M179.7,92.7c-2.8,0-4.6,3.2-5.8,7.4-1.4,4.9-3,10.6-4.1,14.5-.7,2.4-1.3,4.7-2,7a2.84,2.84,0,0,0,2.2,3.5,2.2,2.2,0,0,0,.8.1,3.37,3.37,0,0,0,1.7-.5,151.72,151.72,0,0,1,30-14.7,4.4,4.4,0,0,0,.1-8.2c-5.4-2.2-11-4.5-16.7-6.8-.8-.3-2.7-1.2-4.7-2a3.34,3.34,0,0,0-1.5-.3Z"/></g></g></g></g></svg>