<svg xmlns="http://www.w3.org/2000/svg" viewBox="0 0 406.31 512"><defs><style>.cls-1{fill:#e8e8e8;}.cls-2{fill:#333e48;}.cls-3{fill:#d1d3d3;}.cls-4{fill:#61b8ff;}</style></defs><g id="Layer_2" data-name="Layer 2"><g id="Layer_1-2" data-name="Layer 1"><polygon class="cls-1" points="312.94 12.07 12.07 12.07 12.07 499.93 394.24 499.93 394.24 93.37 312.94 12.07"/><path class="cls-2" d="M162.54,199.66H148.25V160.55l.14-6.43.23-7c-2.38,2.38-4,3.93-5,4.67L135.9,158,129,149.4l21.77-17.33h11.75v67.59Z"/><path class="cls-2" d="M228.14,165.86q0,17.71-5.8,26.22t-17.87,8.51q-11.7,0-17.64-8.79t-5.94-25.94q0-17.88,5.78-26.37t17.8-8.48q11.7,0,17.68,8.87T228.14,165.86Zm-33.06,0q0,12.45,2.15,17.83t7.24,5.38q5,0,7.21-5.45t2.22-17.76q0-12.42-2.24-17.86t-7.19-5.44q-5,0-7.22,5.44T195.08,165.86Z"/><path class="cls-2" d="M270.63,199.66H256.34V160.55l.14-6.43.23-7c-2.37,2.38-4,3.93-4.95,4.67L244,158l-6.89-8.61,21.77-17.33h11.75v67.59Z"/><path class="cls-2" d="M174.09,258.53q0,17.7-5.8,26.21t-17.87,8.51q-11.7,0-17.64-8.78t-5.94-25.94q0-17.89,5.78-26.38t17.8-8.48q11.7,0,17.69,8.88T174.09,258.53Zm-33.06,0q0,12.44,2.16,17.82t7.23,5.39q5,0,7.21-5.46t2.22-17.75q0-12.43-2.24-17.87t-7.19-5.43q-5,0-7.21,5.43T141,258.53Z"/><path class="cls-2" d="M216.58,292.32H202.29V253.21l.14-6.43.23-7q-3.56,3.56-4.94,4.67L190,250.67l-6.89-8.6,21.78-17.34h11.74v67.59Z"/><path class="cls-2" d="M270.63,292.32H256.34V253.21l.14-6.43.23-7q-3.55,3.56-4.95,4.67L244,250.67l-6.89-8.6,21.77-17.34h11.75v67.59Z"/><polygon class="cls-3" points="312.94 93.37 394.24 93.37 312.94 12.07 312.94 93.37"/><polygon class="cls-4" points="326.12 51.05 12.67 51.05 12.67 10.4 313.54 10.4 326.12 51.05"/><path d="M182.81,452.76h21V375.55h-21Zm220-367.92-81.3-81.3A12,12,0,0,0,312.94,0H12.07A12.06,12.06,0,0,0,0,12.07V499.93A12.06,12.06,0,0,0,12.07,512H394.24a12.06,12.06,0,0,0,12.07-12.07V93.37A12,12,0,0,0,402.77,84.84ZM325,41.2,365.1,81.3H325V41.2ZM24.14,24.14H300.87V40.65H24.14Zm358,463.72h-358V64.79H300.87V93.37a12.06,12.06,0,0,0,12.07,12.07h69.23V487.86Zm-106.79-77.4q0,7.08.74,18.74h-.32l-28.09-53.65H220.46v77.21h18.48V418q0-6.76-1-19.6h.47l28.2,54.4H294V375.55H275.38Zm-119.61,1.85v-.53a14.82,14.82,0,0,0,8.77-5.92,18.38,18.38,0,0,0,3.32-11.09q0-9.87-7.63-14.54t-23.36-4.68H109.94v77.21h30q13.64,0,21.52-6.05t7.9-16.56q0-7.06-3.22-11.51T155.77,412.31Zm-25-21h5.86q9.83,0,9.82,6.5a6.43,6.43,0,0,1-2.46,5.49,11.35,11.35,0,0,1-6.94,1.85H130.8V391.34Zm7.34,45.31h-7.35V420.44h6.92q5,0,7.58,2.06a7.08,7.08,0,0,1,2.61,5.91Q147.9,436.66,138.14,436.65Z"/></g></g></svg>