<svg xmlns="http://www.w3.org/2000/svg" viewBox="0 0 462.45 512"><defs><style>.cls-1{fill:#a8b0bc;}.cls-2{fill:#c1c8d1;}.cls-3{fill:#c16b3f;}.cls-4{fill:#e39854;}.cls-5{fill:#f2c351;}.cls-6{fill:#f7d881;}.cls-7{fill:#758190;}.cls-8{fill:#8892a0;}.cls-9{fill:#78b75b;}.cls-10{fill:#96cc7f;}</style></defs><g id="Layer_2" data-name="Layer 2"><g id="Layer_1-2" data-name="Layer 1"><path class="cls-1" d="M256,396.39V156.91a49.54,49.54,0,0,0-49.55-49.55,24.77,24.77,0,0,1-24.77-24.78V74.32H82.58v8.26a24.77,24.77,0,0,1-24.77,24.78A49.54,49.54,0,0,0,8.26,156.91V396.39a41.29,41.29,0,0,0,41.29,41.29H214.71A41.29,41.29,0,0,0,256,396.39Z"/><path class="cls-2" d="M148.3,218.67A201.52,201.52,0,0,0,87.62,74.32h-5v8.26a24.77,24.77,0,0,1-24.77,24.78A49.54,49.54,0,0,0,8.26,156.91V396.39a40.76,40.76,0,0,0,2.54,13.8c79.92-27,137.5-102.5,137.5-191.52Z"/><path class="cls-3" d="M8.26,388.14H206.73c-.18-2.74-.28-5.49-.28-8.26a124.86,124.86,0,0,1,2.48-24.78H8.26Z"/><path class="cls-4" d="M95.29,355.1h-87v33h48A202.91,202.91,0,0,0,95.29,355.1Z"/><path class="cls-3" d="M8.26,156.91H256v33H8.26Z"/><path class="cls-4" d="M138.66,156.91H8.26v33h138A200.89,200.89,0,0,0,138.66,156.91Z"/><path class="cls-5" d="M8.26,189.94V355.1H208.93A123.9,123.9,0,0,1,256,280.77h0V189.94Z"/><path class="cls-6" d="M8.26,355.1h87a201.38,201.38,0,0,0,53-136.43,204.63,204.63,0,0,0-2.06-28.73H8.26Z"/><path class="cls-7" d="M189.94,74.32H74.32A16.51,16.51,0,0,1,57.81,57.81v-33A16.51,16.51,0,0,1,74.32,8.26H189.94a16.51,16.51,0,0,1,16.51,16.51v33A16.51,16.51,0,0,1,189.94,74.32Z"/><path class="cls-8" d="M90.84,24.77h16.51V74.32H90.84Z"/><path class="cls-8" d="M156.91,24.77h16.5V74.32h-16.5Z"/><path class="cls-8" d="M123.87,24.77h16.51V74.32H123.87Z"/><path class="cls-3" d="M181.68,289a41.29,41.29,0,0,1-41.29,41.29H123.87A41.29,41.29,0,0,1,82.58,289V256a41.29,41.29,0,0,1,41.29-41.29h16.52A41.29,41.29,0,0,1,181.68,256H156.91a16.52,16.52,0,0,0-16.52-16.51H123.87A16.51,16.51,0,0,0,107.36,256v33a16.51,16.51,0,0,0,16.51,16.51h16.52A16.52,16.52,0,0,0,156.91,289Z"/><circle class="cls-4" cx="330.33" cy="379.88" r="123.87"/><path class="cls-3" d="M429.41,379.87H412.89a82.66,82.66,0,0,0-82.57-82.58V280.77A99.21,99.21,0,0,1,429.41,379.87Z"/><path class="cls-9" d="M346.84,256H330.33a66.07,66.07,0,0,1,66.06-66.06h16.52A66.07,66.07,0,0,1,346.84,256Z"/><path class="cls-10" d="M330.33,256a49.54,49.54,0,0,1-49.55-49.55v-33A49.54,49.54,0,0,1,330.33,223Z"/><path class="cls-3" d="M272.51,429.43H289v16.51H272.51Z"/><path class="cls-3" d="M297.3,421.17h16.5v16.51H297.3Z"/><path class="cls-3" d="M289,396.39h16.51v16.52H289Z"/><path class="cls-3" d="M247.75,412.91h16.5v16.52h-16.5Z"/><path class="cls-3" d="M264.26,388.14h16.51v16.51H264.26Z"/><path class="cls-4" d="M123.87,305.55A16.51,16.51,0,0,1,107.36,289V256a16.51,16.51,0,0,1,16.51-16.51h16.52a16.27,16.27,0,0,1,6.66,1.43,204.39,204.39,0,0,0,1.25-22.25c0-1.07-.07-2.11-.08-3.16a40.45,40.45,0,0,0-7.83-.8H123.87A41.29,41.29,0,0,0,82.58,256v33a41.28,41.28,0,0,0,32.67,40.35,200.32,200.32,0,0,0,13.46-23.84Z"/><path d="M123.87,247.75h16.51a8.26,8.26,0,0,1,8.26,8.25,8.25,8.25,0,0,0,8.26,8.25h24.77a8.25,8.25,0,0,0,8.26-8.25,49.6,49.6,0,0,0-49.55-49.55H123.86A49.6,49.6,0,0,0,74.32,256v33a49.6,49.6,0,0,0,49.55,49.55h16.51A49.6,49.6,0,0,0,189.93,289a8.25,8.25,0,0,0-8.26-8.26H156.9a8.26,8.26,0,0,0-8.26,8.26,8.26,8.26,0,0,1-8.26,8.26H123.87a8.27,8.27,0,0,1-8.26-8.26V256A8.26,8.26,0,0,1,123.87,247.75Zm0,66.06h16.51a24.81,24.81,0,0,0,23.36-16.51h8.63a33.08,33.08,0,0,1-32,24.77H123.87a33.07,33.07,0,0,1-33-33V256a33.07,33.07,0,0,1,33-33h16.52a33.08,33.08,0,0,1,32,24.77h-8.63a24.82,24.82,0,0,0-23.36-16.51H123.87A24.8,24.8,0,0,0,99.1,256v33a24.8,24.8,0,0,0,24.77,24.78Z"/><path d="M378.63,257a74.33,74.33,0,0,0,42.52-67.08,8.25,8.25,0,0,0-8.26-8.26H396.38a74.21,74.21,0,0,0-59.06,29.38,57.88,57.88,0,0,0-56.55-45.89h0a8.25,8.25,0,0,0-8.25,8.26v33a56.94,56.94,0,0,0,23,46.09,131.3,131.3,0,0,0-31.27,13.08V156.9a57.89,57.89,0,0,0-57.82-57.8,16.53,16.53,0,0,1-16.5-16.52h0A24.79,24.79,0,0,0,214.7,57.8v-33A24.8,24.8,0,0,0,189.93,0H74.32A24.8,24.8,0,0,0,49.55,24.77v33A24.8,24.8,0,0,0,74.32,82.58,16.54,16.54,0,0,1,57.8,99.1,57.79,57.79,0,0,0,0,156.91V396.39a49.59,49.59,0,0,0,49.55,49.54H214.71c.44,0,.87-.08,1.31-.09A132.09,132.09,0,0,0,330.33,512c72.85,0,132.12-59.27,132.12-132.13,0-55.8-34.82-103.52-83.82-122.86Zm17.75-58.81h7.68a57.9,57.9,0,0,1-57.22,49.55h-7.68A57.91,57.91,0,0,1,396.38,198.2ZM289,206.45V182.51a41.35,41.35,0,0,1,33,40.45v24a41.31,41.31,0,0,1-33-40.47ZM202.54,346.84h-186V198.2H247.75v78.7a132.16,132.16,0,0,0-45.21,69.94Zm-4.34,33H16.52V363.36H199.34A132.31,132.31,0,0,0,198.2,379.88Zm49.55-198.2H16.52V165.16H247.75ZM66.07,57.8v-33a8.26,8.26,0,0,1,8.25-8.25H189.93a8.26,8.26,0,0,1,8.26,8.25v33a8.26,8.26,0,0,1-8.26,8.26H173.41V24.77h-16.5v41.3H140.38V24.77H123.87v41.3H107.35V24.77H90.84v41.3H74.32A8.28,8.28,0,0,1,66.07,57.8Zm-8.26,57.81a33.06,33.06,0,0,0,33-33h82.58a33.06,33.06,0,0,0,33,33,41.37,41.37,0,0,1,40.46,33H17.34a41.25,41.25,0,0,1,40.47-33ZM49.55,429.42a33.06,33.06,0,0,1-33-33H199.34a131.26,131.26,0,0,0,8.58,33Zm280.78,66.06a115.62,115.62,0,1,1,115.6-115.61A115.74,115.74,0,0,1,330.33,495.48Z"/><path d="M330.32,280.78V297.3a82.66,82.66,0,0,1,82.57,82.58h16.52A99.2,99.2,0,0,0,330.32,280.78Z"/><path d="M272.51,429.43H289v16.51H272.51Z"/><path d="M297.3,421.17h16.5v16.51H297.3Z"/><path d="M289,396.39h16.51v16.52H289Z"/><path d="M247.75,412.91h16.5v16.52h-16.5Z"/><path d="M264.26,388.14h16.51v16.51H264.26Z"/></g></g></svg>