<svg xmlns="http://www.w3.org/2000/svg" viewBox="0 0 532 532"><defs><style>.cls-1{fill:#d41a1a;}.cls-2{fill:#367bf0;}.cls-3{fill:#1ba389;}.cls-4{fill:#ffc82d;}.cls-5{fill:#fff;}.cls-5,.cls-6{opacity:0.3;isolation:isolate;}</style></defs><g id="Layer_2" data-name="Layer 2"><g id="Layer_1-2" data-name="Layer 1"><g id="path3025"><path class="cls-1" d="M10.5,262.63a5,5,0,0,1-5-5v-97.9c0-87.29.4-100.23,1.93-105.37a69.29,69.29,0,0,1,47.51-47C60.35,5.78,73,5.39,157.75,5.39h95.32a5,5,0,0,1,5,5V257.63a5,5,0,0,1-5,5Z"/><path d="M253.07,10.39V257.63H10.5v-97.9c0-80.45.33-99.25,1.72-103.95a64.71,64.71,0,0,1,44.1-43.63c5-1.45,23.14-1.76,101.44-1.76h95.32m0-10H157.75C69.93.39,59.6.8,53.55,2.54A74.66,74.66,0,0,0,2.63,52.93C.91,58.71.51,69.25.49,159.73v97.9a10,10,0,0,0,10,10H253.07a10,10,0,0,0,10-10V10.39a10,10,0,0,0-10-10Z"/></g><g id="path3009"><path class="cls-2" d="M318.85,527c-13.57,0-22.38,0-28.54-.06-12.89-.09-12.89-.09-14.54-1.79s-1.59-1.64-1.61-17.63c0-8.91,0-21.88.07-36.89.06-19.62.13-44,.13-70V279.92a5,5,0,0,1,5-5l120.71,1,121.52.32a5,5,0,0,1,5,5l.31,92.8c.34,100.19.34,100.19-7.72,116l-.11.21c-5.4,10.56-17.68,23.17-28,28.72l-.13.07c-14.78,8-14.78,8-104.42,8H373l-28.55,0Z"/><path d="M279.36,279.92l120.67,1,121.55.32.31,91.34c.34,100.93.38,100.36-7.28,115.33-5,9.73-16.43,21.5-25.88,26.6-14.48,7.82-13.46,7.44-115.78,7.46l-54.14,0c-23.61,0-39.18-.06-39.45-.33h0c-.45-.46,0-55,0-121V279.92m0-10a10,10,0,0,0-10,10V400.58c0,26-.07,50.38-.13,70,0,15-.08,28-.07,36.91,0,4.72,0,8.15,0,10.48.07,4.79.1,7.68,3,10.64s6.17,3.1,9.89,3.19c1.87.05,4.55.08,8.18.11,6.18,0,15,.06,28.55.06h25.68l28.47,0h13.6c44.36,0,66.63,0,79.75-.95,14.23-1,19.06-3.33,27-7.64l.13-.07c11.23-6.06,24.14-19.32,30-30.84l.11-.22c4.32-8.45,6.63-13.58,7.61-29.14.92-14.54.83-39.46.66-89.11V372.5l-.31-91.34a10,10,0,0,0-10-10l-121.52-.32-120.64-1Z"/></g><g id="path2986"><path class="cls-3" d="M400.23,262.39l-120.87.24a5,5,0,0,1-5-5L275,10.39a5,5,0,0,1,5-5l90.12-.34Q387.48,5,402,5c60.37,0,65.72.82,67.49,1.09,27.79,4.28,51.27,27.84,55.83,56,1,6.35,1.35,35.95,1.11,102.16l.08,93.34a5,5,0,0,1-5,5Z"/><path d="M402,10c39.17,0,62.26.35,66.71,1,25.83,4,47.41,25.64,51.66,51.88,1,6,1.28,36.48,1,101.34l.08,93.37-121.29-.24-120.88.24.31-123.57L280,10.4l90.12-.33Q387.5,10,402,10m0-10V0c-9.7,0-20.46,0-32,.07L279.94.4a10,10,0,0,0-10,10L269.67,134l-.31,123.57a10,10,0,0,0,10,10h0l120.88-.24,121.25.24h0a10,10,0,0,0,10-10l-.08-93.37c.28-77.66-.26-97.32-1.17-102.93a73.66,73.66,0,0,0-20.52-39.75,71.8,71.8,0,0,0-39.5-20.42C468.21.84,462.77,0,402.05,0Z"/></g><g id="path3009-2"><path class="cls-4" d="M238.82,527c-7,0-16.4,0-27.36-.07-14.76,0-33.12-.12-52.42-.12h-2.63c-100.06,0-100.06,0-115.14-8.17l-.37-.2c-10.28-5.55-22.56-18.17-28-28.72l-.11-.22c-8.06-15.76-8.06-15.76-7.72-115.95l.31-92.81a5,5,0,0,1,5-5L132,275.44l121.12-.52a5,5,0,0,1,5,5V400.3c0,20.85.07,43,.12,62.46.05,16.73.09,31.19.08,41.79,0,19.08,0,19.08-1.61,20.73S255,527,238.82,527Z"/><path d="M253.07,279.92V400.3c0,56.11.45,121,0,121.49-.15.16-5.37.21-14.26.21-16.72,0-46.42-.18-79.76-.19-102.32,0-101.3.05-115.78-7.77-9.45-5.11-20.91-16.88-25.88-26.6-7.66-15-7.62-14.41-7.28-115.34l.31-91.34L132,280.44l121.1-.52m0-10h0l-121.11.52-121.52.32a10,10,0,0,0-10,10L.11,372.07v1.45c-.17,49.65-.26,74.57.66,89.11,1,15.56,3.28,20.7,7.61,29.15l.11.21c5.89,11.52,18.8,24.78,30,30.85l.37.2c8.14,4.4,13.12,6.74,28.66,7.79,14.43,1,39.3,1,88.86,1H159c19.27,0,37.61.07,52.35.12,10.92,0,20.35.07,27.42.07,4.76,0,8.21,0,10.54,0,4.92-.06,7.89-.1,10.89-3.19s2.92-5.49,3-11.57c0-2.85,0-7,0-12.64,0-10.61,0-25.07-.08-41.81-.05-19.49-.12-41.59-.12-62.44V279.92a10,10,0,0,0-10-10Z"/></g><path id="path3009-1" class="cls-5" d="M409.43,10c-11.56,0-24.7,0-39.33.06L280,10.4l-.31,123.66-.31,123.57h0l.28-112.19L280,21.78l90.12-.34c14.63-.05,27.77-.07,39.33-.06,34.68,0,55.16.39,59.32,1,25.83,4,47.41,25.64,51.66,51.89.69,4.27,1,21.46,1.1,54.59,0-40.31-.34-61.26-1.1-66C516.16,36.68,494.58,15,468.75,11,464.59,10.4,444.11,10.05,409.43,10Zm-251.68.39c-78.3,0-96.42.31-101.44,1.76a64.71,64.71,0,0,0-44.1,43.63c-1.39,4.7-1.7,23.5-1.71,104v11.38c0-80.45.32-99.25,1.71-104a64.75,64.75,0,0,1,44.1-43.64c5-1.44,23.14-1.75,101.44-1.75h95.33V10.39ZM521.46,171.72c0,1.47,0,2.42,0,3.92l.07,82h0ZM253.08,400.3v11.38c0,37,.17,76.16.18,99.82C253.33,491.07,253.08,443.23,253.08,400.3Zm26.28.28c0,50.61-.26,94.25-.18,112.18,0-21.52.18-57.88.18-100.8Z"/><path id="path3009-5" class="cls-6" d="M521.51,117.51c0,10.64,0,21.83-.06,35.37v7.47C521.51,143.9,521.53,129.52,521.51,117.51ZM400.24,246l-12.05,0c-.37,0-.74,0-1.12,0H373.73l-83,.16v-.16H279.39v.18l0,11.38,120.88-.24,121.29.24v-11.4L411.61,246H400.24Zm-158.54,0v.18H10.5v11.38H253.08V246.07ZM10,403.48c-.15,69.4.61,70.75,7.37,84,5,9.72,16.43,21.49,25.88,26.6,14.48,7.82,13.46,7.75,115.78,7.77,36.1,0,67.12.21,82.83.17h0c6.51,0,11.05-.06,11.19-.19s.13-5,.15-11.28H241.88v.1c-15.71,0-46.73-.17-82.84-.18-102.31,0-101.29.05-115.77-7.77-9.45-5.11-20.91-16.88-25.88-26.6C11.05,463.66,10,461,10,403.48Zm512,.43c0,57.56-1,60.19-7.37,72.59-5,9.72-16.43,21.49-25.88,26.6-14.48,7.81-13.46,7.43-115.77,7.45-35.72,0-66.13.07-81.87,0H279.2c0,6.21.05,11,.16,11.11h.06a4.65,4.65,0,0,0,.81.09h.08c1.44.08,5.31.12,9.93.16h.31c15.61.12,46.35.06,82.4,0,102.32,0,101.3.36,115.78-7.46,9.45-5.1,20.91-16.87,25.88-26.6C521.37,474.66,522.13,473.31,522,403.91Z"/></g></g></svg>