<svg xmlns="http://www.w3.org/2000/svg" viewBox="0 0 512 490.81"><defs><style>.cls-1{fill:#fc4242;}.cls-2{fill:#fe94a2;}.cls-3{fill:#fcf05a;}.cls-4{fill:#f4f4e6;}.cls-5{fill:#cfdfe8;}.cls-6{fill:#e97424;}.cls-7{fill:#5a6470;}.cls-8{fill:#d9176c;}.cls-9{fill:#aabece;}.cls-10{fill:#32b1cc;}.cls-11{fill:#195c85;}</style></defs><g id="Layer_2" data-name="Layer 2"><g id="Layer_1-2" data-name="Layer 1"><g id="Filled_outline" data-name="Filled outline"><path class="cls-1" d="M469.33,140.94V158H435.2V140.94H401.07V158H366.93V140.94H162.13V158H128V140.94H93.87V158H59.73V140.94H25.6A17.07,17.07,0,0,0,8.53,158v307.2A17.07,17.07,0,0,0,25.6,482.28H170.67V465.21H204.8v17.07h34.13V465.21h34.14v17.07H486.4a17.07,17.07,0,0,0,17.07-17.07V158a17.07,17.07,0,0,0-17.07-17.07Z"/><path class="cls-2" d="M8.53,192.14H76.8v256H8.53Z"/><path class="cls-3" d="M8.53,226.28H42.67v34.13H8.53Z"/><path class="cls-3" d="M8.53,294.54H42.67v34.14H8.53Z"/><path class="cls-4" d="M51.2,362.81v17.07H34.13V362.81Z"/><path class="cls-4" d="M51.2,396.94V414H34.13V396.94Z"/><path class="cls-5" d="M503.47,192.14V362.81H332.8V192.14Z"/><path class="cls-5" d="M110.93,431.08V328.68h85.34l51.2,42.66v59.74Z"/><path class="cls-4" d="M221.87,388.41v17.07H204.8V388.41Z"/><path class="cls-2" d="M435.2,396.94v85.34H401.07V396.94Z"/><path class="cls-2" d="M366.93,396.94v85.34H332.8V396.94Z"/><path class="cls-3" d="M477.87,439.61v17.07H460.8V439.61Z"/><path class="cls-3" d="M477.87,405.48v17.06H460.8V405.48Z"/><circle class="cls-3" cx="418.13" cy="277.48" r="51.2"/><circle class="cls-4" cx="281.6" cy="192.14" r="17.07"/><circle class="cls-4" cx="281.6" cy="260.41" r="17.07"/><circle class="cls-4" cx="281.6" cy="328.68" r="17.07"/><circle class="cls-6" cx="418.13" cy="277.48" r="17.07"/><path class="cls-5" d="M204.8,209.21v68.27H136.53V209.21Z"/><path d="M68.27,132.41H25.6A25.6,25.6,0,0,0,0,158v307.2a25.6,25.6,0,0,0,25.6,25.6H179.2V473.74h17.07v17.07h51.2V473.74h17.06v17.07H486.4a25.6,25.6,0,0,0,25.6-25.6V158a25.6,25.6,0,0,0-25.6-25.6H460.8v17.07H443.73V132.41h-51.2v17.07H375.47V132.41H153.6v17.07H136.53V132.41H85.33v17.07H68.27ZM17.07,251.88V234.81H34.13v17.07Zm0,68.26V303.08H34.13v17.06Zm0,119.47V337.21H51.2V286H17.07V268.94H51.2v-51.2H17.07V200.68h51.2V439.61Zm324.26,34.13V405.48H358.4v68.26Zm68.27,0V405.48h17.07v68.26Zm85.33-273.06v153.6H341.33V200.68ZM102.4,149.48h17.07v17.06h51.2V149.48H358.4v17.06h51.2V149.48h17.07v17.06h51.2V149.48h8.53a8.53,8.53,0,0,1,8.53,8.53v25.6H324.27V371.34H494.93v93.87a8.53,8.53,0,0,1-8.53,8.53H443.73V388.41h-51.2v85.33H375.47V388.41h-51.2v85.33H281.6V456.68H230.4v17.06H213.33V456.68h-51.2v17.06H25.6a8.53,8.53,0,0,1-8.53-8.53v-8.53H85.33V183.61H17.07V158a8.53,8.53,0,0,1,8.53-8.53H51.2v17.06h51.2Z"/><path d="M51.2,362.81v17.07H34.13V362.81Z"/><path d="M51.2,396.94V414H34.13V396.94Z"/><path d="M230.4,217.74V200.68H213.33V183.61H196.27v17.07H179.2V183.61H162.13v17.07H145.07V183.61H128v17.07H110.93v17.06H128v17.07H110.93v17.07H128v17.06H110.93V286H128v17.07h17.07V286h17.06v17.07H179.2V286h17.07v17.07h17.06V286H230.4V268.94H213.33V251.88H230.4V234.81H213.33V217.74Zm-34.13,51.2h-51.2v-51.2h51.2Z"/><path d="M102.4,320.14V439.61H273.07V422.54H256V405.48h17.07V388.41H256V367.34l-56.64-47.2Zm90.78,17.07,45.75,38.14v47.19H119.47V337.21Z"/><path d="M153.6,388.41V354.28H136.53v51.2h51.2V388.41Z"/><path d="M221.87,388.41v17.07H204.8V388.41Z"/><path d="M477.87,439.61v17.07H460.8V439.61Z"/><path d="M477.87,405.48v17.06H460.8V405.48Z"/><path d="M477.87,277.48a59.74,59.74,0,1,0-59.74,59.73A59.74,59.74,0,0,0,477.87,277.48ZM460,286a42.33,42.33,0,0,1-6.25,15l-12.53-12.53a21.33,21.33,0,0,0,1-2.43Zm0-17.07H442.17a23.4,23.4,0,0,0-1-2.43L453.69,254A42.54,42.54,0,0,1,460,268.94Zm-18.32-27L429.1,254.44a23.4,23.4,0,0,0-2.43-1V235.66a42.35,42.35,0,0,1,15,6.26Zm-32-6.26v17.78a23.4,23.4,0,0,0-2.43,1l-12.53-12.53A42.33,42.33,0,0,1,409.6,235.66Zm-33.28,33.28a42.33,42.33,0,0,1,6.25-15l12.52,12.53a25.82,25.82,0,0,0-1,2.43Zm33.28,8.54a8.54,8.54,0,1,1,8.53,8.53A8.53,8.53,0,0,1,409.6,277.48ZM376.32,286H394.1a23.4,23.4,0,0,0,1,2.43L382.57,301A42.52,42.52,0,0,1,376.32,286Zm18.31,27,12.54-12.51a25.75,25.75,0,0,0,2.43,1v17.78a42.35,42.35,0,0,1-15-6.26Zm32-11.52a23.4,23.4,0,0,0,2.43-1L441.63,313a42.35,42.35,0,0,1-15,6.26Z"/><path d="M256,192.14a25.6,25.6,0,1,0,25.6-25.6,25.6,25.6,0,0,0-25.6,25.6Zm34.13,0a8.53,8.53,0,1,1-8.53-8.53A8.53,8.53,0,0,1,290.13,192.14Z"/><path d="M256,260.41a25.6,25.6,0,1,0,25.6-25.6,25.6,25.6,0,0,0-25.6,25.6Zm34.13,0a8.53,8.53,0,1,1-8.53-8.53A8.53,8.53,0,0,1,290.13,260.41Z"/><path d="M256,328.68a25.6,25.6,0,1,0,25.6-25.6,25.6,25.6,0,0,0-25.6,25.6Zm34.13,0a8.53,8.53,0,1,1-8.53-8.54A8.53,8.53,0,0,1,290.13,328.68Z"/></g><path class="cls-7" d="M327.67,41.88l33.67,33.68L294,142.9l-33.68-33.67Z"/><path class="cls-8" d="M344.51,34.67l24.05,24-12,12-24-24.06Z"/><path class="cls-9" d="M358.94,29.86l14.43,14.43-9.62,9.62L349.32,39.48Z"/><path class="cls-8" d="M270,118.85l14.43,14.43-9.62,9.62-14.44-14.43Z"/><path class="cls-9" d="M253.11,121.25,282,150.12a27.2,27.2,0,0,1,0,38.48l-67.34-67.35A27.22,27.22,0,0,1,253.11,121.25Z"/><path class="cls-8" d="M243.49,174.17l-14.43-14.43,9.62-14.43,19.24,19.24Z"/><path class="cls-9" d="M231.46,186.19,217,171.76a3.4,3.4,0,0,1,4.81-4.81l14.43,14.43a3.4,3.4,0,0,1-4.81,4.81Z"/><path class="cls-9" d="M322.86,65.94a3.4,3.4,0,0,1,0-4.81l2.4-2.41a3.4,3.4,0,0,1,4.81,4.81l-2.4,2.41A3.42,3.42,0,0,1,322.86,65.94Z"/><path class="cls-10" d="M337.29,118.85l14.43,14.43-19.24,19.24-14.43-14.43Z"/><path class="cls-11" d="M356.53,99.61,371,114l-19.24,19.24-14.43-14.43Z"/><path class="cls-11" d="M351.72,133.28l14.43,14.43L346.91,167l-14.43-14.43Z"/><path class="cls-10" d="M371,114l14.43,14.43-19.24,19.24-14.43-14.43Z"/><path class="cls-10" d="M366.15,147.71l14.43,14.43-19.24,19.24L346.91,167Z"/><path class="cls-11" d="M385.39,128.47l14.43,14.43-19.24,19.24-14.43-14.43Z"/><path class="cls-9" d="M332.48,104.42,342.1,114l-9.62,9.62L322.86,114Z"/><path class="cls-10" d="M265.14,85.18,250.7,70.75,270,51.5l14.43,14.44Z"/><path class="cls-11" d="M284.38,65.94,270,51.5l19.24-19.24,14.43,14.43Z"/><path class="cls-11" d="M250.7,70.75,236.27,56.31l19.24-19.24L270,51.5Z"/><path class="cls-10" d="M270,51.5,255.51,37.07l19.25-19.24,14.43,14.43Z"/><path class="cls-10" d="M236.27,56.31,221.84,41.88l19.24-19.24,14.43,14.43Z"/><path class="cls-11" d="M255.51,37.07,241.08,22.64,260.32,3.4l14.44,14.43Z"/><path class="cls-9" d="M289.19,80.37l-9.62-9.62,9.62-9.62,9.62,9.62Z"/><path class="cls-9" d="M291.59,126.06a3.4,3.4,0,0,1,0-4.81l2.41-2.4a3.4,3.4,0,0,1,4.81,4.81l-2.41,2.4A3.4,3.4,0,0,1,291.59,126.06Z"/><path class="cls-8" d="M306,63.53,339.7,97.2l-24.06,24L282,87.58Z"/><path d="M236.27,181.38,221.84,167a3.4,3.4,0,0,0-4.81,4.81l14.43,14.43a3.4,3.4,0,0,0,4.81-4.81Z"/><path d="M322.86,65.94a3.42,3.42,0,0,0,4.81,0l2.4-2.41a3.4,3.4,0,0,0-4.81-4.81l-2.4,2.41A3.4,3.4,0,0,0,322.86,65.94Z"/><path d="M402.23,140.5,358.94,97.2a3.4,3.4,0,0,0-4.81,0l-12,12-4.81-4.81L363.75,78a3.42,3.42,0,0,0,0-4.81l-2.41-2.4L371,61.13a3.41,3.41,0,0,0,0-4.82l-2.4-2.4,7.21-7.22a3.4,3.4,0,0,0,0-4.81L361.34,27.45a3.4,3.4,0,0,0-4.81,0l-7.21,7.22-2.41-2.41a3.42,3.42,0,0,0-4.81,0l-9.62,9.62-2.41-2.4a3.4,3.4,0,0,0-4.81,0L298.81,65.94,294,61.13l12-12a3.4,3.4,0,0,0,0-4.81L262.73,1a3.4,3.4,0,0,0-4.81,0L219.44,39.48a3.4,3.4,0,0,0,0,4.81l43.29,43.29a3.4,3.4,0,0,0,4.81,0l12-12,4.81,4.81-26.46,26.45a3.4,3.4,0,0,0,0,4.81l7.22,7.22-4.82,4.81-4.81-4.81a30.64,30.64,0,0,0-43.29,0,3.4,3.4,0,0,0,0,4.81l22.08,22.08-8.08,12.12a3.4,3.4,0,0,0,.43,4.28l14.43,14.43a3.4,3.4,0,0,0,4.28.44l12.13-8.09L279.57,191a3.4,3.4,0,0,0,4.81,0,30.65,30.65,0,0,0,0-43.29l-4.81-4.81,4.81-4.81,7.21,7.22a3.42,3.42,0,0,0,4.81,0l26.46-26.46,4.81,4.81-12,12a3.42,3.42,0,0,0,0,4.81l43.3,43.29a3.4,3.4,0,0,0,4.81,0l38.48-38.48A3.4,3.4,0,0,0,402.23,140.5Zm-21.65,16.83L371,147.71l14.43-14.43L395,142.9ZM366.15,142.9l-9.62-9.62L371,118.85l9.62,9.62Zm-9.62-38.48,9.62,9.62-14.43,14.43-9.62-9.62ZM306,68.34,334.88,97.2l-19.24,19.24L286.78,87.58Zm52.92-33.67,9.62,9.62-4.81,4.81-9.62-9.62Zm-14.43,4.81,19.24,19.24-7.22,7.22L337.29,46.69Zm12,36.08L339.7,92.39,310.83,63.53l16.84-16.84ZM284.38,61.13l-9.62-9.63,14.43-14.43,9.62,9.62ZM270,46.69l-9.63-9.62,14.44-14.43,9.62,9.62ZM260.32,8.21,270,17.83,255.51,32.26l-9.62-9.62ZM241.08,27.45l9.62,9.62L236.27,51.5l-9.62-9.62Zm14.43,14.43,9.63,9.62L250.7,65.94l-9.62-9.63Zm9.63,38.49-9.63-9.62L270,56.31l9.62,9.63Zm19.24-9.62,4.81-4.81L294,70.75l-4.81,4.81Zm-40.46,99L233.43,159.3l5.78-8.66L252.58,164Zm37.88,13.83-62.19-62.2a23.84,23.84,0,0,1,31.09,2.24l28.87,28.86A23.86,23.86,0,0,1,281.8,183.62Zm-7-45.53-9.62-9.62,4.81-4.81,9.62,9.62Zm-9.62-28.86L282,92.39l28.86,28.86L294,138.09ZM327.67,114l4.81-4.81,4.81,4.81-4.81,4.81Zm9.62,9.62,9.62,9.62-14.43,14.43-9.62-9.62Zm14.43,14.43,9.62,9.62-14.43,14.43-9.62-9.62Zm9.62,38.48L351.72,167l14.43-14.43,9.62,9.62Z"/><path d="M298.81,118.85a3.4,3.4,0,0,0-4.81,0l-2.41,2.4a3.4,3.4,0,0,0,4.81,4.81l2.41-2.4A3.4,3.4,0,0,0,298.81,118.85Z"/></g></g></svg>