<svg xmlns="http://www.w3.org/2000/svg" viewBox="0 0 526 525.99"><defs><style>.cls-1{fill:#de4c36;stroke:#000;stroke-miterlimit:10;stroke-width:14px;}</style></defs><g id="Layer_2" data-name="Layer 2"><g id="Layer_1-2" data-name="Layer 1"><path class="cls-1" d="M509.35,240.19,285.8,16.66a33,33,0,0,0-46.63,0L192.75,63.08,251.64,122a39.16,39.16,0,0,1,49.59,49.92L358,228.63a39.19,39.19,0,1,1-23.5,22.12l-52.93-52.92V337.1a39.87,39.87,0,0,1,10.37,7.42A39.18,39.18,0,1,1,249.28,336V195.39a38.7,38.7,0,0,1-12.84-8.56A39.22,39.22,0,0,1,228,143.94L169.94,85.88,16.66,239.15a33,33,0,0,0,0,46.65L240.21,509.33a33,33,0,0,0,46.63,0l222.5-222.49a33,33,0,0,0,0-46.65"/></g></g></svg>