<?xml version="1.0" encoding="utf-8"?>
<!-- Generator: Adobe Illustrator 24.2.1, SVG Export Plug-In . SVG Version: 6.00 Build 0)  -->
<svg version="1.1" id="Layer_1" xmlns="http://www.w3.org/2000/svg" xmlns:xlink="http://www.w3.org/1999/xlink" x="0px" y="0px"
	 viewBox="0 0 437 526" style="enable-background:new 0 0 437 526;" xml:space="preserve">
<style type="text/css">
	.st0{fill:#4E4E4E;}
	.st1{fill:#767677;}
	.st2{fill:#F37726;stroke:#000000;stroke-width:14;stroke-linecap:round;stroke-linejoin:round;}
	.st3{fill:#9E9E9E;}
	.st4{fill:#616262;}
</style>
<g id="Layer_1-2">
	<path class="st0" d="M17.9,274.7c0,16-1.3,21.1-4.6,25c-3.7,3.3-8.4,5.1-13.3,5.1l1.3,9.1c7.6,0.1,15-2.6,20.8-7.6
		c3.1-3.8,5.4-8.2,6.8-12.9c1.4-4.7,1.8-9.6,1.2-14.5v-60.4H17.9V274.7z"/>
	<path class="st0" d="M109,267.5c0,6.8,0,13,0.6,18.2H98.7l-0.7-10.8c-4.6,7.8-13.1,12.5-22.2,12.4c-10.6,0-23.2-5.7-23.2-29.2
		v-38.9h12.2v36.5c0,12.7,3.9,21.1,15,21.1c9.4,0.1,17.1-7.4,17.2-16.8c0-0.1,0-0.3,0-0.4v-40.8h12.2v48.4L109,267.5z"/>
	<path class="st0" d="M132.1,240.9c0-8.5,0-15.4-0.6-21.7h10.9l0.6,11.4c5-8.4,14.1-13.4,23.9-12.9c16.2,0,28.4,13.6,28.4,33.8
		c0,23.9-14.7,35.7-30.5,35.7c-8.3,0.4-16.1-3.6-20.7-10.5v36.5h-12L132.1,240.9L132.1,240.9z M144.1,258.7c0,1.7,0.2,3.3,0.6,4.9
		c2.1,8.3,9.6,14.2,18.2,14.1c12.9,0,20.4-10.5,20.4-25.7c0-13.3-7.1-24.7-20-24.7c-10.5,0.9-18.8,9.4-19.2,20L144.1,258.7z"/>
	<path class="st0" d="M217.1,219.1l14.7,39.3c1.6,4.4,3.2,9.7,4.3,13.6c1.3-4,2.6-9.1,4.3-13.9l13.3-39h12.8l-18.2,47.4
		c-9.1,22.8-14.7,34.5-23.1,41.7c-4.2,3.8-9.4,6.5-14.9,7.8l-3-10.2c3.9-1.3,7.5-3.3,10.7-5.9c4.4-3.6,8-8.2,10.3-13.5
		c0.5-0.9,0.8-1.9,1-2.9c-0.1-1.1-0.4-2.2-0.8-3.2L203.6,219H217L217.1,219.1z"/>
	<path class="st0" d="M299,200v19.1h17.5v9.1H299v35.9c0,8.2,2.4,12.9,9.1,12.9c2.4,0,4.8-0.2,7.1-0.8l0.5,9.1
		c-3.5,1.2-7.2,1.8-10.9,1.6c-4.9,0.3-9.8-1.6-13.2-5.1c-3.7-5-5.4-11.2-4.7-17.3v-36.5h-10.4v-9.1h10.6v-16.2L299,200z"/>
	<path class="st0" d="M339,254.6c-0.9,11.8,7.9,22.1,19.7,23.1c1.1,0.1,2.3,0.1,3.4,0c6.3,0.1,12.5-1,18.2-3.5l2.1,9.1
		c-7.1,2.9-14.7,4.3-22.4,4.1c-17.1,1.2-31.9-11.7-33-28.8c-0.1-1.6-0.1-3.2,0-4.7c0-20.1,11.9-35.9,31.5-35.9
		c21.9,0,27.4,19.1,27.4,31.4c0.1,1.9,0.1,3.8,0,5.6h-47.1L339,254.6z M374.7,245.5c1.4-9.4-5.2-18.2-14.6-19.5
		c-0.8-0.1-1.6-0.2-2.4-0.2c-10.4,0.8-18.5,9.3-18.7,19.7H374.7z"/>
	<path class="st0" d="M404.4,239.9c0-7.8,0-14.6-0.5-20.8h10.9v13h0.5c2.4-8.2,9.7-14.1,18.2-14.6c1.2-0.1,2.3-0.1,3.5,0v11.4
		c-1.4-0.2-2.8-0.2-4.2,0c-8.6,0.3-15.6,7-16.3,15.5c-0.3,1.9-0.5,3.8-0.5,5.6v35.5h-12V240L404.4,239.9z"/>
	<path class="st1" d="M399,36c1,17-11.9,31.7-29,32.7c-17,1-31.7-11.9-32.7-29c-1-17,11.9-31.7,29-32.7c0.2,0,0.4,0,0.6,0
		c16.8-0.9,31.3,12,32.2,28.8C399,35.9,399,35.9,399,36z"/>
	<path class="st2" d="M218.8,393c-82,0-154.1-29.4-191.4-72.9c39.1,105.7,156.5,159.7,262.2,120.6c55.9-20.7,100-64.7,120.6-120.6
		C373,363.6,301.2,393,218.8,393z"/>
	<path class="st2" d="M218.8,110.3c82,0,154.1,29.4,191.4,72.9C371.1,77.5,253.7,23.5,148,62.6C92.1,83.2,48,127.3,27.3,183.2
		C64.6,139.6,136.4,110.3,218.8,110.3z"/>
	<path class="st3" d="M105.8,477.6c1.1,21.3-15.2,39.5-36.5,40.6c-21.3,1.1-39.5-15.2-40.6-36.5c-1.1-21.3,15.2-39.5,36.5-40.6
		c10.2-0.5,20.2,3,27.8,9.8C100.7,457.8,105.3,467.4,105.8,477.6L105.8,477.6z"/>
	<path class="st4" d="M36.7,100.4c-12.4,0.3-22.7-9.4-23-21.8s9.4-22.7,21.8-23c12.2-0.3,22.5,9.2,23,21.5
		C58.8,89.4,49.1,99.8,36.7,100.4L36.7,100.4z"/>
</g>
</svg>
