<svg xmlns="http://www.w3.org/2000/svg" viewBox="0 0 437 511.3"><defs><style>.cls-1{fill:#4e4e4e;}.cls-2{fill:#767677;}.cls-3{fill:#f37726;stroke:#000;stroke-linecap:round;stroke-linejoin:round;stroke-width:14px;}.cls-4{fill:#9e9e9e;}.cls-5{fill:#616262;}</style></defs><g id="Layer_2" data-name="Layer 2"><g id="Layer_1-2" data-name="Layer 1"><g id="Layer_1-2-2" data-name="Layer 1-2"><path class="cls-1" d="M17.9,267.74c0,16-1.3,21.1-4.6,25A19.92,19.92,0,0,1,0,297.84l1.3,9.1a31.24,31.24,0,0,0,20.8-7.6,37.21,37.21,0,0,0,6.8-12.9,35.49,35.49,0,0,0,1.2-14.5v-60.4H17.9Z"/><path class="cls-1" d="M109,260.54a168.83,168.83,0,0,0,.6,18.2H98.7l-.7-10.8a25.41,25.41,0,0,1-22.2,12.4c-10.6,0-23.2-5.7-23.2-29.2v-38.9H64.8v36.5c0,12.7,3.9,21.1,15,21.1A17,17,0,0,0,97,253v-41.2h12.2v48.4Z"/><path class="cls-1" d="M132.1,233.94c0-8.5,0-15.4-.6-21.7h10.9l.6,11.4a26.21,26.21,0,0,1,23.9-12.9c16.2,0,28.4,13.6,28.4,33.8,0,23.9-14.7,35.7-30.5,35.7a23.48,23.48,0,0,1-20.7-10.5v36.5h-12v-72.3Zm12,17.8a19.93,19.93,0,0,0,.6,4.9,18.63,18.63,0,0,0,18.2,14.1c12.9,0,20.4-10.5,20.4-25.7,0-13.3-7.1-24.7-20-24.7a20.92,20.92,0,0,0-19.2,20Z"/><path class="cls-1" d="M217.1,212.14l14.7,39.3c1.6,4.4,3.2,9.7,4.3,13.6,1.3-4,2.6-9.1,4.3-13.9l13.3-39h12.8l-18.2,47.4c-9.1,22.8-14.7,34.5-23.1,41.7a34,34,0,0,1-14.9,7.8l-3-10.2a34,34,0,0,0,10.7-5.9,36.09,36.09,0,0,0,10.3-13.5,10,10,0,0,0,1-2.9,11.56,11.56,0,0,0-.8-3.2L203.6,212H217Z"/><path class="cls-1" d="M299,193v19.1h17.5v9.1H299v35.9c0,8.2,2.4,12.9,9.1,12.9a28.13,28.13,0,0,0,7.1-.8l.5,9.1a28.87,28.87,0,0,1-10.9,1.6,17.11,17.11,0,0,1-13.2-5.1,24.47,24.47,0,0,1-4.7-17.3V221H276.5v-9.1h10.6v-16.2Z"/><path class="cls-1" d="M339,247.64a21.55,21.55,0,0,0,19.7,23.1,19.3,19.3,0,0,0,3.4,0,43.44,43.44,0,0,0,18.2-3.5l2.1,9.1a55.34,55.34,0,0,1-22.4,4.1,30.86,30.86,0,0,1-33-28.8,36.84,36.84,0,0,1,0-4.7c0-20.1,11.9-35.9,31.5-35.9,21.9,0,27.4,19.1,27.4,31.4a52.29,52.29,0,0,1,0,5.6H338.8Zm35.7-9.1A17.18,17.18,0,0,0,360.1,219a19.42,19.42,0,0,0-2.4-.2,20.18,20.18,0,0,0-18.7,19.7Z"/><path class="cls-1" d="M404.4,232.94c0-7.8,0-14.6-.5-20.8h10.9v13h.5a20.9,20.9,0,0,1,21.7-14.6v11.4a14.78,14.78,0,0,0-4.2,0,17,17,0,0,0-16.3,15.5,36.39,36.39,0,0,0-.5,5.6v35.5H404V233Z"/><path class="cls-2" d="M399,29A30.91,30.91,0,1,1,366.3,0h.6a30.61,30.61,0,0,1,32.2,28.8C399,28.94,399,28.94,399,29Z"/><path class="cls-3" d="M218.8,386c-82,0-154.1-29.4-191.4-72.9,39.1,105.7,156.5,159.7,262.2,120.6a203.85,203.85,0,0,0,120.6-120.6C373,356.64,301.2,386,218.8,386Z"/><path class="cls-3" d="M218.8,103.34c82,0,154.1,29.4,191.4,72.9C371.1,70.54,253.7,16.54,148,55.64A204,204,0,0,0,27.3,176.24C64.6,132.64,136.4,103.34,218.8,103.34Z"/><path class="cls-4" d="M105.8,470.64A38.63,38.63,0,1,1,93,443.94a38.59,38.59,0,0,1,12.8,26.7Z"/><path class="cls-5" d="M36.7,93.44a22.41,22.41,0,1,1,21.8-23.3,22.89,22.89,0,0,1-21.8,23.3Z"/></g></g></g></svg>