<svg xmlns="http://www.w3.org/2000/svg" viewBox="0 0 437.01 526"><defs><style>.cls-1{fill:#4e4e4e;}.cls-2{fill:#767677;}.cls-2,.cls-3,.cls-4,.cls-5{stroke:#000;stroke-linecap:round;stroke-linejoin:round;stroke-width:14px;}.cls-3{fill:#f37726;}.cls-4{fill:#9e9e9e;}.cls-5{fill:#616262;}</style></defs><g id="Layer_2" data-name="Layer 2"><g id="Layer_1-2" data-name="Layer 1"><path class="cls-1" d="M17.87,274.7c0,16-1.28,21.15-4.56,25A19.87,19.87,0,0,1,0,304.79l1.28,9.11a31.17,31.17,0,0,0,20.78-7.57,36.14,36.14,0,0,0,6.79-12.85A36.4,36.4,0,0,0,30.08,279V218.64H17.87V274.7Z"/><path class="cls-1" d="M109,267.51c0,6.84,0,12.95.55,18.23H98.66l-.73-10.84a25.23,25.23,0,0,1-22.15,12.39c-10.57,0-23.15-5.74-23.15-29.17V219.2H64.84v36.46c0,12.67,3.92,21.15,15,21.15A17,17,0,0,0,97,259.58V218.74h12.22v48.41Z"/><path class="cls-1" d="M132.12,240.89c0-8.48,0-15.41-.55-21.7h10.94l.55,11.39a26.44,26.44,0,0,1,23.88-12.94c16.23,0,28.44,13.58,28.44,33.82,0,23.88-14.68,35.73-30.54,35.73a23.59,23.59,0,0,1-20.69-10.48v36.46h-12V240.89Zm12,17.77a27.06,27.06,0,0,0,.55,4.92,18.76,18.76,0,0,0,18.23,14.13c12.85,0,20.42-10.48,20.42-25.7,0-13.31-7.11-24.71-20-24.71a21,21,0,0,0-19.23,20Z"/><path class="cls-1" d="M217.14,219.13l14.68,39.29c1.55,4.37,3.19,9.66,4.29,13.58,1.27-4,2.64-9.12,4.28-13.86l13.31-39h12.85l-18.23,47.4c-9.11,22.79-14.68,34.55-23.06,41.66A33.22,33.22,0,0,1,210.31,316l-3-10.21A32.27,32.27,0,0,0,218,299.89a36.51,36.51,0,0,0,10.3-13.49,9.3,9.3,0,0,0,1-2.91,10.64,10.64,0,0,0-.82-3.19L203.65,219H217Z"/><path class="cls-1" d="M299,200v19.14h17.5v9.11H299v35.92c0,8.2,2.37,12.94,9.12,12.94a27.1,27.1,0,0,0,7.11-.82l.54,9.12a30.06,30.06,0,0,1-10.85,1.64,16.92,16.92,0,0,1-13.21-5.1A24.48,24.48,0,0,1,287,264.64V228.17H276.56v-9.11h10.57V202.83Z"/><path class="cls-1" d="M339,254.57a21.43,21.43,0,0,0,23.07,23.06,44.55,44.55,0,0,0,18.23-3.46l2.09,9.11A54.58,54.58,0,0,1,360,287.39a31,31,0,0,1-33-33.55c0-20.05,11.94-35.92,31.45-35.92,21.88,0,27.35,19.15,27.35,31.36a48.41,48.41,0,0,1,0,5.65H338.71Zm35.74-9.12a17.24,17.24,0,0,0-17-19.69,20.16,20.16,0,0,0-18.69,19.69Z"/><path class="cls-1" d="M404.37,239.86c0-7.84,0-14.59-.54-20.79h10.93v13h.55a20.18,20.18,0,0,1,18.23-14.59,13.44,13.44,0,0,1,3.47,0v11.4a18.44,18.44,0,0,0-4.2,0,17,17,0,0,0-16.31,15.5,33.38,33.38,0,0,0-.55,5.65v35.46h-12V240Z"/><path class="cls-2" d="M399,36a30.91,30.91,0,1,1-32.18-29A30.55,30.55,0,0,1,399,36Z"/><path class="cls-3" d="M218.77,393c-82,0-154.15-29.44-191.43-72.92a204.1,204.1,0,0,0,382.86,0C373,363.59,301.17,393,218.77,393Z"/><path class="cls-3" d="M218.77,110.28c82,0,154.15,29.45,191.43,72.93a204.1,204.1,0,0,0-382.86,0C64.62,139.64,136.36,110.28,218.77,110.28Z"/><path class="cls-4" d="M105.83,477.65A38.59,38.59,0,1,1,93.1,451a38.61,38.61,0,0,1,12.73,26.63Z"/><path class="cls-5" d="M36.66,100.37A22.42,22.42,0,1,1,58.45,77a22.7,22.7,0,0,1-21.79,23.33Z"/></g></g></svg>