<svg xmlns="http://www.w3.org/2000/svg" viewBox="0 0 539.12 540"><defs><style>.cls-1{fill:#398547;}.cls-2{fill:#357640;}.cls-3{fill:#fff;}</style></defs><g id="Layer_2" data-name="Layer 2"><g id="Layer_1-2" data-name="Layer 1"><path d="M340.26,540c-95.3,0-180.12,0-259.31-.07-23.84,0-44.13-7.72-58.68-22.3S0,482.74,0,458.87C0,334.33,0,206.65.06,79.36.08,33.57,32.94.27,78.18.18,139.54.06,201.67,0,262.85,0c66,0,132.82.07,198.61.21C506.35.31,539,33.41,539,78.93c.06,44.82.05,90.39,0,134.46q0,21.45,0,42.91l.05,13.79v56.46q0,66.87,0,133.75c0,22.54-7.91,42.89-22.28,57.3S482.08,540,459.52,540Z"/><path class="cls-1" d="M525.11,270.09h-.05q0-95.58,0-191.15c0-37.42-26.32-64.65-63.6-64.73q-191.61-.41-383.22,0c-37.84.08-64.13,27.24-64.15,65.19Q14,269.12,14,458.86c0,40.94,26.08,67,66.92,67.07q189.28.12,378.57.06c38.93,0,65.62-26.84,65.6-65.69Q525.08,365.2,525.11,270.09Z"/><path class="cls-2" d="M525.11,270.09q0,95.12,0,190.21c0,38.85-26.67,65.68-65.6,65.69Q270.24,526,81,525.93c-40.84,0-66.9-26.13-66.92-67.07q-.07-189.75,0-379.49c0-37.95,26.31-65.11,64.15-65.19q191.61-.37,383.22,0c37.28.08,63.55,27.31,63.6,64.73q.13,95.58,0,191.15ZM456.53,50.37H72c66.64,143.76,133.16,285.36,201.16,426.25h4.62ZM413.31,329v-.4c-10.24,0-20.49,0-30.73,0-10.52,0-13.46,2.63-13.58,13-.22,18.32-.07,36.63-.18,54.95,0,7.33,3.68,10.9,10.75,11,9.61.13,19.36-1,28.79.36,5.9.81,13,3.71,16.58,8.1,7,8.62-1.09,22.29-13.67,25.87s-23.74-.15-34.82-5.2c-4.33-2-8.47-3.1-11.24,2-5.19,9.53.63,24.48,11.17,27,13.65,3.23,27.09,5.45,41.75,2.56,17.69-3.49,32.38-8.8,40.13-26.41,7.55-17.16,6.41-38-8.77-50.47-11.8-9.67-24.84-13.46-39.51-12.87-7,.28-10.24-1.84-10-9.41.17-6.21,1.93-8.88,8.57-8.86,12,.05,24.22.19,36.1-1.43,8.89-1.22,13.6-21.3,7.07-27.62a9.2,9.2,0,0,0-5.8-2C435,328.86,424.17,329,413.31,329Z"/><path class="cls-3" d="M456.53,50.37,277.81,476.62h-4.62C205.19,335.73,138.67,194.13,72,50.37Zm-98.2,203.48a29.91,29.91,0,0,0,1-4.68q.22-67.12.42-134.25c0-5.29-2.5-7.13-7.45-7-8.08.14-16.16,0-24.24.07-13.4,0-13.38,0-13.37,13.08,0,28.9-.13,57.8.09,86.7.07,8.07-2.79,13.8-11,14.51-11.93,1-24.11,2.29-35.91,1-12-1.32-14.13-5.41-14.16-17.77-.07-29.21-.3-58.43.09-87.63.11-7.91-2.61-10.49-10.19-10.06-8.37.48-16.79.43-25.17.08-6.63-.27-9.51,2-9.49,9q.27,91.83.09,183.67c0,5.61,2.24,7.83,7.75,7.73,9.63-.18,19.27-.24,28.9,0,6.14.18,8.16-2.47,8-8.37-.27-10.24,0-20.5,0-30.76,0-7.25,0-14.51,0-25.47,22.87,18.67,42.88,17.87,60.29.52,5.34,3.72,9.33,8.64,13.9,9.26C337.62,254.76,347.66,253.85,358.33,253.85Z"/><path class="cls-3" d="M413.31,329c10.86,0,21.72-.11,32.57.09a9.2,9.2,0,0,1,5.8,2c6.53,6.32,1.82,26.4-7.07,27.62-11.88,1.62-24.06,1.48-36.1,1.43-6.64,0-8.4,2.65-8.57,8.86-.2,7.57,3,9.69,10,9.41,14.67-.59,27.71,3.2,39.51,12.87,15.18,12.45,16.32,33.31,8.77,50.47-7.75,17.61-22.44,22.92-40.13,26.41-14.66,2.89-28.1.67-41.75-2.56-10.54-2.51-16.36-17.46-11.17-27,2.77-5.07,6.91-3.95,11.24-2,11.08,5.05,22.27,8.78,34.82,5.2S432,424.6,424.94,416c-3.58-4.39-10.68-7.29-16.58-8.1-9.43-1.32-19.18-.23-28.79-.36-7.07-.11-10.79-3.68-10.75-11,.11-18.32,0-36.63.18-54.95.12-10.35,3.06-12.95,13.58-13,10.24,0,20.49,0,30.73,0Z"/><path class="cls-1" d="M358.33,253.85c-10.67,0-20.71.91-30.44-.4-4.57-.62-8.56-5.54-13.9-9.26-17.41,17.35-37.42,18.15-60.29-.52,0,11,0,18.22,0,25.47,0,10.26-.27,20.52,0,30.76.16,5.9-1.86,8.55-8,8.37-9.63-.28-19.27-.22-28.9,0-5.51.1-7.75-2.12-7.75-7.73q.12-91.83-.09-183.67c0-7,2.86-9.26,9.49-9,8.38.35,16.8.4,25.17-.08,7.58-.43,10.3,2.15,10.19,10.06-.39,29.2-.16,58.42-.09,87.63,0,12.36,2.14,16.45,14.16,17.77,11.8,1.3,24,.05,35.91-1,8.18-.71,11-6.44,11-14.51-.22-28.9-.07-57.8-.09-86.7,0-13,0-13,13.37-13.08,8.08,0,16.16.07,24.24-.07,5-.08,7.47,1.76,7.45,7q-.28,67.12-.42,134.25A29.91,29.91,0,0,1,358.33,253.85Z"/></g></g></svg>