<svg xmlns="http://www.w3.org/2000/svg" viewBox="0 0 512 510.86"><defs><style>.cls-1{fill:#424242;}.cls-2{opacity:0.1;}.cls-3{fill:#ffa001;}.cls-4{fill:#ffc108;}.cls-5{fill:#e6e1d7;}</style></defs><g id="Layer_2" data-name="Layer 2"><g id="Layer_1-2" data-name="Layer 1"><path class="cls-1" d="M447.25,254.86C447.25,136.72,420,7.5,256,7.5S64.75,136.72,64.75,254.86,7.5,397.67,7.5,503.36H79.1L256,428.73l176.9,74.63h71.6C504.5,397.67,447.25,373,447.25,254.86Z"/><g class="cls-2"><path d="M271,7.88q-7.31-.37-15-.38C92.05,7.5,64.75,136.72,64.75,254.86S7.5,397.68,7.5,503.37h30c0-105.69,57.25-130.36,57.25-248.5C94.75,140.42,120.37,15.58,271,7.88Z"/></g><path class="cls-3" d="M171.55,222.4s4.17,32.46,84.45,32.46,84.45-32.46,84.45-32.46V208.31l-79-22-89.86,21.14v15Z"/><path class="cls-4" d="M374.33,193.34H351c-69.58,0-45.79-58.13-95-58.13s-25.42,58.13-95,58.13H137.67a14.53,14.53,0,1,0,0,29.06h33.88c31.2,0,61.29-18.63,84.45,2.27h0c23.16-20.89,53.25-2.27,84.45-2.27h33.89a14.53,14.53,0,1,0,0-29.06Z"/><circle class="cls-5" cx="157.92" cy="135.65" r="34.79" transform="translate(9.7 281.85) rotate(-85.27)"/><circle class="cls-5" cx="354.08" cy="135.65" r="34.79"/><path class="cls-5" d="M432.9,503.36s13.22-111-35.23-164.7S322.18,327.34,256,327.34s-93.23-42.4-141.67,11.32S79.1,503.36,79.1,503.36Z"/><path d="M448,279.14a7.49,7.49,0,0,0-6.73,8.19c4.27,43.6,16.78,73.39,28.87,102.2,13.1,31.22,25.51,60.79,26.74,106.33H441.12a371.19,371.19,0,0,0-.19-55.3c-3.79-47.41-16.47-83.38-37.69-106.92C384.73,313.11,367.52,304,347.44,304c-12.06,0-24.05,3.3-36.75,6.8-15.48,4.26-33,9.09-54.69,9.09s-39.21-4.83-54.69-9.09c-12.7-3.5-24.7-6.8-36.75-6.8-20.08,0-37.29,9.16-55.81,29.69-21.22,23.54-33.9,59.51-37.68,106.92a369.81,369.81,0,0,0-.19,55.3H15.1c1.23-45.54,13.64-75.11,26.75-106.32,14.94-35.62,30.4-72.45,30.4-134.68,0-72.09,10.84-125.8,33.13-164.22,13.78-23.74,32.33-42.08,55.16-54.52C186.26,22.11,218.37,15,256,15s69.74,7.11,95.46,21.12c22.82,12.44,41.38,30.78,55.16,54.52,22.29,38.42,33.13,92.13,33.13,164.23,0,.35,0,.7,0,1.06v.7a7.51,7.51,0,0,0,7.5,7.47h0a7.49,7.49,0,0,0,7.46-7.53v-1.7c0-74.81-11.5-131-35.16-171.76C387.58,28,332.55,0,256,0S124.41,28,92.41,83.11c-23.66,40.77-35.16,97-35.16,171.75,0,59.21-14.86,94.63-29.24,128.87C14.24,416.55,0,450.48,0,503.36a7.5,7.5,0,0,0,7.5,7.5h497a7.5,7.5,0,0,0,7.5-7.5c0-52.88-14.24-86.81-28-119.63-11.66-27.79-23.72-56.52-27.77-97.86A7.49,7.49,0,0,0,448,279.14ZM119.9,343.69c11-12.23,25-24.74,44.66-24.74,10,0,20.56,2.9,32.77,6.26,16.39,4.52,35,9.63,58.67,9.63s42.28-5.11,58.68-9.63c12.2-3.36,22.73-6.26,32.76-6.26,19.7,0,33.64,12.5,44.66,24.74,39,43.24,35.77,127.94,33.95,152.17H85.94C84.11,471.64,80.86,387,119.9,343.69Z"/><path d="M157.92,177.94a42.29,42.29,0,1,0-42.29-42.29A42.34,42.34,0,0,0,157.92,177.94Zm0-69.58a27.29,27.29,0,1,1-27.29,27.29A27.32,27.32,0,0,1,157.92,108.36Z"/><circle cx="157.92" cy="135.65" r="16.29"/><path d="M354.08,93.36a42.29,42.29,0,1,0,42.29,42.29A42.34,42.34,0,0,0,354.08,93.36Zm0,69.58a27.29,27.29,0,1,1,27.29-27.29A27.32,27.32,0,0,1,354.08,162.94Z"/><circle cx="354.08" cy="135.65" r="16.29"/><path d="M137.67,229.9h28.62c2,4.09,5.79,9.54,13,14.78,16,11.74,41.84,17.68,76.76,17.68s60.74-5.94,76.76-17.68c7.16-5.24,10.95-10.69,12.94-14.78h28.63a22,22,0,1,0,0-44.06H351c-33.54,0-42-14.17-51-29.17-8.1-13.58-17.29-29-44-29s-35.92,15.39-44,29c-9,15-17.42,29.17-51,29.17H137.66a22,22,0,1,0,0,44.06ZM256,247.36c-45.41,0-64.22-10.57-71.9-18.27l.74-.1c6.23-.79,12.41-2,18.56-3.24,15.82-3.16,34.3-7.49,47.58,4.49a7.48,7.48,0,0,0,10,0c13.25-12,31.85-7.63,47.58-4.49,6.16,1.23,12.33,2.45,18.57,3.24l.73.1C320.22,236.79,301.41,247.36,256,247.36ZM137.67,200.84H161c42.05,0,54.13-20.23,63.84-36.48,7.51-12.57,12.94-21.65,31.15-21.65s23.64,9.08,31.15,21.65c9.71,16.25,21.79,36.48,63.84,36.48h23.34a7,7,0,1,1,0,14.06H340.44c-19.32,0-37.74-7.64-57.06-7.64-9.52,0-19.34,2.39-27.38,7.88-7.77-5.3-16.78-7.88-27.38-7.88-19.33,0-37.74,7.64-57.07,7.64H137.66a7,7,0,1,1,0-14.06Z"/></g></g></svg>