<svg xmlns="http://www.w3.org/2000/svg" viewBox="0 0 663.8 542.44"><defs><style>.cls-1{fill:#92277c;}.cls-2{fill:#f58e38;}.cls-3{fill:#a4cd48;}.cls-4{fill:#57575a;}.cls-5{fill:#fefdfd;}.cls-6{fill:#616061;}</style></defs><g id="Layer_2" data-name="Layer 2"><g id="Layer_1-2" data-name="Layer 1"><path d="M189.28,361.87l-2.11-11.24-.09-.32a19.46,19.46,0,0,1-.66-9.46c2.59-13.06-2.46-21-20.8-32.72-25.51-16.3-54.15-24.56-85.11-24.56a191.55,191.55,0,0,0-26.8,1.94A117.76,117.76,0,0,1,37.3,287C19.83,287,7.62,278.62,1,262.06l-1-2.5v-19.7l12.48-1.37c6.62-.72,13.22-1.87,20.2-3.08s14.14-2.46,21.48-3.29V210.73c0-35.69,0-72.6-.28-108.88C53.78,87.08,62.44,80.44,69,76.73,107.87,54.58,147,32,183.4,10.81a33.57,33.57,0,0,1,3.14-1.6l3.55-3a2.63,2.63,0,0,0,.75-1,1.17,1.17,0,0,1,0-.11,8.74,8.74,0,0,1,12.79-3.65l1.56,1,3.46,2.23c20.83,13.42,42.9,25.93,64.25,38,12.53,7.1,25.48,14.44,38.14,21.93,6.4,3.79,13,7.56,19.47,11.2L332.7,77q11.9-6.82,23.82-13.63C386.87,46,418.25,28.09,448.87,10.1c5.48-3.22,10.69-4.79,15.93-4.79,7,0,12.67,2.84,16.31,5,37.28,21.87,76.08,44.23,115.34,66.47,10.29,5.82,15.06,14.2,15,26.36-.14,35.86-.07,72.34,0,107.62q0,10.8,0,21.61a286.87,286.87,0,0,1,35.22,5.79c3.5.79,11.7,2.65,15.45,10.5s0,15.64-1.42,18.55c-3,6.2-10.17,20.72-29.29,20.72h0a48.57,48.57,0,0,1-9.59-1,175.56,175.56,0,0,0-34.49-3.49A172.39,172.39,0,0,0,523,296l-.79.32a82.91,82.91,0,0,0-8,3.51c-27.65,14.68-38.7,24.32-35.56,46l2.32,16Z"/><path d="M643.62,251.78a265.65,265.65,0,0,0-46.1-6.43c-.06-47.43-.25-94.87-.06-142.29,0-6.71-1.85-10.7-7.91-14.13Q531.55,56.06,474,22.36c-6.52-3.83-11.21-4.22-18.06-.19-40.87,24-82.12,47.39-123.24,71C323.13,87.67,313.47,82.3,304,76.67,269.77,56.43,234.54,38,201.12,16.44h-2.23c-1.35,4.06-5.44,4.72-8.46,6.48Q133.26,56.1,75.88,88.9c-5.4,3.07-8,6.24-8,12.86.33,47.8.25,95.61.29,143.42,28,0,55.22,3.37,81.35,12.59-26.13-9.22-53.38-12.6-81.35-12.59-18.33.34-36.06,5.25-54.17,7.23v4.45c7.38,18.45,20.65,17.21,37.75,14.79,42.9-6.09,84.16.89,121.41,24.68,17.15,11,31.67,23.66,27,47.24-.27,1.33.47,2.86.74,4.3l263.89,0c-4.88-33.71,18.47-47.44,42.85-60.39a101.93,101.93,0,0,1,10.15-4.45,184.64,184.64,0,0,1,106.83-9.92c13.34,2.69,18.46-1.72,23.56-12.12C651.33,254.58,650,253.22,643.62,251.78ZM458.22,291h0c10.92-8.49,22-16.64,34.27-23.12C480.22,274.32,469.14,282.47,458.22,291Z"/><path d="M328.77,542.44l-3.27-1.9-28.14-16.36c-28.79-16.73-58.53-34-87.75-51.24-12.94,10.39-28.29,19.32-46.85,27.27a31.34,31.34,0,0,1-12.23,2.92h0c-8.7,0-15.56-4.77-20.4-14.18l-.73-1.42c-4.44-8.62-8-15.44-5-23.62s9.94-11.11,19.54-15.09l.11-.05c17.2-7.15,31.18-16.59,42.59-28.8l.29-19.55a87.61,87.61,0,0,1-.2-25.77,16.6,16.6,0,0,1,0-2.73,118.73,118.73,0,0,1,.16-25.45l1.26-12.6,288.88,0,1.56,12.22a103,103,0,0,1,.11,28,96.7,96.7,0,0,1,.05,25.27,99.4,99.4,0,0,1,.54,21c12.44,13.57,28,23.51,47.43,30.29,4,1.4,12.41,4.33,15.48,13s-1.75,16.54-3.57,19.45l-.82,1.31c-6.09,9.77-11.36,18.21-23.25,18.21-5.78,0-10.95-2.23-18.77-5.59a172.83,172.83,0,0,1-39.95-24.14c-23.63,13.77-47.64,27.62-70.9,41q-19.29,11.13-38.57,22.26c-.24.33-.51.69-.81,1.06l-4.2,5.17Z"/><path d="M201,372.62a1.58,1.58,0,0,0,0,1.72,73.3,73.3,0,0,0,0,25q-.18,13-.37,26c-14,16.37-31.34,28.07-51.15,36.3-15,6.24-14.51,6-6.88,20.85,3.85,7.48,7.54,7.83,14.67,4.78,16.13-6.9,31.33-15.21,44.86-26.34,3.75-3.08,6.42-4.93,11.52-1.93,39.53,23.32,79.25,46.3,118.92,69.38h2.22c.88-1.08,1.55-2.54,2.68-3.19,38.18-22.09,76.45-44,114.55-66.24,4.51-2.62,7.17-1.55,10.7,1.38a158.44,158.44,0,0,0,38.7,23.82c16.37,7,15.9,6.77,25.44-8.49,4.63-7.4,2.43-9.38-4.65-11.85-22.46-7.84-42-20.28-57.28-38.81.89-8.53,1.2-17.06-.22-25.57a82.52,82.52,0,0,0-.07-25.44,87.56,87.56,0,0,0,.17-26.16l-263.89,0A102.47,102.47,0,0,0,201,372.62Z"/><path class="cls-1" d="M201.12,16.44C234.54,38,269.77,56.43,304,76.67c9.51,5.63,19.17,11,28.76,16.48l0,130.36c-9.56,1-19.26,1.26-28.65,3.15-5.75,1.16-7.9-.9-10.28-5.29-5.47-10.07-11.32-19.93-17.1-29.83-1.8-3.09-3-6.69-7.88-6.63-15.72.16-31.45.06-49,.06,5.86,8.92,6.4,20.54,19.55,17.81,18.27-3.78,29.31,4,35.25,20.79a3.18,3.18,0,0,0,.52,1c4.86,6,3.24,8.53-3.95,11.27-27.87,10.64-50.18,28.12-63.93,55.27-12.58-9.73-25.29-19.12-39.84-26-31.51-14.83-64.83-20-99.26-19.94,0-47.81,0-95.62-.29-143.42,0-6.62,2.6-9.79,8-12.86q57.45-32.7,114.55-66c3-1.76,7.11-2.42,8.46-6.48Z"/><path class="cls-2" d="M332.55,528.44c-39.67-23.08-79.39-46.06-118.92-69.38-5.1-3-7.77-1.15-11.52,1.93-13.53,11.13-28.73,19.44-44.86,26.34-7.13,3.05-10.82,2.7-14.67-4.78-7.63-14.87-8.13-14.61,6.88-20.85,19.81-8.23,37.14-19.93,51.15-36.3q126.63.15,253.27.28c3.67,0,7.35-.4,11-.62,15.3,18.53,34.82,31,57.28,38.81,7.08,2.47,9.28,4.45,4.65,11.85-9.54,15.26-9.07,15.53-25.44,8.49a158.44,158.44,0,0,1-38.7-23.82c-3.53-2.93-6.19-4-10.7-1.38-38.1,22.22-76.37,44.15-114.55,66.24-1.13.65-1.8,2.11-2.68,3.19Z"/><path class="cls-2" d="M14,252.41c18.11-2,35.84-6.89,54.17-7.23,34.43,0,67.75,5.11,99.26,19.94,14.55,6.85,27.26,16.24,39.84,26-1.75,6-3.58,12-5.23,18.05-2.38,8.68-1.33,13,10,12.83,41.09-.77,82.2-.3,123.31-.3,39.62,0,79.24-.34,118.86.23,9.94.15,11.45-3.75,9.37-11.72-1.67-6.43-3.58-12.81-5.38-19.21,12.48-9.7,25.17-19,39.61-25.79,31.64-14.94,65-20.47,99.69-19.82a264.69,264.69,0,0,1,46.1,6.43c6.34,1.44,7.71,2.8,4.56,9.23-5.1,10.4-10.22,14.81-23.56,12.12a184.64,184.64,0,0,0-106.83,9.92,101.93,101.93,0,0,0-10.15,4.45c-24.38,12.95-47.73,26.68-42.85,60.39l-263.89,0c-.27-1.44-1-3-.74-4.3,4.67-23.58-9.85-36.28-27-47.24-37.25-23.79-78.51-30.77-121.41-24.68-17.1,2.42-30.37,3.66-37.75-14.79Z"/><path class="cls-3" d="M597.52,245.35c-34.67-.65-68,4.88-99.69,19.82C483.39,272,470.7,281.26,458.22,291c-13.78-27.21-36.2-44.59-64.07-55.38-6.62-2.56-6.91-4.62-4.13-11.05,7.06-16.37,17.14-26,36.2-21.59a19.42,19.42,0,0,0,3.33,0c10.33.54,12.89-8.73,13.45-14.7.62-6.56-7.54-3.05-11.52-3.07-12.91-.07-28.25-4.89-38.1,1.69s-14.31,21-20.5,32.31c-3.2,5.88-6.06,8.87-13.64,7.06-8.56-2.05-17.63-1.93-26.49-2.76l0-130.36c41.12-23.59,82.37-47,123.24-71,6.85-4,11.54-3.64,18.06.19q57.51,33.72,115.53,66.57c6.06,3.43,7.94,7.42,7.91,14.13C597.27,150.48,597.46,197.92,597.52,245.35Z"/><path class="cls-4" d="M464.91,425.06c-3.68.22-7.36.63-11,.62q-126.64-.09-253.27-.28.18-13,.37-26l263.71.12C466.11,408,465.8,416.53,464.91,425.06Z"/><path class="cls-2" d="M464.69,399.49,201,399.37a73.3,73.3,0,0,1,0-25q126.79.06,253.59.06a81.11,81.11,0,0,0,8.75-.91,7.4,7.4,0,0,1,1.29.56A82.52,82.52,0,0,1,464.69,399.49Z"/><path class="cls-4" d="M464.62,374.05a6.86,6.86,0,0,0-1.28-.55c-3.28-.3-6.57-.86-9.86-.86q-126.23-.06-252.47,0a102.47,102.47,0,0,1-.11-24.75l263.89,0A87.23,87.23,0,0,1,464.62,374.05Z"/><path class="cls-5" d="M332.75,223.51c8.86.83,17.93.71,26.49,2.76,7.58,1.81,10.44-1.18,13.64-7.06,6.19-11.33,10.78-25.82,20.5-32.31s25.19-1.76,38.1-1.69c4,0,12.14-3.49,11.52,3.07-.56,6-3.12,15.24-13.45,14.7a19.42,19.42,0,0,1-3.33,0c-19.06-4.43-29.14,5.22-36.2,21.59-2.78,6.43-2.49,8.49,4.13,11.05C422,246.37,444.44,263.75,458.22,291c1.8,6.4,3.71,12.78,5.38,19.21,2.08,8,.57,11.87-9.37,11.72-39.62-.57-79.24-.23-118.86-.23-41.11,0-82.22-.47-123.31.3-11.35.21-12.4-4.15-10-12.83,1.65-6,3.48-12,5.23-18.05,13.75-27.14,36.06-44.62,63.93-55.26,7.19-2.74,8.81-5.31,3.95-11.27a3.18,3.18,0,0,1-.52-1c-5.94-16.77-17-24.57-35.25-20.79-13.15,2.73-13.69-8.89-19.55-17.81,17.56,0,33.29.1,49-.06,4.84-.06,6.08,3.54,7.88,6.63,5.78,9.9,11.63,19.76,17.1,29.83,2.38,4.39,4.53,6.45,10.28,5.29C313.49,224.77,323.19,224.48,332.75,223.51ZM299.44,270c-8.33,1-13.12,5.94-12.77,13.91.33,7.4,5.39,12.49,13,12.42,8.05-.06,13.12-4.93,13.08-13.28S307.45,270.71,299.44,270Zm52.84,13c.7,8.35,5.4,13.4,13.45,13.34S379,291,378.81,282.83c-.15-7.55-5-12.44-12.77-12.64C357.63,270,353.32,275,352.28,283.05Z"/><path class="cls-6" d="M201,372.62q126.24,0,252.47,0c3.29,0,6.58.56,9.86.86a84.16,84.16,0,0,1-8.76.9q-126.79,0-253.59-.06A1.58,1.58,0,0,1,201,372.62Z"/><path class="cls-4" d="M299.44,270c8,.69,13.28,4.57,13.31,13.05s-5,13.22-13.08,13.28c-7.61.07-12.67-5-13-12.42C286.32,276,291.11,271.05,299.44,270Z"/><path class="cls-6" d="M352.28,283.05c1-8.1,5.35-13.09,13.76-12.86,7.8.2,12.62,5.09,12.77,12.64.15,8.13-5,13.5-13.08,13.56S353,291.4,352.28,283.05Z"/></g></g></svg>