<svg xmlns="http://www.w3.org/2000/svg" viewBox="0 0 625.12 512"><defs><style>.cls-1{fill:#fff;}.cls-2{fill:#91267c;}.cls-3{fill:#a4ce47;}.cls-4{fill:#f78d35;}.cls-5{fill:#58585a;}.cls-6{fill:#5c5c5e;}.cls-7{fill:#f78c34;}.cls-8{fill:#f78d34;}</style></defs><g id="Layer_2" data-name="Layer 2"><g id="Layer_1-2" data-name="Layer 1"><path d="M433.73,322.77c-12.85,0-22.9-10-23.39-23.19a49.85,49.85,0,0,0-2.2-11.05,32.65,32.65,0,0,1-4.43-6.53,67.75,67.75,0,0,0-14.27-18.26c-7.76-7.22-17.33-13-29.25-17.71-1.86-.73-3.74-1.49-5.58-2.28a29,29,0,0,1-7.44-4.6,29.81,29.81,0,0,1-4.85.38,51.7,51.7,0,0,1-7.81-.71l-2.19-.33a122.38,122.38,0,0,0-15.09-1.66l-1.49,0a29.55,29.55,0,0,1-3.46-.2c-.73.07-1.48.11-2.26.13a150.3,150.3,0,0,0-22.13,2.52,31.34,31.34,0,0,1-5.34.47,29.58,29.58,0,0,1-5.1-.43,32.25,32.25,0,0,1-9.39,5.29c-16.72,6.22-29.67,14.81-39.59,26.26a61.45,61.45,0,0,0-6.57,10l-.12.22a32.57,32.57,0,0,1-5.32,7.87l-.15.37a63.9,63.9,0,0,0-1.69,10,24.12,24.12,0,0,1-16,22A23.73,23.73,0,0,1,171,312.12c-11.14-13.34-26.46-22.58-48.11-29.05a154.77,154.77,0,0,0-44.3-6.45,168.8,168.8,0,0,0-21.7,1.43,156.75,156.75,0,0,0-15.77,3,29.24,29.24,0,0,1-6.69.8c-9.88,0-18.38-5.16-23.31-14.16-.68-1.24-1.35-2.5-2-3.75-1.5-2.83-2.93-5.51-4.34-7.67C-2,246.09-.09,237.07,1.64,232.6S8.05,220.21,20,217.17a220,220,0,0,1,26.53-5.31q0-18.3,0-36.58,0-38.39-.06-76.78a32.08,32.08,0,0,1,16-28.44c6-3.63,12-7.05,17.88-10.37,4.78-2.71,9.3-5.27,13.81-7.94,8.26-4.9,16.66-9.69,24.78-14.33,8.54-4.88,17.37-9.93,25.88-15,4.32-2.57,8.65-5,12.84-7.37,6-3.38,11.66-6.57,17.06-10a31.71,31.71,0,0,1,17-5A32.18,32.18,0,0,1,207.8,4.44Q219.44,11.13,231,17.89t23.48,13.57q8,4.62,16,9.28c8.81,5.12,17.93,10.41,26.89,15.43,1.62.91,3.21,1.87,4.8,2.84,1.19.72,2.37,1.46,3.59,2.13a30.39,30.39,0,0,1,6.51,4.76,44.35,44.35,0,0,1,10.82-7.06c.51-.26,1-.49,1.5-.77C336.73,50.87,349,43.82,360.93,37q7.33-4.2,14.67-8.43,13.88-8,27.7-16.07l13.63-7.92A31.76,31.76,0,0,1,433,.09a32.32,32.32,0,0,1,16.07,4.43C462,11.85,475,19.39,487.57,26.68q13.77,8,27.56,15.92,9.63,5.51,19.23,11.07,13.89,8,27.82,16c10.08,5.73,15.74,15.52,15.51,26.87,0,.51,0,1,0,1.51,0,.75,0,1.5,0,2.25q0,55.77,0,111.53c6.26.84,12.23,1.86,18,3.08,2.62.56,5,1.18,7.32,1.78.91.23,1.81.47,2.72.69a24.64,24.64,0,0,1,15.84,36.84l-.92,1.6c-2.37,4.13-4.75,8.26-7.07,12.42A26,26,0,0,1,590.76,282h0a28.19,28.19,0,0,1-6.52-.78,164.53,164.53,0,0,0-38-4.63A146.65,146.65,0,0,0,526.12,278C497,282,475.8,291,459.39,306.24a66.92,66.92,0,0,0-4.64,5c-.79.91-1.57,1.82-2.38,2.72A24.87,24.87,0,0,1,433.73,322.77Z"/><path d="M600.28,239.34c-3.09-.77-6.16-1.63-9.27-2.29a251.61,251.61,0,0,0-36.36-4.74c.74-1.52.43-3.2.43-4.8q0-63.62,0-127.23c0-1.4-.07-2.81,0-4.21.06-3.12-1.27-5.14-4.06-6.73-15.75-9-31.4-18.09-47.12-27.1-22-12.62-43.9-25.5-66-38-3.5-2-6.32-1.95-9.58-.06-13.79,8-27.56,16-41.37,24C370,57.92,353,67.52,336.27,77.52c-3.75,2.24-8.36,3.45-10.69,7.73-3.95,3.34-8.7,5.34-13.13,7.9L298.06,84.7A5.7,5.7,0,0,0,295,81c-2.92-1.6-5.68-3.45-8.57-5.07-14.48-8.11-28.75-16.57-43.14-24.82-15.61-9-31.12-18.07-46.73-27a8.77,8.77,0,0,0-9.74.07c-9.92,6.3-20.36,11.71-30.45,17.72-16.78,10-33.9,19.39-50.7,29.35C95.19,77.41,84.5,83.14,74.12,89.43c-3.54,2.14-5.05,4.8-5,9,.08,42.82,0,85.63.08,128.44,0,1.77-.13,3.6,1,5.17l.11.11c-5.89.58-11.78,1.14-17.66,1.77a189.54,189.54,0,0,0-27,5.17c-2.78.71-3.91,1.76-1.93,4.76,2.71,4.14,4.91,8.62,7.29,13,1.11,2,2.42,2.79,4.95,2.2a181.9,181.9,0,0,1,18-3.45,179.71,179.71,0,0,1,75.41,5.78c23.3,7,44.1,17.93,59.77,37.16.52.64.87,1.82,2,1.43s.87-1.46.95-2.33a87,87,0,0,1,2.45-14.31c.76-2.9,2.5-5.51,2.8-8.55l.18,0c2.83-.32,3.48-2.79,4.56-4.73a81.6,81.6,0,0,1,9.33-14c13.27-15.31,29.95-25.63,48.8-32.64,4.28-1.59,5.22-3.62,3.12-7.55-3.6-6.75-7.62-13.27-11.28-20-1.72-3.14-4.22-4.45-7.81-4.42-6.9.07-13.8,0-20.69,0-2.29,0-4.39-.38-5.55-2.63s-2.73-4.31-3.77-6.66c-1.42-3.19-1.12-3.89,2.35-3.92,12.14-.09,24.27,0,36.41,0a6.15,6.15,0,0,1,5.85,3.47c6.1,10.62,12.14,21.28,18.23,31.9,1.64,2.86,3.89,3.95,7,3.41a173.9,173.9,0,0,1,25.44-2.85,4.67,4.67,0,0,0,3.46-1.09c1,1.49,2.88,1.1,4.41,1.12,6.91.1,13.72,1.23,20.52,2.24s8.06.79,11.38-5.26c5.29-9.61,11-19,16.22-28.63a7.55,7.55,0,0,1,7.39-4.36c9.33.12,18.65,0,28,0,2.81,0,5.62-.06,8.43,0,2.5.1,3.19,1.34,2.09,3.54-.91,1.82-2.12,3.48-3,5.34-1.46,3.08-3.84,4.44-7.35,4.38-7-.11-14.05-.07-21.08,0a6.76,6.76,0,0,0-6.32,3.53c-4.15,7.18-8.42,14.29-12.25,21.65-1.45,2.78-.64,5,2.21,6.24,1.64.7,3.3,1.37,5,2,13.41,5.29,25.76,12.32,36.37,22.2a90.31,90.31,0,0,1,18.93,24.38c.85,1.63,1.76,3.15,3.87,3.27l.16,0c2.09,7.9,4.85,15.63,5.15,23.95.08,2.21,1.45,1.37,2.48.21,2.8-3.14,5.45-6.46,8.53-9.31,22.29-20.69,49.57-30,79-34.12,22.37-3.12,44.56-1.58,66.5,3.64,2.17.52,3.34-.18,4.34-2,2.66-4.77,5.39-9.51,8.11-14.25C603.1,240.93,602.33,239.85,600.28,239.34Z"/><path d="M312.53,512a30.26,30.26,0,0,1-15.29-4.3q-25.9-15-51.85-30Q223,464.8,200.7,451.86c-12.69,9.54-27.21,17.35-44,23.73a32.57,32.57,0,0,1-12.14,2.66c-14.81,0-21.19-11.5-23.59-15.83-2.22-4-4.42-7.93-6.65-11.83s-7.17-12.61-3-23.37S125,413.34,129,412a110.92,110.92,0,0,0,26.74-13A83.75,83.75,0,0,0,169,388.27a105.47,105.47,0,0,1,.49-15.12,105,105,0,0,1-.11-22.19,52,52,0,0,1-.38-11.18c0-.74.1-1.47.08-2.21s0-1.23-.07-1.84a61.8,61.8,0,0,1,.22-10.43c-.39-5-.29-9.77-.21-14,0-2.09.09-4.18.06-6.28-.2-13.8,10.14-24.68,24.06-25.31,1.6-.07,3.22-.09,4.84-.09H427c5.29,0,14.16,0,21.59,7.59s7.26,16.71,7.16,21.61c0,1.57,0,3.14.05,4.72a94.55,94.55,0,0,1-.33,13,115,115,0,0,1,0,21.58,41.67,41.67,0,0,1,.33,10.13c0,.37-.06.75-.06,1.12,0,.95,0,1.92.08,2.89a65.24,65.24,0,0,1-.31,11.68,107.47,107.47,0,0,1,.4,14.3c8.58,8.64,19.35,15.58,32.68,21.11,1.94.8,4.2,1.58,6.59,2.4l2.64.91C508,416.14,512.2,422.94,514,428c1.46,4.16,3,12.55-2.8,21.94-2.48,4-5,8.38-7.88,13.86-4.72,8.93-13.29,14.27-22.91,14.27h0a28.33,28.33,0,0,1-9.58-1.72c-17.76-6.29-33.09-14.37-46.58-24.58-17.64,10.28-35.44,20.58-52.73,30.58Q349.72,495,327.94,507.63A30.41,30.41,0,0,1,312.53,512Z"/><path d="M490.32,434c-3.48-1.22-7-2.35-10.41-3.76-18.29-7.58-34.39-18.24-47-33.77h0c.28-7.72.9-15.45-.32-23.15,1.18-4.65.47-9.37.48-14,0-3.25.82-6.61-.68-9.77h0c1.4-7.85.92-15.72.25-23.59h0c1-5.83.29-11.7.41-17.55.12-6.08,0-6.09-6.11-6.09H198c-1.28,0-2.56,0-3.83.08-1.48.06-2.45.77-2.43,2.35.11,7.13-.54,14.27.34,21.38-.84,3.64-.43,7.33-.34,11,.1,4.27-.84,8.61.63,12.81h0a82.69,82.69,0,0,0,0,23.46h0c-1.2,7.7-.67,15.41-.26,23.13a103.43,103.43,0,0,1-23.75,21.5,133.23,133.23,0,0,1-32.21,15.61c-4.6,1.5-4.57,1.54-2.12,5.86q3.41,6,6.73,12c2.73,4.93,2.75,5,7.95,3.05,16.94-6.41,32.65-15,46.28-27,2.7-2.38,4.58-2.43,7.64-.64,35.31,20.52,70.75,40.84,106.06,61.36,2.95,1.72,5.07,1.62,7.94-.05,35-20.35,70.07-40.5,105-60.93,4-2.32,6.3-1.75,9.58,1.1C445.05,440.31,461,448.87,478.37,455c2.38.84,3.69.54,4.92-1.78C486,448.07,488.87,443,492,438,493.53,435.47,492.42,434.69,490.32,434Z"/><path d="M281.85,301c-19-.25-33.8-15.49-33.64-34.7a33.86,33.86,0,0,1,34.22-33.83c19.33.11,34.31,15.13,34.31,34.2A34.31,34.31,0,0,1,282.32,301Z"/><path d="M294.09,266.7a11.36,11.36,0,0,0-11.58-11.55,11.13,11.13,0,0,0-11.65,11.38,11.44,11.44,0,0,0,11.29,11.86A11.65,11.65,0,0,0,294.09,266.7Z"/><path d="M341.69,301c-19-.35-33.76-15.69-33.5-34.92a33.92,33.92,0,0,1,34.34-33.57h.55A33.83,33.83,0,0,1,367.29,243a34.35,34.35,0,0,1,9.35,24.35A34,34,0,0,1,342.33,301Z"/><path d="M354,267c.1-6.7-4.69-11.75-11.26-11.85-6.73-.1-11.82,4.7-11.9,11.23A11.58,11.58,0,1,0,354,267Z"/><rect class="cls-1" x="191.71" y="154.07" width="241.48" height="151.33"/><path class="cls-2" d="M298.06,84.7l14.39,8.45a3.62,3.62,0,0,1,1.73,3.22c.13,1.53.15,3.06.15,4.59q0,51.95,0,103.87c0,2.29.2,4.61-.66,6.82-.59,2.18-2.37,2.46-4.22,2.5A173.9,173.9,0,0,0,284,217c-3.09.54-5.34-.55-7-3.41-6.09-10.62-12.13-21.28-18.23-31.9a6.15,6.15,0,0,0-5.85-3.47c-12.14,0-24.27-.06-36.41,0-3.47,0-3.77.73-2.35,3.92,1,2.35,2.6,4.39,3.77,6.66s3.26,2.62,5.55,2.63c6.89,0,13.79.07,20.69,0,3.59,0,6.09,1.28,7.81,4.42,3.66,6.72,7.68,13.24,11.28,20,2.1,3.93,1.16,6-3.12,7.55-18.85,7-35.53,17.33-48.8,32.64a81.6,81.6,0,0,0-9.33,14c-1.08,1.94-1.73,4.41-4.56,4.73-1.57.14-2.61-.84-3.68-1.76-17-14.63-36.56-24.49-57.88-31.17A184.19,184.19,0,0,0,110,235.69c-11.38-1.84-23-2.21-34.57-2.16-1.89,0-3.9.33-5.31-1.47-1.13-1.57-1-3.4-1-5.17,0-42.81,0-85.62-.08-128.44,0-4.22,1.5-6.88,5-9,10.38-6.29,21.07-12,31.51-18.2,16.8-10,33.92-19.35,50.7-29.35,10.09-6,20.53-11.42,30.45-17.72a8.77,8.77,0,0,1,9.74-.07c15.61,9,31.12,18.07,46.73,27,14.39,8.25,28.66,16.71,43.14,24.82C289.28,77.55,292,79.4,295,81A5.7,5.7,0,0,1,298.06,84.7Z"/><path class="cls-3" d="M312.46,212.18q0-59.52,0-119c4.43-2.56,9.18-4.56,13.13-7.9,2.33-4.28,6.94-5.49,10.69-7.73,16.76-10,33.76-19.6,50.66-29.35,13.81-8,27.58-16,41.37-24,3.26-1.89,6.08-1.92,9.58.06,22.09,12.52,44,25.4,66,38,15.72,9,31.37,18.14,47.12,27.1,2.79,1.59,4.12,3.61,4.06,6.73,0,1.4,0,2.81,0,4.21q0,63.61,0,127.23c0,1.76.39,3.6-.66,5.23-4.54,1.81-9.31.73-13.95,1a225.46,225.46,0,0,0-36.65,4.5,174.76,174.76,0,0,0-51.74,19.89,104.18,104.18,0,0,0-19.23,13.76c-1.46,1.37-2.93,2.9-5.19,2.95-2.11-.12-3-1.64-3.87-3.27a90.31,90.31,0,0,0-18.93-24.38c-10.61-9.88-23-16.91-36.37-22.2-1.66-.65-3.32-1.32-5-2-2.86-1.23-3.66-3.46-2.21-6.24,3.83-7.36,8.1-14.47,12.25-21.65a6.77,6.77,0,0,1,6.32-3.53c7-.08,14.05-.12,21.08,0,3.51.06,5.89-1.3,7.35-4.38.88-1.86,2.09-3.52,3-5.34,1.1-2.2.41-3.44-2.09-3.54-2.81-.1-5.62,0-8.43,0-9.33,0-18.65.08-28,0a7.55,7.55,0,0,0-7.39,4.36c-5.26,9.63-10.93,19-16.22,28.63-3.32,6.05-4.53,6.28-11.38,5.26s-13.61-2.14-20.52-2.24C315.53,214.16,313.3,214.7,312.46,212.18Z"/><path class="cls-4" d="M197.35,273.89c0,3.43-2,6.25-2.86,9.43A87,87,0,0,0,192,297.63c-.08.87.05,2-.95,2.33s-1.47-.79-2-1.43c-15.67-19.23-36.47-30.2-59.77-37.16a179.71,179.71,0,0,0-75.41-5.78,181.9,181.9,0,0,0-18,3.45c-2.53.59-3.84-.18-4.95-2.2-2.38-4.35-4.58-8.83-7.29-13-2-3-.85-4.05,1.93-4.76a189.54,189.54,0,0,1,27-5.17c6.22-.66,12.45-1.25,18.67-1.87,4.84.11,9.68.29,14.52.3,14.33,0,28.26,2.51,42.17,5.84a161.69,161.69,0,0,1,60,27.87C191.2,268.52,194.22,271.28,197.35,273.89Z"/><path class="cls-4" d="M553.84,232.25a252.68,252.68,0,0,1,37.17,4.8c3.11.66,6.18,1.52,9.27,2.29,2.05.51,2.82,1.59,1.66,3.6-2.72,4.74-5.45,9.48-8.11,14.25-1,1.79-2.17,2.49-4.34,2-21.94-5.22-44.13-6.76-66.5-3.64-29.44,4.11-56.72,13.43-79,34.12-3.08,2.85-5.73,6.17-8.53,9.31-1,1.16-2.4,2-2.48-.21-.31-8.65-3.29-16.67-5.4-24.89a157.76,157.76,0,0,1,39.14-25.13,196.45,196.45,0,0,1,44.82-13.45C525.57,232.71,539.66,232.23,553.84,232.25Z"/><path class="cls-4" d="M192,326c-.88-7.11-.23-14.25-.34-21.38,0-1.58,1-2.29,2.43-2.36,1.27-.05,2.55-.07,3.83-.07H427c6.13,0,6.23,0,6.11,6.09-.12,5.85.57,11.72-.41,17.55-.8,1.39-2.15,1.68-3.6,1.79-1.78.13-3.57.12-5.36.12q-111.49,0-223,0C197.78,327.73,194.5,328.76,192,326Z"/><path class="cls-5" d="M192,326c2-.05,4.08-.14,6.12-.14l234.49,0c.67,7.87,1.15,15.74-.25,23.59a2.51,2.51,0,0,1-1.68,1.33,20.48,20.48,0,0,1-6.83.76q-111.17,0-222.35,0a38.27,38.27,0,0,1-8-.9,2.62,2.62,0,0,1-1.23-.84c-1.47-4.2-.53-8.54-.63-12.81C191.61,333.37,191.2,329.68,192,326Z"/><path class="cls-5" d="M432.6,373.27c1.22,7.7.6,15.43.32,23.15-.7,1.56-2.14,1.65-3.55,1.78-1.91.17-3.83.14-5.75.14H201.33c-1.92,0-3.84,0-5.75-.14-1.41-.13-2.85-.22-3.55-1.78-.41-7.72-.94-15.44.26-23.13a3.73,3.73,0,0,1,1.31-.75,24.3,24.3,0,0,1,4.59-.2H426.7a25.16,25.16,0,0,1,4.59.19A3.35,3.35,0,0,1,432.6,373.27Z"/><path class="cls-4" d="M192,396.42c1.92,0,3.83.1,5.74.1H427.18c1.91,0,3.83-.07,5.74-.1,12.6,15.53,28.7,26.19,47,33.77,3.41,1.41,6.93,2.54,10.41,3.76,2.1.74,3.21,1.52,1.65,4-3.1,5-6,10.08-8.68,15.25-1.23,2.32-2.54,2.62-4.92,1.78-17.34-6.15-33.32-14.71-47.25-26.79-3.28-2.85-5.61-3.42-9.58-1.1-34.92,20.43-70,40.58-105,60.93-2.87,1.67-5,1.77-7.94.05-35.31-20.52-70.75-40.84-106.06-61.36-3.06-1.79-4.94-1.74-7.64.64-13.63,12-29.34,20.61-46.28,27-5.2,2-5.22,1.88-7.95-3.05q-3.33-6-6.73-12c-2.45-4.32-2.48-4.36,2.12-5.86a133.23,133.23,0,0,0,32.21-15.61A103.43,103.43,0,0,0,192,396.42Z"/><path class="cls-4" d="M432.6,373.27l-.92-.19q-119.21.06-238.4,0l-1,.21a82.69,82.69,0,0,1,0-23.46l.82.07c2.71.14,3.73,1.69,3.78,4.27s0,5.1.09,7.65c.1,5.09.94,5.9,6.14,6,1,0,2,0,3.07,0H423c5.51-.08,6.45-1,6.53-6.49a59,59,0,0,0-.17-8.41c-.27-2,.55-2.85,2.36-3.09l.71-.37c1.5,3.16.69,6.52.68,9.77C433.07,363.9,433.78,368.62,432.6,373.27Z"/><path class="cls-6" d="M282.51,255.15a11.36,11.36,0,0,1,11.58,11.55,11.65,11.65,0,0,1-11.94,11.69,11.44,11.44,0,0,1-11.29-11.86A11.13,11.13,0,0,1,282.51,255.15Z"/><path class="cls-5" d="M342.74,255.17c6.57.1,11.36,5.15,11.26,11.85a11.58,11.58,0,1,1-23.16-.62C330.92,259.87,336,255.07,342.74,255.17Z"/><path class="cls-7" d="M191.94,286.91c0,.38.07.76.11,1.14.23,2.34-1.61,3.52-3.06,4.53-1.6,1.11-2.44-.91-3.24-1.82a76.15,76.15,0,0,0-22.83-17.62c-6.72-3.39-13.55-6.86-20.78-9.27-5.34-1.78-10.48-4-16.13-5-4.33-.78-8.63-2.08-12.94-3.09-3.61-.85-7.89.17-10.42-1.47-5-3.22-9.7-.77-14.46-1.13-5-.36-10,0-14.94-.11-4.56-.13-9.21.82-13.63-1.19a2.33,2.33,0,0,0-3,1.06c-.51.76-1.15,1.79-2,1.53-4.76-1.46-9,1.54-13.65,1.33-.62,0-1.44-.17-1.84.15-4.17,3.43-5.77,1.57-7.54-2.74a44.37,44.37,0,0,0-4.35-7.51c-.77-1.13-2.44-3.13-1.84-3.43,1.73-.87,2.88-2.55,5-2.95,4.35-.83,9-.61,13-2.72a1.22,1.22,0,0,1,.72-.23c7.12,1.75,14.09-4.45,21.33-.33,1.23.7,3,.26,4.4-.62,5.86-3.68,11.68-3.35,17.64-.1,3.07,1.66,6.48,1.36,9.64.19,2.63-1,4.93-1.35,6.9,1.11.15.2.41.48.59.46,4.7-.6,9.1,1,13.63,1.72.56.09,1.33-.59,1.78-.4,10.26,4.27,21.24,6.44,31.46,10.86a180.72,180.72,0,0,1,30.23,16.44,70.75,70.75,0,0,1,8.4,6.63c5.33,5,5.32,5.35,2,12A3.69,3.69,0,0,0,191.94,286.91Z"/><path class="cls-7" d="M432.91,288.23c.63-3.62-1.17-6.18-1.9-8.79-.63-2.28-.08-3.1,1.07-4.49,3.24-3.87,7.39-6.67,11.47-9.46a153.39,153.39,0,0,1,40.94-20.28c2.56-.79,5.45-1.06,7.56-3.36,1.35-1.48,3.67-.17,5.55-.45,3.65-.53,6.66-4.27,10.72-2.31.21.1.63.13.74,0,2.69-3.1,6-2.22,9.24-1.42.34.08.94,0,1.09-.21,3.19-4.7,7.2-1.83,11.05-1.39,3,.33,6,.74,8.53-2,1.59-1.75,4.14-.9,6.24-.86,3.56.08,7.32-1,10.34,2.34,1.15,1.28,3.47,1,5.1.19,3.05-1.58,6.82-2,9.27-.74,3.52,1.78,7,.7,10.09,1.54,5.08,1.35,10.25,1.73,15.3,2.89,3.28.76,3.9,3.09,2.54,6.07-1.64,3.57-4.46,6.46-5.54,10.33-.75,2.69-3.21,2.34-4.66,1.35-1.91-1.29-4.14-.54-5.59-1.26-3.92-1.94-7.83-1.47-11.82-1.43-1,0-1.57-.78-2.1-1.52a2.2,2.2,0,0,0-2.61-1.12c-6.34,2.38-12.91,1.14-19.35,1.15-6.2,0-12.51,1.2-18.6-1.06a2.08,2.08,0,0,0-2.55,1.2c-.49.81-1.24,1.62-2.13,1.37-4.93-1.41-9.39,1.46-14.23,1.52-2.67,0-5.65,1.14-8.43,1.89-6,1.63-11.71,4-17.68,5.8a74,74,0,0,0-11,4.63c-5.48,2.64-11.25,4.81-16.09,8.6-4.46,3.5-9.67,6.16-12.94,11.1a9.77,9.77,0,0,1-2.95,2.95c-1.36.83-2.34,2.95-4.61,1.56A4.15,4.15,0,0,1,432.91,288.23Z"/><path class="cls-8" d="M431.69,349.83a2.6,2.6,0,0,0-.68,2.3A62.77,62.77,0,0,1,431,367c-.27,2.35-1.26,3.75-4.09,3a18.84,18.84,0,0,0-4.94-.3q-109.54,0-219.09,0c-.64,0-1.28,0-1.91,0-5.83.12-5.83.13-5.84-5.63,0-3.32-.06-6.64,0-10,.05-1.81-.37-3.26-2-4.17,1.52-.12,3-.34,4.55-.34q114.92,0,229.81,0C428.91,349.56,430.3,349.73,431.69,349.83Z"/><path class="cls-8" d="M193.28,373.08c1.52-.12,3-.34,4.56-.34q114.64,0,229.29,0c1.52,0,3,.22,4.55.34-1.4.09-2.79.25-4.19.25q-115,0-230,0C196.08,373.33,194.68,373.17,193.28,373.08Z"/><path class="cls-7" d="M133.94,436.34a246.47,246.47,0,0,0,28.42-11.88c4.82-2.46,8.94-6.22,13.55-9,5.84-3.53,9.83-8.8,14.66-13.27a7.46,7.46,0,0,1,5.6-1.86c9.59,0,19.17,0,28.76,0,66.06,0,132.13.14,198.2-.19,7.29,0,12.36,2.12,16.76,7.51,4.62,5.68,11.19,9,16.94,13.3,6.87,5.17,15.1,7.63,22.71,11.29,3.45,1.67,7.51,2.3,11.14,4.4-2.74,4-6,7.61-7.69,12.21-.39,1.06-1.23,1.92-1.26,3.16-.05,2.17-1.45,2.16-2.94,1.58-9.05-3.58-18.52-6.89-26.27-12.5-6.45-4.67-13.89-8.18-19.26-14.5-3.74-4.4-8.83-4.15-13.74-1.14-7.91,4.87-16,9.42-24,14.08q-19.16,11.12-38.33,22.2c-7.5,4.32-15,8.57-22.55,12.89-5.74,3.3-11.47,6.61-17.14,10-3.36,2-7.81,2.15-10.85-.21-5.56-4.32-12.16-6.83-18-10.66a146.41,146.41,0,0,0-14.07-8.23c-5.77-2.93-11-6.72-16.91-9.47-5-2.34-9.44-5.92-14.35-8.52-8.65-4.58-16.7-10.16-25.46-14.6a91.4,91.4,0,0,1-12.67-7.63c-4.18-3.07-9.09-2.94-12.87.66-8.38,8-18.59,13.28-28.26,19.39-5.66,3.57-12.22,5-18,8.26-1.13.63-2.46.41-2.81-1C141.71,446.42,138,441.43,133.94,436.34Z"/></g></g></svg>