<svg xmlns="http://www.w3.org/2000/svg" viewBox="0 0 512 497.28"><defs><style>.cls-1{fill:#2d75bb;}.cls-2{fill:#50b4f8;}.cls-3{fill:#fcf05a;}.cls-4{fill:#f4f4e6;}.cls-5{fill:#cfdfe8;}.cls-6{fill:#e97424;}.cls-7{fill:#e6e9ed;}.cls-8{fill:#cf9e76;}.cls-9{fill:#fcd770;}.cls-10{fill:#ffeaa7;}.cls-11{fill:#ff826e;}</style></defs><g id="Layer_2" data-name="Layer 2"><g id="Layer_1-2" data-name="Layer 1"><g id="Filled_outline" data-name="Filled outline"><path class="cls-1" d="M469.33,147.41v17.07H435.2V147.41H401.07v17.07H366.93V147.41H162.13v17.07H128V147.41H93.87v17.07H59.73V147.41H25.6A17.07,17.07,0,0,0,8.53,164.48v307.2A17.06,17.06,0,0,0,25.6,488.74H170.67V471.68H204.8v17.06h34.13V471.68h34.14v17.06H486.4a17.06,17.06,0,0,0,17.07-17.06V164.48a17.07,17.07,0,0,0-17.07-17.07Z"/><path class="cls-2" d="M8.53,198.61H76.8v256H8.53Z"/><path class="cls-3" d="M8.53,232.74H42.67v34.14H8.53Z"/><path class="cls-3" d="M8.53,301H42.67v34.13H8.53Z"/><path class="cls-4" d="M51.2,369.28v17.06H34.13V369.28Z"/><path class="cls-4" d="M51.2,403.41v17.07H34.13V403.41Z"/><path class="cls-5" d="M503.47,198.61V369.28H332.8V198.61Z"/><path class="cls-5" d="M110.93,437.54V335.14h85.34l51.2,42.67v59.73Z"/><path class="cls-4" d="M221.87,394.88v17.06H204.8V394.88Z"/><path class="cls-2" d="M435.2,403.41v85.33H401.07V403.41Z"/><path class="cls-2" d="M366.93,403.41v85.33H332.8V403.41Z"/><path class="cls-3" d="M477.87,446.08v17.06H460.8V446.08Z"/><path class="cls-3" d="M477.87,411.94V429H460.8V411.94Z"/><circle class="cls-3" cx="418.13" cy="283.94" r="51.2"/><circle class="cls-4" cx="281.6" cy="198.61" r="17.07"/><circle class="cls-4" cx="281.6" cy="266.88" r="17.07"/><circle class="cls-4" cx="281.6" cy="335.14" r="17.07"/><circle class="cls-6" cx="418.13" cy="283.94" r="17.07"/><path class="cls-5" d="M204.8,215.68v68.26H136.53V215.68Z"/><path d="M68.27,138.88H25.6A25.6,25.6,0,0,0,0,164.48v307.2a25.6,25.6,0,0,0,25.6,25.6H179.2V480.21h17.07v17.07h51.2V480.21h17.06v17.07H486.4a25.6,25.6,0,0,0,25.6-25.6V164.48a25.6,25.6,0,0,0-25.6-25.6H460.8v17.06H443.73V138.88h-51.2v17.06H375.47V138.88H153.6v17.06H136.53V138.88H85.33v17.06H68.27ZM17.07,258.34V241.28H34.13v17.06Zm0,68.27V309.54H34.13v17.07Zm0,119.47V343.68H51.2v-51.2H17.07V275.41H51.2v-51.2H17.07V207.14h51.2V446.08Zm324.26,34.13V411.94H358.4v68.27Zm68.27,0V411.94h17.07v68.27Zm85.33-273.07v153.6H341.33V207.14ZM102.4,155.94h17.07V173h51.2V155.94H358.4V173h51.2V155.94h17.07V173h51.2V155.94h8.53a8.53,8.53,0,0,1,8.53,8.54v25.6H324.27V377.81H494.93v93.87a8.53,8.53,0,0,1-8.53,8.53H443.73V394.88h-51.2v85.33H375.47V394.88h-51.2v85.33H281.6V463.14H230.4v17.07H213.33V463.14h-51.2v17.07H25.6a8.53,8.53,0,0,1-8.53-8.53v-8.54H85.33V190.08H17.07v-25.6a8.53,8.53,0,0,1,8.53-8.54H51.2V173h51.2Z"/><path d="M51.2,369.28v17.06H34.13V369.28Z"/><path d="M51.2,403.41v17.07H34.13V403.41Z"/><path d="M230.4,224.21V207.14H213.33V190.08H196.27v17.06H179.2V190.08H162.13v17.06H145.07V190.08H128v17.06H110.93v17.07H128v17.07H110.93v17.06H128v17.07H110.93v17.07H128v17.06h17.07V292.48h17.06v17.06H179.2V292.48h17.07v17.06h17.06V292.48H230.4V275.41H213.33V258.34H230.4V241.28H213.33V224.21Zm-34.13,51.2h-51.2v-51.2h51.2Z"/><path d="M102.4,326.61V446.08H273.07V429H256V411.94h17.07V394.88H256V373.81l-56.64-47.2Zm90.78,17.07,45.75,38.13V429H119.47V343.68Z"/><path d="M153.6,394.88V360.74H136.53v51.2h51.2V394.88Z"/><path d="M221.87,394.88v17.06H204.8V394.88Z"/><path d="M477.87,446.08v17.06H460.8V446.08Z"/><path d="M477.87,411.94V429H460.8V411.94Z"/><path d="M477.87,283.94a59.74,59.74,0,1,0-59.74,59.74A59.74,59.74,0,0,0,477.87,283.94ZM460,292.48a42.33,42.33,0,0,1-6.25,15l-12.53-12.53a21.33,21.33,0,0,0,1-2.43Zm0-17.07H442.17a23.4,23.4,0,0,0-1-2.43l12.52-12.53A42.54,42.54,0,0,1,460,275.41Zm-18.32-27L429.1,260.9a25.82,25.82,0,0,0-2.43-1V242.13a42.52,42.52,0,0,1,15,6.25Zm-32-6.25V259.9a25.82,25.82,0,0,0-2.43,1l-12.53-12.52A42.33,42.33,0,0,1,409.6,242.13Zm-33.28,33.28a42.33,42.33,0,0,1,6.25-15L395.09,273a25.82,25.82,0,0,0-1,2.43Zm33.28,8.53a8.54,8.54,0,1,1,8.53,8.54A8.53,8.53,0,0,1,409.6,283.94Zm-33.28,8.54H394.1a23.4,23.4,0,0,0,1,2.43l-12.53,12.53A42.52,42.52,0,0,1,376.32,292.48Zm18.31,27L407.17,307a21.33,21.33,0,0,0,2.43,1v17.79a42.54,42.54,0,0,1-15-6.26Zm32-11.53a21.39,21.39,0,0,0,2.43-1l12.53,12.53a42.54,42.54,0,0,1-15,6.26Z"/><path d="M256,198.61A25.6,25.6,0,1,0,281.6,173a25.6,25.6,0,0,0-25.6,25.6Zm34.13,0a8.53,8.53,0,1,1-8.53-8.53A8.53,8.53,0,0,1,290.13,198.61Z"/><path d="M256,266.88a25.6,25.6,0,1,0,25.6-25.6,25.6,25.6,0,0,0-25.6,25.6Zm34.13,0a8.53,8.53,0,1,1-8.53-8.54A8.53,8.53,0,0,1,290.13,266.88Z"/><path d="M256,335.14a25.6,25.6,0,1,0,25.6-25.6,25.6,25.6,0,0,0-25.6,25.6Zm34.13,0a8.53,8.53,0,1,1-8.53-8.53A8.53,8.53,0,0,1,290.13,335.14Z"/></g><path class="cls-7" d="M254.42,77.42H232.74a6.21,6.21,0,0,0-6.19,6.19H201.77a24.78,24.78,0,0,1,0-49.55c.38,0,.75,0,1.12.07a40.24,40.24,0,0,1,74.79-9.51A34,34,0,0,1,333.94,41.5a22.07,22.07,0,0,1,7.19-1.24,21.68,21.68,0,1,1,0,43.35H313.26a6.21,6.21,0,0,0-6.19-6.19Z"/><path class="cls-8" d="M251.32,21.68V40.26H232.74V21.68Z"/><path class="cls-9" d="M313.26,83.61v6.2H226.55v-6.2a6.21,6.21,0,0,1,6.19-6.19h74.33A6.21,6.21,0,0,1,313.26,83.61Z"/><path class="cls-10" d="M313.26,89.81v92.9a6.21,6.21,0,0,1-6.19,6.19H232.74a6.21,6.21,0,0,1-6.19-6.19V89.81Z"/><path class="cls-7" d="M300.87,136.26v18.58a6.21,6.21,0,0,1-6.19,6.19H245.13a6.2,6.2,0,0,1-6.19-6.19V136.26Z"/><path class="cls-11" d="M300.87,123.87v12.39H238.94v-6.2a6.21,6.21,0,0,1,6.19-6.19H269.9l4.37-4.37a6.25,6.25,0,0,1,4.4-1.82h16A6.21,6.21,0,0,1,300.87,123.87Z"/><path d="M341.13,86.71a24.78,24.78,0,0,0,0-49.55,24.13,24.13,0,0,0-5.07.54,37.18,37.18,0,0,0-57.6-17.83A43.32,43.32,0,0,0,200.51,31a27.87,27.87,0,0,0,1.26,55.71h21.68v96a9.3,9.3,0,0,0,9.29,9.29h74.33a9.3,9.3,0,0,0,9.29-9.29v-96Zm-161-27.87a21.7,21.7,0,0,1,21.67-21.68,4.19,4.19,0,0,1,.5,0l3,.14.59-2.5a37.13,37.13,0,0,1,67.89-10.78,37.15,37.15,0,0,0-7.54,12L272,38.29a30.95,30.95,0,0,1,58.91,3.94l.81,3.33L335,44.42a18.58,18.58,0,1,1,6.16,36.1H315.79a9.29,9.29,0,0,0-8.72-6.2H257.52V71.23a3.1,3.1,0,0,1,3.09-3.1h37.16a9.29,9.29,0,1,0,0-18.58H248.23a3.1,3.1,0,0,1-3.1-3.1v-3.1h9.29V18.58H229.65V43.35h9.29v3.1a9.3,9.3,0,0,0,9.29,9.29h49.54a3.1,3.1,0,1,1,0,6.2H260.61a9.3,9.3,0,0,0-9.29,9.29v3.09H232.74a9.28,9.28,0,0,0-8.72,6.2H201.77A21.7,21.7,0,0,1,180.1,58.84ZM310.16,86.71H229.65v-3.1a3.1,3.1,0,0,1,3.09-3.09h74.33a3.1,3.1,0,0,1,3.09,3.09ZM235.84,37.16V24.77h12.39V37.16Zm71.23,148.65H232.74a3.1,3.1,0,0,1-3.09-3.1V92.9h80.51v89.81A3.1,3.1,0,0,1,307.07,185.81Z"/><path d="M294.68,114.58h-16a9.26,9.26,0,0,0-6.57,2.72l-3.47,3.47H245.13a9.3,9.3,0,0,0-9.29,9.29v24.78a9.3,9.3,0,0,0,9.29,9.29h49.55a9.3,9.3,0,0,0,9.29-9.29v-31A9.3,9.3,0,0,0,294.68,114.58ZM245.13,127h26.06l5.28-5.29a3.12,3.12,0,0,1,2.19-.91h16a3.1,3.1,0,0,1,3.09,3.1v9.29H242v-3.1A3.1,3.1,0,0,1,245.13,127Zm49.55,31H245.13a3.11,3.11,0,0,1-3.1-3.1V139.35h55.74v15.49A3.11,3.11,0,0,1,294.68,157.94Z"/><path d="M300.87,31a18.45,18.45,0,0,1,8,1.78l2.66-5.59a24.78,24.78,0,0,0-28.32,5.05l4.43,4.34A18.43,18.43,0,0,1,300.87,31Z"/><path d="M323.26,38.93a24.52,24.52,0,0,0-4.7-6.72l-4.42,4.34a18.44,18.44,0,0,1,3.52,5Z"/><path d="M192.48,58.84h-6.19a15.5,15.5,0,0,0,15.48,15.48h9.3V68.13h-9.3A9.3,9.3,0,0,1,192.48,58.84Z"/></g></g></svg>