<svg xmlns="http://www.w3.org/2000/svg" viewBox="0 0 512 504.16"><defs><style>.cls-1{fill:#ffd77d;}.cls-2{fill:#eaa254;}.cls-3{fill:#ffc022;}.cls-4{fill:#e58b25;}</style></defs><g id="Layer_2" data-name="Layer 2"><g id="Layer_1-2" data-name="Layer 1"><path class="cls-1" d="M459.3,46H403V27.25c0-10.4-8.09-19.26-18.49-19.63a19.18,19.18,0,0,0-19.88,19.17V176.21a38.9,38.9,0,0,1-21.92,35l-7.11-61.92a66.68,66.68,0,0,0-66.24-59.07h0a66.67,66.67,0,0,0-66.24,59.07h0c-1.14,9.93-15.55,9.93-16.69,0h0a66.67,66.67,0,0,0-66.24-59.07h0A66.68,66.68,0,0,0,53.9,149.29L43.63,262.1a79,79,0,0,0,78.63,86.12H330.81a98,98,0,0,0,98-98V135a18.53,18.53,0,0,1,18.52-18.53h38.41A18.68,18.68,0,0,0,504.4,97.76V91.07A45.1,45.1,0,0,0,459.3,46Z"/><path class="cls-2" d="M358.3,197.38a8,8,0,0,0,14,4.28,38.74,38.74,0,0,0,9.49-25.45V26.79A19.18,19.18,0,0,1,392.31,9.68a18.51,18.51,0,0,0-7.84-2.06,19.18,19.18,0,0,0-19.89,19.17V176.21a38.64,38.64,0,0,1-6.28,21.17Z"/><path class="cls-2" d="M80.81,262.1,91.08,149.29a66.7,66.7,0,0,1,47.69-56.44,66.58,66.58,0,0,0-18.55-2.63h0A66.68,66.68,0,0,0,54,149.29L43.71,262.1a79,79,0,0,0,78.63,86.12h37.1A79,79,0,0,1,80.81,262.1Z"/><path class="cls-1" d="M342.13,288.18v80.66a36.8,36.8,0,0,1-36.8,36.8h0a36.81,36.81,0,0,1-36.8-36.8V288.18"/><path class="cls-2" d="M316,404.07a36.81,36.81,0,0,1-47.46-35.24V288.19h0a21.29,21.29,0,0,1,21.29,21.29v59.35A36.81,36.81,0,0,0,316,404.07Z"/><path class="cls-1" d="M165.41,288.18v80.66a36.8,36.8,0,0,1-36.8,36.8h0a36.81,36.81,0,0,1-36.8-36.8V288.18"/><path class="cls-2" d="M139.27,404.07a36.81,36.81,0,0,1-47.46-35.24V288.19h0a21.29,21.29,0,0,1,21.29,21.29v59.35a36.81,36.81,0,0,0,26.17,35.24Z"/><path class="cls-3" d="M319.88,402.65v64.14h20.83a14.88,14.88,0,0,1,0,29.76H305.45a15.32,15.32,0,0,1-15.32-15.33V402.35"/><path class="cls-3" d="M172.86,116.07a58.72,58.72,0,0,1-105.44,0,68,68,0,0,1,8.35-8.94,66.64,66.64,0,0,1,88.74,0A68,68,0,0,1,172.86,116.07Z"/><path class="cls-4" d="M138.74,92.86a66.68,66.68,0,0,0-46.39,49.08,58.89,58.89,0,0,1-24.92-25.87,67.22,67.22,0,0,1,8.34-8.94,66.71,66.71,0,0,1,63-14.27Z"/><path class="cls-3" d="M322,116.07a58.71,58.71,0,0,1-105.42,0,67.65,67.65,0,0,1,8.33-8.92A66.66,66.66,0,0,1,322,116.07Z"/><path class="cls-2" d="M287.94,92.85a66.67,66.67,0,0,0-47.68,56.44l-.95,10.36a40.64,40.64,0,0,1-40.47,37h0l4.31-47.32a66.68,66.68,0,0,1,84.79-56.44Z"/><path class="cls-4" d="M287.91,92.86a66.68,66.68,0,0,0-46.39,49.08,58.94,58.94,0,0,1-24.92-25.87,67.22,67.22,0,0,1,8.34-8.94,66.71,66.71,0,0,1,63-14.27Z"/><path class="cls-3" d="M143.16,402.65v64.14H164a14.88,14.88,0,1,1,0,29.76H128.73a15.32,15.32,0,0,1-15.32-15.33V402.35"/><path d="M243.57,340.62H189.28a7.6,7.6,0,1,0,0,15.2h54.29a7.6,7.6,0,0,0,0-15.2Z"/><path d="M459.3,38.37H410.55V27.25A26.92,26.92,0,0,0,384.73,0,26.77,26.77,0,0,0,357,26.79V176.21a31.08,31.08,0,0,1-8.25,21.21l-5.63-49a74.27,74.27,0,0,0-147.58,0c-.06.46-.08.7-.79.7s-.74-.23-.8-.7a74.25,74.25,0,0,0-73.79-65.81,75.85,75.85,0,0,0-12.06,1,7.61,7.61,0,0,0,2.46,15,60.26,60.26,0,0,1,9.6-.78A59,59,0,0,1,163.68,117a51.12,51.12,0,0,1-87.06,0,59.07,59.07,0,0,1,14.54-11.6,7.61,7.61,0,0,0-7.47-13.25,74.53,74.53,0,0,0-37.34,56.26,1.1,1.1,0,0,0,0,.18L36.06,261.41a86.62,86.62,0,0,0-.32,10.42C23.56,276.67,0,293,0,346.49a7.61,7.61,0,0,0,15.21,0c0-39.29,13.73-53.62,22.47-58.76A86.57,86.57,0,0,0,67.74,336.5a7.6,7.6,0,0,0,9.59-11.8A71.33,71.33,0,0,1,51.2,262.79L61.47,150.07a59,59,0,0,1,5.9-19.67,66.36,66.36,0,0,0,105.55,0,59.1,59.1,0,0,1,5.91,19.78,16,16,0,0,0,31.8,0,58.91,58.91,0,0,1,5.9-19.79,66.35,66.35,0,0,0,105.56,0A59.1,59.1,0,0,1,328,150.16l7.1,61.92a7.6,7.6,0,0,0,10.88,6,46.79,46.79,0,0,0,26.2-41.84V26.79a11.57,11.57,0,0,1,12-11.57,11.91,11.91,0,0,1,11.15,12V62.5a7.61,7.61,0,0,0,15.21,0V53.58H459.3a37.54,37.54,0,0,1,37.49,37.49v6.69a11.09,11.09,0,0,1-11.07,11.08H447.31A26.16,26.16,0,0,0,421.18,135V250.24a91.42,91.42,0,0,1-.46,9.23,7.61,7.61,0,0,0,6.8,8.34c.26,0,.52,0,.77,0a7.61,7.61,0,0,0,7.56-6.84,107.13,107.13,0,0,0,.54-10.77V135a10.93,10.93,0,0,1,10.92-10.92h38.41A26.31,26.31,0,0,0,512,97.76V91.07A52.76,52.76,0,0,0,459.3,38.37Zm-190,102.94A50.72,50.72,0,0,1,225.78,117a59,59,0,0,1,87.06,0A50.74,50.74,0,0,1,269.31,141.31Z"/><path d="M426,274.84a7.61,7.61,0,0,0-9.66,4.72,90.94,90.94,0,0,1-56.58,56.33,7.6,7.6,0,1,0,4.86,14.41,106.26,106.26,0,0,0,66.11-65.8A7.61,7.61,0,0,0,426,274.84Z"/><path d="M340.71,459.19H327.49V407.3a44.44,44.44,0,0,0,22.25-38.46V288.18a7.61,7.61,0,0,0-15.21,0v80.66a29.2,29.2,0,0,1-58.4,0V288.18a7.61,7.61,0,0,0-15.21,0v80.66a44.41,44.41,0,0,0,21.6,38.08v74.3a23,23,0,0,0,22.93,22.94h35.26a22.49,22.49,0,1,0,0-45Zm0,29.76H305.45a7.74,7.74,0,0,1-7.72-7.73V412.58a45.32,45.32,0,0,0,7.6.66,44.34,44.34,0,0,0,6.95-.55v54.1a7.61,7.61,0,0,0,7.6,7.61h20.83a7.27,7.27,0,0,1,7.28,7.27A7.29,7.29,0,0,1,340.71,489Z"/><path d="M164,459.19H150.77V407.3A44.44,44.44,0,0,0,173,368.84V288.18a7.61,7.61,0,0,0-15.21,0v80.66a29.2,29.2,0,0,1-58.4,0V288.18a7.6,7.6,0,1,0-15.2,0v80.66a44.42,44.42,0,0,0,21.59,38.08v74.3a23,23,0,0,0,22.93,22.94H164a22.49,22.49,0,1,0,0-45ZM164,489H128.73a7.74,7.74,0,0,1-7.72-7.73V412.58a45.32,45.32,0,0,0,7.6.66,44.15,44.15,0,0,0,6.95-.55v54.1a7.61,7.61,0,0,0,7.6,7.61H164a7.27,7.27,0,0,1,7.28,7.27A7.29,7.29,0,0,1,164,489Z"/><path d="M425.18,76.11c3.73,5.46,12.45,3.82,13.77-2.74,1.37-6.78-6.7-11.69-12.11-7.48A7.69,7.69,0,0,0,425.18,76.11Z"/></g></g></svg>