<svg xmlns="http://www.w3.org/2000/svg" viewBox="0 0 517.07 452.14"><defs><style>.cls-1{fill:#150020;stroke:#000;stroke-miterlimit:10;stroke-width:14px;}.cls-2{fill:#ff79ff;}.cls-3{fill:#3e5359;}.cls-4{fill:#334549;}.cls-5{fill:#80e7ff;}.cls-6{fill:#47dbf4;}.cls-7{fill:#5a9e3b;}.cls-8{fill:#538c35;}.cls-9{fill:#68bd45;}.cls-10{fill:#64af41;}.cls-11{fill:#ffdb56;}.cls-12{fill:#72d8ff;}.cls-13{fill:#898998;}.cls-14{fill:#ade5ff;}.cls-15{fill:#00a570;}.cls-16{fill:#36d28f;}.cls-17{fill:#ffb954;}</style></defs><g id="Layer_2" data-name="Layer 2"><g id="Layer_1-2" data-name="Layer 1"><circle class="cls-1" cx="291" cy="226.07" r="219.07"/><path class="cls-2" d="M223.89,53H123.94c-16.9,0-28,10.63-28,22.7v250.2a220.09,220.09,0,0,0,62.66,74.74c7.56-3.85,12.66-9.8,12.66-17.85V278.46h47.8c66.64,0,118.78-30.9,118.78-112V164C337.84,82.91,287.63,53,223.89,53Zm38.63,119.27c0,32.83-16.42,48.28-43.46,48.28h-47.8V118.64h47.8c27,0,43.46,15.45,43.46,48.29Z"/><path class="cls-2" d="M506.47,186.32c-5-7.88-12.74-13.12-21-13.12h-14c-24.63,0-47.8,22.21-57.46,43.46V198.79c0-13.52-15-22.69-33.32-22.69-21.24,0-36.69,9.17-36.69,22.69v184c0,11.59,15.45,23.18,36.69,23.18s38.15-11.59,38.15-23.18V310.33c0-43.94,26.07-71.94,52.63-71.94h14c10.6,0,20.36-8.57,24.49-20.48A37.69,37.69,0,0,0,512,205.56,36.17,36.17,0,0,0,506.47,186.32Z"/><path class="cls-3" d="M41.68,350.58c-23.51-4.49-39.24-12.68-39.24-22v69.24c0,9.35,15.73,17.54,39.24,22Z"/><path class="cls-3" d="M125,350.58v69.25c23.51-4.5,39.24-12.69,39.24-22V328.55C164.25,337.9,148.52,346.09,125,350.58Z"/><path class="cls-4" d="M155.46,340.21v69.24c5.62-3.5,8.79-7.46,8.79-11.66V328.55C164.25,332.75,161.08,336.71,155.46,340.21Z"/><path class="cls-5" d="M83.35,302.81c-44.69,0-80.91,11.51-80.91,25.72v0c0,9.35,15.73,17.54,39.24,22v25.12a225,225,0,0,1,41.67-3.67A225,225,0,0,1,125,375.72V350.6c23.51-4.49,39.24-12.68,39.24-22v0C164.25,314.32,128,302.81,83.35,302.81Z"/><path class="cls-6" d="M41.68,341.81c-19.76-3.78-34-10.16-38.07-17.66a9.27,9.27,0,0,0-1.17,4.38v0c0,9.35,15.73,17.54,39.24,22Z"/><path class="cls-6" d="M125,341.81v8.79c23.51-4.49,39.24-12.68,39.24-22v0a9.16,9.16,0,0,0-1.17-4.38C159,331.65,144.77,338,125,341.81Z"/><path class="cls-7" d="M105.82,329.59a6.29,6.29,0,0,0-9.34,0L75.68,352.7v19.46q3.78-.11,7.67-.11A225,225,0,0,1,125,375.72V350.58Z"/><path class="cls-8" d="M125,362.42V350.58l-19.19-21a6.29,6.29,0,0,0-9.34,0l-1.15,1.27Z"/><path class="cls-9" d="M53.55,337.43,41.68,350.59v25.13a225,225,0,0,1,41.67-3.67q4.88,0,9.6.18v-.18l-31-34.62A5.65,5.65,0,0,0,53.55,337.43Z"/><path class="cls-10" d="M61.94,337.43a5.65,5.65,0,0,0-8.39,0l-1.67,1.85,29.35,32.77h2.12q4.88,0,9.6.18v-.18Z"/><path class="cls-11" d="M82,324.89a6.32,6.32,0,1,1-6.31-6.31A6.31,6.31,0,0,1,82,324.89Z"/><path d="M166.69,328.53c0-8.14-8.78-15.23-25.4-20.52-15.51-4.93-36.09-7.65-57.94-7.65a226,226,0,0,0-43.61,4,2.44,2.44,0,1,0,1,4.78,221.74,221.74,0,0,1,42.65-3.9c21.36,0,41.42,2.63,56.46,7.42,13.78,4.38,22,10.31,22,15.86h0c0,2.49-1.66,6.36-9.54,10.7-6.37,3.5-15.48,6.49-26.38,8.67l-18.26-20a8.73,8.73,0,0,0-6.48-2.88h0A8.73,8.73,0,0,0,94.67,328l-19,21.1L63.75,335.8a8.07,8.07,0,0,0-12,0l-11,12.12c-10.9-2.18-20-5.17-26.37-8.67-7.88-4.34-9.54-8.21-9.54-10.7h0c0-6.24,9.89-12.66,26.44-17.17A2.44,2.44,0,1,0,30,306.65C10.67,311.93,0,319.7,0,328.53H0v69.24c0,6.89,6.56,11.95,12.07,15,7.08,3.89,17.15,7.16,29.15,9.45a2.31,2.31,0,0,0,.46,0,2.45,2.45,0,0,0,2.44-2.44V404.31a2.45,2.45,0,0,0-4.89,0v12.53c-10.21-2.14-18.74-5-24.81-8.35-7.88-4.34-9.54-8.21-9.54-10.7V338.46a35.05,35.05,0,0,0,7.19,5.07c6.68,3.67,16,6.79,27.17,9.06v42a2.44,2.44,0,0,0,4.88,0V377.75a225.92,225.92,0,0,1,39.23-3.26c5.67,0,11.33.19,16.83.56a2.44,2.44,0,1,0,.33-4.87c-5.61-.38-11.38-.58-17.16-.58a232.21,232.21,0,0,0-39.23,3.19V351.52l11.24-12.45a3.2,3.2,0,0,1,4.76,0l13.74,15.26h0l8.75,9.72a2.45,2.45,0,0,0,3.45.19,2.45,2.45,0,0,0,.18-3.45L79,352.7,98.3,331.22a3.82,3.82,0,0,1,5.71,0l18.56,20.29v21.26c-3.93-.68-8-1.27-12.25-1.74a2.44,2.44,0,1,0-.54,4.86c4.42.49,8.71,1.11,12.79,1.84v42.08a2.45,2.45,0,0,0,2.44,2.44,2.31,2.31,0,0,0,.46,0c12-2.29,22.08-5.56,29.16-9.45,5.5-3,12.06-8.09,12.06-15V328.55h0Zm-4.88,69.26c0,2.49-1.66,6.36-9.54,10.7-6.07,3.33-14.6,6.21-24.81,8.35V352.59c11.12-2.27,20.48-5.39,27.17-9.06a35,35,0,0,0,7.18-5.07Z"/><path d="M84.43,324.89a8.76,8.76,0,1,0-8.75,8.76A8.75,8.75,0,0,0,84.43,324.89Zm-12.63,0a3.88,3.88,0,1,1,3.88,3.88A3.88,3.88,0,0,1,71.8,324.89Z"/><path class="cls-12" d="M72.37,434v2.41a2.66,2.66,0,1,1-5.31,0V434a2.66,2.66,0,1,1,5.31,0Z"/><path class="cls-13" d="M56.65,379.62h51.73a3.87,3.87,0,0,1,3.87,3.86v38.68a3.87,3.87,0,0,1-3.87,3.87H56.65a3.87,3.87,0,0,1-3.87-3.87V383.48A3.86,3.86,0,0,1,56.65,379.62Z"/><path class="cls-14" d="M52.78,388.23h59.47v29.19H52.78Z"/><path class="cls-15" d="M103.78,417.42V411.6L88.6,396.41l-21,21h36.18Z"/><path class="cls-16" d="M76.32,403.21,62.11,417.42H90.54Z"/><path class="cls-17" d="M79.9,395.73a2.66,2.66,0,1,1-2.66-2.66A2.66,2.66,0,0,1,79.9,395.73Z"/><path d="M108.38,378.41H56.65a5.09,5.09,0,0,0-5.08,5.07v38.68a5.09,5.09,0,0,0,5.08,5.08h51.73a5.08,5.08,0,0,0,5.07-5.08V383.48A5.08,5.08,0,0,0,108.38,378.41ZM54,389.43h6v26.69H54Zm11.13,26.69,11.2-11.2,3.62,3.62a1.21,1.21,0,0,0,1.71-1.71l-4.47-4.47a1.2,1.2,0,0,0-1.71,0l-13,13V389.43h40.13v19.25L89.45,395.56a1.2,1.2,0,0,0-1.71,0L81.8,401.5a1.21,1.21,0,1,0,1.71,1.71l5.09-5.09,14,14v4ZM102.58,387H94.36v-6.19h8.22Zm-10.64,0H83.72v-6.19h8.22ZM81.3,387H73.08v-6.19H81.3Zm-10.63,0H62.45v-6.19h8.22Zm-8.22,31.52h8.22v6.28H62.45Zm10.63,0H81.3v6.28H73.08Zm10.64,0h8.22v6.28H83.72Zm10.64,0h8.22v6.28H94.36ZM105,389.43H111v26.69H105Zm6.05-5.95V387H105v-6.19h3.39A2.66,2.66,0,0,1,111,383.48Zm-54.39-2.65H60V387H54v-3.54A2.66,2.66,0,0,1,56.65,380.83ZM54,422.16v-3.62h6v6.28H56.65A2.66,2.66,0,0,1,54,422.16Zm54.39,2.66H105v-6.28H111v3.62A2.67,2.67,0,0,1,108.38,424.82Z"/><path d="M83.7,409.37a1.21,1.21,0,0,0-1.21,1.21,1.2,1.2,0,0,0,1.21,1.21,1.21,1.21,0,0,0,1.21-1.21,1.2,1.2,0,0,0-.36-.85A1.18,1.18,0,0,0,83.7,409.37Z"/><path d="M77.24,391.86a3.87,3.87,0,1,0,3.87,3.87A3.88,3.88,0,0,0,77.24,391.86Zm0,5.32a1.45,1.45,0,1,1,1.45-1.45A1.45,1.45,0,0,1,77.24,397.18Z"/><path d="M100.92,434H73.58a3.87,3.87,0,1,0-7.73,0H59.31a1.21,1.21,0,1,0,0,2.41h6.54a3.87,3.87,0,1,0,7.73,0h27.34a1.21,1.21,0,1,0,0-2.41Zm-29.75,2.41a1.45,1.45,0,0,1-2.9,0V434a1.45,1.45,0,0,1,2.9,0Z"/><path d="M105.72,434a1.21,1.21,0,0,0-.86.35,1.23,1.23,0,0,0-.35.85,1.2,1.2,0,0,0,1.21,1.21,1.21,1.21,0,0,0,1.21-1.21,1.2,1.2,0,0,0-.36-.85A1.17,1.17,0,0,0,105.72,434Z"/></g></g></svg>