<svg xmlns="http://www.w3.org/2000/svg" viewBox="0 0 519 484.86"><defs><style>.cls-1{fill:#0d0a22;stroke:#000;stroke-miterlimit:10;stroke-width:14px;}.cls-2{fill:#2bbbfa;}.cls-3{fill:#c2c3c9;}.cls-4{fill:#f2d59f;}.cls-5{fill:#e6b263;}.cls-6{fill:#000003;}</style></defs><g id="Layer_2" data-name="Layer 2"><g id="Layer_1-2" data-name="Layer 1"><circle class="cls-1" cx="276.57" cy="242.43" r="235.43"/><path class="cls-2" d="M189.83,35.46H82.32c-18.18,0-30.12,11.43-30.12,24.42V313.93A235.35,235.35,0,0,0,113.25,412c11.48-3.79,20-11.06,20-21.81V278h51.41c71.67,0,127.77-33.23,127.77-120.49v-2.59C312.4,67.66,258.38,35.46,189.83,35.46Zm41.54,128.29c0,35.31-17.65,51.93-46.74,51.93H133.22V106.1h51.41c29.09,0,46.74,16.62,46.74,51.93Z"/><path class="cls-2" d="M378.37,241.13c0-7.79,8.84-16.62,29.6-16.62,28,0,44.15,15.58,58.18,15.58,18.69,0,29.08-27.53,29.08-37.91,0-21.82-43.11-37.39-88.3-37.39-73.74,0-97.63,41.55-97.63,80,0,87.26,121.52,62.84,121.52,98.68,0,7.27-4.67,17.14-32.19,17.14-41.55,0-53.49-23.37-70.12-23.37-16.09,0-26.48,22.85-26.48,35.31,0,25.45,44.14,47.78,98.68,47.78a162.38,162.38,0,0,0,33.82-3.3,235.56,235.56,0,0,0,64.2-96.45C482.19,252,378.37,267.9,378.37,241.13Z"/><path class="cls-3" d="M84.53,358.59l21.35-14.06,20.29,18.13c1.2-9.43,1.63-19.15-.41-26-8.47-28.35-33-46.52-60.59-46.29-28.76.24-51.69,18.73-59.92,46.29-2,6.83-1.61,16.55-.41,26l20.29-18.13,21.35,14.06,19-15.23Z"/><path class="cls-4" d="M105.88,344.53,84.53,358.59l-19-15.23-19,15.23L25.13,344.53,4.84,362.66C6.15,373,8.38,383,9.28,388.42c5.55,33.71,9.93,31.71,27.91,43.9,18.78,10.85,37.88,10.83,56.63,0,3.1-2.11,5.8-3.79,8.17-5.31l1.49-7.55,3.6,4.11c7.55-5.65,10.83-11.92,14.65-35.16.9-5.45,3.13-15.43,4.44-25.76Z"/><polygon class="cls-5" points="114.29 431.82 107.08 423.58 103.48 419.47 101.99 427.02 100.3 435.57 97.12 451.67 111.11 447.92 125.09 444.18 114.29 431.82"/><path class="cls-6" d="M78.71,311.68a4,4,0,0,0,1.22.2,3.85,3.85,0,0,0,1.3-7.47l-.25-.08a3.85,3.85,0,0,0-2.27,7.35Z"/><path class="cls-6" d="M87.74,315.9a45,45,0,0,1,15.44,16.42,3.84,3.84,0,0,0,3.37,2,3.9,3.9,0,0,0,1.86-.48,3.86,3.86,0,0,0,1.5-5.24,52.89,52.89,0,0,0-18.1-19.21,3.85,3.85,0,1,0-4.07,6.53Z"/><circle class="cls-6" cx="89.54" cy="384.27" r="6.25"/><circle class="cls-6" cx="41.46" cy="384.26" r="6.25"/><path class="cls-6" d="M80.52,404.86a21.23,21.23,0,0,1-30,0,3.85,3.85,0,0,0-5.44,5.44,28.91,28.91,0,0,0,40.91,0,3.85,3.85,0,0,0-5.44-5.44Z"/><path class="cls-6" d="M112.56,424c6.69-6.3,9.64-14.76,13-35,.28-1.69.7-3.87,1.18-6.39,2.61-13.64,6.57-34.25,2.74-47.07-8.79-29.4-34.36-49-63.76-49h-.55a65.15,65.15,0,0,0-40,13.72A69.69,69.69,0,0,0,1.56,335.58c-2.19,7.35-1.78,17.53-.56,27.3a3.86,3.86,0,0,0,.06.49c.9,7.1,2.22,13.94,3.24,19.29.48,2.51.9,4.69,1.18,6.38,2.5,15.22,4.81,23.37,8.21,29.06,3.62,6,8.3,9,14.78,13.13,1.94,1.24,4.14,2.64,6.56,4.28l.23.15c9.94,5.73,20.11,8.64,30.25,8.64h0c10.13,0,20.3-2.91,30.22-8.64l.24-.15.48-.32-3.11,15.74a3.84,3.84,0,0,0,3.77,4.59,3.76,3.76,0,0,0,1-.13l10.27-2.75,4.22,15.74a3.85,3.85,0,1,0,7.43-2l-4.22-15.74,10.27-2.75a3.84,3.84,0,0,0,1.9-6.25ZM8.94,337.78c8-26.64,29.51-43.32,56.26-43.54,26.16-.23,49,17.28,56.87,43.54,1.35,4.51,1.49,10.57,1,17l-14.67-13.1a3.85,3.85,0,0,0-4.68-.34l-19,12.51L68,340.4h0l0,0-.08-.05-.22-.16-.11-.07-.21-.12-.15-.07-.19-.09-.18-.06-.16-.06-.21-.05-.15,0-.21,0-.16,0h-.75l-.15,0-.22,0-.15,0-.21.05-.15.05-.2.08-.17.07-.16.08-.21.12-.11.07-.22.16-.08.05-.05,0h0L46.26,353.84l-19-12.52a3.84,3.84,0,0,0-4.67.34L7.9,354.76C7.45,348.35,7.59,342.29,8.94,337.78Zm89.45,87c-2,1.24-4.16,2.64-6.61,4.3-17.44,10-35.11,10-52.55,0-2.46-1.67-4.68-3.08-6.63-4.32-6-3.82-9.63-6.12-12.3-10.6-2.83-4.72-4.92-12.35-7.23-26.34-.29-1.8-.72-4-1.21-6.59-.92-4.77-2.07-10.8-2.94-17l16.57-14.8L44.37,361.8a3.85,3.85,0,0,0,4.52-.21l16.61-13.3,16.62,13.3a3.85,3.85,0,0,0,4.52.21l18.88-12.43,16.57,14.8c-.87,6.23-2,12.27-2.94,17-.49,2.58-.92,4.8-1.21,6.6-3.27,19.84-6,26.17-10.44,30.42l-1.12-1.28a3.85,3.85,0,0,0-6.67,1.79l-1.17,5.93Zm11.74,19.44h0l-8,2.15,3.64-18.46,12.39,14.16Z"/><path class="cls-6" d="M30.61,398.7a3.85,3.85,0,1,0,3.85,3.85A3.86,3.86,0,0,0,30.61,398.7Z"/><path class="cls-6" d="M105.4,407.36a3.85,3.85,0,1,0-3.85,3.85A3.86,3.86,0,0,0,105.4,407.36Z"/></g></g></svg>