<svg xmlns="http://www.w3.org/2000/svg" viewBox="0 0 511.98 512"><defs><style>.cls-1{fill:#66bea1;}.cls-2{fill:#49a584;}.cls-3{fill:#71caaf;}.cls-4{fill:#97e0bb;}.cls-5{fill:#6e91ce;}.cls-6{fill:#f7dd6d;}.cls-7{fill:#e2c64d;}.cls-8{fill:#7e8089;}.cls-9{fill:#8b8e98;}.cls-10{fill:#fff;}</style></defs><g id="Layer_2" data-name="Layer 2"><g id="Layer_1-2" data-name="Layer 1"><path class="cls-1" d="M330.3,74.32,221.78,2.77a16.51,16.51,0,0,0-15.73-1.38L34.54,65.93A16.52,16.52,0,0,0,24.7,79.47L0,408.92l25,12.21Z"/><path class="cls-2" d="M119.81,265.15l-20.32,6.44L42,363.33,16.58,395.75l-8.27.61.9-44.57,13.17-20.26,69.82-108c1.65-2.48,4.84,1.33,6.82-.57l-7.69,12.33Z"/><path d="M221.79,2.81A16,16,0,0,0,212.63,0,17.13,17.13,0,0,0,206,1.4L34.52,65.89a16.63,16.63,0,0,0-9.83,13.55L3.63,360.35l-2.8,37.9L0,408.91l24.94,12.22L330.3,74.32ZM20.89,400.73,17.34,399l5-67.47L41.12,81.09,211.88,16.85l.42-.17.33-.17v-15l.08,15,92.65,61.11L42.86,375.79ZM206,1.4,34.52,65.89a16.63,16.63,0,0,0-9.83,13.55L3.63,360.35l18.75-28.82L41.12,81.09,211.88,16.85l.42-.17.33-.17V0A17.13,17.13,0,0,0,206,1.4Z"/><path class="cls-3" d="M92.18,263a16.1,16.1,0,0,0-2.37,2.84L2.74,399.51a16.52,16.52,0,0,0,5.45,23.38L161.25,509.7a16.54,16.54,0,0,0,21.26-4l22.94-25.54a17.58,17.58,0,0,0,1.72-2.64l88-168.66c-63.08-15.06-128.44-34.64-189.62-58.68Z"/><path class="cls-4" d="M403.85,93.81,393.47,22.49a16.52,16.52,0,0,0-27-10.22L272.87,90.53c-.24.2-.48.42-.71.63l-166.61,159c61.18,24,126.54,43.61,189.62,58.68l107-205.06A16.54,16.54,0,0,0,403.85,93.81Z"/><path d="M377.12,24.85v0l10.38,71.3L192.58,469.78l-22.36,24.89-.51.26-.31.39L16.58,408.52l87-133.62L283.45,103.19l93.67-78.34M377,8.32a16.28,16.28,0,0,0-10.62,3.95L272.86,90.53c-.24.2-.48.42-.71.63L92.18,263a16.1,16.1,0,0,0-2.37,2.84L2.74,399.51a16.52,16.52,0,0,0,5.45,23.38L161.25,509.7a16.54,16.54,0,0,0,21.26-4l22.94-25.54a17.18,17.18,0,0,0,1.72-2.65l195-373.71a16.5,16.5,0,0,0,1.7-10L393.47,22.5A16.52,16.52,0,0,0,377,8.32Z"/><path class="cls-5" d="M461,279.48l-40.1-5a8.28,8.28,0,0,1-7.22-8.61l0-.57L402.32,135.64a8.23,8.23,0,0,1,8.3-7.39,8,8,0,0,1,5.21,1.94l84.74,72.5a8.24,8.24,0,0,1,1.88,10.61l-33.53,62.51a8.19,8.19,0,0,1-6.93,3.74S461.3,279.52,461,279.48Z"/><path d="M410.7,136.67l84.64,72.41-.19.3-.16.32-33,61.57-40.1-5,.06-1.13-.1-1.13L410.7,136.67M410.61,120A16.52,16.52,0,0,0,394,135.7l11.35,129.74a16.5,16.5,0,0,0,14.44,17.21l40.12,5a15.68,15.68,0,0,0,2.05.13,16.53,16.53,0,0,0,14.21-8.1l33.35-62.19a16.51,16.51,0,0,0-3.61-21.09l-84.81-72.55A16.26,16.26,0,0,0,410.61,120Z"/><path class="cls-6" d="M140.74,446.58l15.92-41.93a16.51,16.51,0,0,1,6.75-10.31L420.6,238.57c.65-.45,3.81-2.61,4.53-3l10.66-11.8a16.51,16.51,0,0,1,23.35,10.53l52.28,214.09a16.51,16.51,0,0,1-10.57,19.85l-141,42.81a16.47,16.47,0,0,1-9.68.33l-197.5-45.65A16.5,16.5,0,0,1,140.74,446.58Z"/><polygon class="cls-7" points="157.03 449.77 157.03 449.86 157.2 449.86 157.03 449.77"/><polygon class="cls-7" points="156.37 449.69 161.9 425.5 164.54 426.07 353.52 469.81 489.67 428.56 496.04 452.46 355.07 503.34 156.37 449.69"/><polygon class="cls-7" points="157.03 449.77 157.03 449.86 157.2 449.86 157.03 449.77"/><path d="M445.79,450.11A8.26,8.26,0,0,1,443.4,434L459.75,429a8.26,8.26,0,0,1,4.79,15.8l-16.35,5A8.35,8.35,0,0,1,445.79,450.11Z"/><path d="M355.07,477.59a8.26,8.26,0,0,1-2.4-16.16L410.22,444A8.26,8.26,0,1,1,415,459.81l-57.55,17.43A8.28,8.28,0,0,1,355.07,477.59Z"/><path d="M511.4,448.42,459.13,234.3a16.44,16.44,0,0,0-15.94-12.22,16,16,0,0,0-7.43,1.74L163.43,394.33a16.36,16.36,0,0,0-6.77,10.32l-15.9,41.9a16.51,16.51,0,0,0,11.89,19.24l197.48,45.63a15.45,15.45,0,0,0,4.29.58,17,17,0,0,0,5.37-.91l141-42.85A16.49,16.49,0,0,0,511.4,448.42Zm-16.1,4.21L355,495.24l-.25.16-.33.09-.24-.09-.33-.08L157.19,449.85H157v-.08l7.43-23.53.09-.17L170,408.9l2.69-.12.16-.91L443.19,238.6,492.82,442l2.56,10.4.08.25Z"/><path class="cls-8" d="M404.61,421.13H107.35a16.51,16.51,0,0,1-16.52-16.52V107.35a16.51,16.51,0,0,1,16.52-16.52H404.61a16.51,16.51,0,0,1,16.52,16.52V404.61A16.51,16.51,0,0,1,404.61,421.13Z"/><rect class="cls-9" x="99.49" y="363.33" width="311.77" height="49.14"/><path d="M404.61,107.35V404.61H107.35V107.35H404.61m0-16.52H107.35a16.51,16.51,0,0,0-16.52,16.52V404.61a16.51,16.51,0,0,0,16.52,16.52H404.61a16.51,16.51,0,0,0,16.52-16.52V107.35a16.51,16.51,0,0,0-16.52-16.52Z"/><path class="cls-10" d="M181.66,346.81a8.27,8.27,0,0,0-8.25,8.26v16.51a8.26,8.26,0,1,0,16.51,0V355.07A8.28,8.28,0,0,0,181.66,346.81Zm41.29,0a8.28,8.28,0,0,0-8.26,8.26v16.51a8.26,8.26,0,0,0,16.52,0V355.07A8.28,8.28,0,0,0,223,346.81Zm41.29,0a8.28,8.28,0,0,0-8.26,8.26v16.51a8.26,8.26,0,1,0,16.51,0V355.07A8.27,8.27,0,0,0,264.24,346.81Zm-123.86,0a8.28,8.28,0,0,0-8.26,8.26v16.51a8.26,8.26,0,1,0,16.51,0V355.07A8.27,8.27,0,0,0,140.38,346.81Z"/><path class="cls-10" d="M140.38,272.49a8.25,8.25,0,0,1-8.26-8.25V140.38a8.26,8.26,0,1,1,16.51,0V264.24A8.25,8.25,0,0,1,140.38,272.49Z"/><path class="cls-10" d="M189.92,223H140.38a8.26,8.26,0,0,1,0-16.52h49.54a16.52,16.52,0,0,0,16.51-16.51V165.15a16.53,16.53,0,0,0-16.51-16.52H140.38a8.26,8.26,0,1,1,0-16.51h49.54a33.06,33.06,0,0,1,33,33v24.77A33.06,33.06,0,0,1,189.92,223Z"/><path class="cls-10" d="M305.52,272.49H280.75a33.06,33.06,0,0,1-33-33V165.15a33.06,33.06,0,0,1,33-33h24.77a33.06,33.06,0,0,1,33,33v8.26a8.26,8.26,0,0,1-16.51,0v-8.26a16.54,16.54,0,0,0-16.52-16.52H280.75a16.53,16.53,0,0,0-16.51,16.52v74.31A16.53,16.53,0,0,0,280.75,256h24.77A16.54,16.54,0,0,0,322,239.46v-8.25a8.26,8.26,0,1,1,16.51,0v8.25A33.06,33.06,0,0,1,305.52,272.49Z"/></g></g></svg>