<svg xmlns="http://www.w3.org/2000/svg" viewBox="0 0 525.99 526"><defs><style>.cls-1{fill:#004a94;}.cls-1,.cls-2,.cls-3{stroke:#000;stroke-miterlimit:10;stroke-width:14px;}.cls-2{fill:#fff;}.cls-3{fill:#fb9200;}</style></defs><g id="Layer_2" data-name="Layer 2"><g id="Layer_1-2" data-name="Layer 1"><path class="cls-1" d="M263,7C197.76,7,154.68,34.09,154.68,59.93v82.44H263v12.31H59.93C34.07,154.68,7,197.76,7,263S34.08,371.32,59.93,371.32h82.42V319.8a63,63,0,0,1,63-63h115.3a50.73,50.73,0,0,0,50.67-50.67V117.08h0V59.93C371.31,34.09,328.23,7,263,7Z"/><circle class="cls-2" cx="204.29" cy="80" r="15.59"/><path class="cls-3" d="M466.06,154.68H383.62v51.46a63,63,0,0,1-63,63H205.33a50.72,50.72,0,0,0-50.66,50.67V466.07C154.68,491.92,197.76,519,263,519s108.32-27.09,108.32-52.93V383.63H263V371.32H466.06C491.92,371.32,519,328.24,519,263S491.91,154.68,466.06,154.68Z"/><circle class="cls-2" cx="321.7" cy="446" r="15.59"/></g></g></svg>