<svg xmlns="http://www.w3.org/2000/svg" viewBox="0 0 512 472.8"><defs><style>.cls-1{fill:#fbe5c8;}.cls-2{fill:#ffc9d3;}.cls-3{fill:#fbdab2;}.cls-4{fill:#ffb2c1;}.cls-5{fill:#ffefe0;}.cls-6{fill:#ff889e;}</style></defs><g id="Layer_2" data-name="Layer 2"><g id="Layer_1-2" data-name="Layer 1"><path class="cls-1" d="M427.87,144.87a62.5,62.5,0,1,1,68-92.59Z"/><path class="cls-2" d="M503.36,95.83a62.51,62.51,0,0,1-73.22,49.53c-.77-.15-1.52-.31-2.27-.49-3.94-11.73-4.7-23.87-.75-36.07,14-43.25,46.45-54.3,68.73-56.52A62.28,62.28,0,0,1,503.36,95.83Z"/><path class="cls-3" d="M84.13,144.87a62.5,62.5,0,1,0-68-92.59Z"/><path class="cls-4" d="M8.64,95.83a62.51,62.51,0,0,0,73.22,49.53c.77-.15,1.52-.31,2.27-.49,3.94-11.73,4.7-23.87.76-36.07-14-43.25-46.46-54.3-68.74-56.52A62.28,62.28,0,0,0,8.64,95.83Z"/><path class="cls-5" d="M469.44,292.39l.79-.78a77.11,77.11,0,0,0,0-110.42l-.79-.78A77.12,77.12,0,0,0,412,85.19h0l-.43-1.45a77.11,77.11,0,0,0-97.18-51.91l-1.56.49L310.51,30a77.12,77.12,0,0,0-109,0l-2.29,2.29-1.56-.49a77.12,77.12,0,0,0-97.19,51.91L100,85.18h0a77.13,77.13,0,0,0-57.44,95.22h0l-.79.78a77.12,77.12,0,0,0,0,110.42l.79.78A77.12,77.12,0,0,0,100,387.61h0l.43,1.45A77.12,77.12,0,0,0,197.63,441l1.56-.49,2.3,2.29a77.12,77.12,0,0,0,109,0l2.29-2.29,1.56.49a77.13,77.13,0,0,0,97.19-51.9l.42-1.45h0a77.12,77.12,0,0,0,57.44-95.22Z"/><path class="cls-1" d="M134.38,190.34A251.81,251.81,0,0,1,191.54,30.21a77.1,77.1,0,0,0-91.09,53.53L100,85.19h0a77.13,77.13,0,0,0-57.44,95.22l-.79.78a77.12,77.12,0,0,0,0,110.42l.79.78A77.12,77.12,0,0,0,100,387.61h0l.43,1.45A77.11,77.11,0,0,0,197.63,441l1.56-.49,2.3,2.29A77.13,77.13,0,0,0,299.37,452c-101.16-34.91-165-146.07-165-261.64Z"/><path class="cls-2" d="M404.39,170.7a4.9,4.9,0,0,0-8.7-1.23,52.42,52.42,0,0,1-87.41-1.39,4.91,4.91,0,0,0-8.28,0,52.35,52.35,0,0,1-44,24h-.09a52.35,52.35,0,0,1-44-24,4.91,4.91,0,0,0-8.28,0,52.42,52.42,0,0,1-87.41,1.39,4.9,4.9,0,0,0-8.7,1.23c-13.62,41-50,191.15,148.39,191.19H256c198.36,0,162-150.18,148.39-191.19Z"/><path class="cls-4" d="M134.38,190.34c0-1.48,0-3,.05-4.44a52.69,52.69,0,0,1-18.2-16.43,4.91,4.91,0,0,0-8.71,1.23c-11.5,34.61-39.18,147,71.74,181.2-28.8-46.69-44.88-103.56-44.88-161.56Z"/><ellipse class="cls-6" cx="165.08" cy="267.03" rx="26.71" ry="33.54" transform="translate(-102.28 431.58) rotate(-89.89)"/><ellipse class="cls-6" cx="346.83" cy="267.43" rx="26.71" ry="33.54" transform="translate(78.7 613.72) rotate(-89.89)"/><path d="M122.41,165.22a12.42,12.42,0,0,0-22,3.11c-8.78,26.46-25.59,93.36,8.1,143.22a7.5,7.5,0,0,0,12.43-8.39c-28.17-41.7-16.08-98.47-7.81-125.34a59.92,59.92,0,0,0,94.67-2.55,59.69,59.69,0,0,0,48.13,24.28H256a59.69,59.69,0,0,0,48.12-24.28,59.91,59.91,0,0,0,94.67,2.54c22.48,72.1,1.05,113.14-9.39,127.62C366,337.9,321.12,354.38,256,354.4h-.08c-52.48,0-92-10.79-117.55-32a7.5,7.5,0,1,0-9.6,11.53c28.29,23.55,71.07,35.5,127.19,35.51H256c70.17,0,119.13-18.59,145.53-55.19,36.09-50,19-118.68,9.94-145.87a12.4,12.4,0,0,0-22-3.12A44.92,44.92,0,0,1,314.6,164a12.4,12.4,0,0,0-10.44-5.73h0A12.41,12.41,0,0,0,293.7,164,44.78,44.78,0,0,1,256,184.55h-.08A44.81,44.81,0,0,1,218.21,164a12.38,12.38,0,0,0-10.43-5.69h0A12.37,12.37,0,0,0,197.32,164a44.92,44.92,0,0,1-74.91,1.19Z"/><path d="M192.48,247.2V233.57a7.5,7.5,0,0,0-15,0V247.2a7.5,7.5,0,0,0,15,0Z"/><path d="M334.33,247.2V233.57a7.5,7.5,0,0,0-15,0V247.2a7.5,7.5,0,0,0,15,0Z"/><path d="M256.11,272.69a23.9,23.9,0,0,0,40.34-17.37,7.5,7.5,0,0,0-15,0,8.92,8.92,0,0,1-17.84,0,7.5,7.5,0,0,0-15,0,8.92,8.92,0,0,1-17.84,0,7.5,7.5,0,0,0-15,0,23.9,23.9,0,0,0,40.34,17.37Z"/><path d="M34,144a84,84,0,0,0,.29,34.11,84.64,84.64,0,0,0,0,116.62,84.64,84.64,0,0,0,59.8,99.14,84.62,84.62,0,0,0,103,55.11,84.73,84.73,0,0,0,117.84,0,84.62,84.62,0,0,0,103-55.11,84.64,84.64,0,0,0,59.8-99.14,84.64,84.64,0,0,0,0-116.62A84,84,0,0,0,478,144a69.95,69.95,0,0,0,24.31-95.5h0A69.7,69.7,0,0,0,462.15,17a7.5,7.5,0,0,0-4.3,14.37,54.7,54.7,0,0,1,24.73,15.53c-21.84,5-39.85,17.11-52.1,36.74A86.69,86.69,0,0,0,417.92,79c-.46-1.43-1-2.83-1.51-4.21v0a84,84,0,0,0-16.32-26.39A55.56,55.56,0,0,1,431.47,30a7.5,7.5,0,1,0-2.88-14.72,70.61,70.61,0,0,0-39.56,23,84.25,84.25,0,0,0-74.11-14.39,84.72,84.72,0,0,0-117.84,0,83.93,83.93,0,0,0-62.48,6.9A86.16,86.16,0,0,0,123,38.22,70,70,0,0,0,9.68,48.47h0A69.95,69.95,0,0,0,34,144ZM496,94.41A54.46,54.46,0,0,1,473.56,129a85.93,85.93,0,0,0-6.14-12.34,84.28,84.28,0,0,0-23.88-25.65c10.69-16.79,27.79-27.64,48.13-30.68a55,55,0,0,1,4.33,34ZM141.67,44a69.07,69.07,0,0,1,53.71-5l1.56.49c5.71,1.8,8.69-3.34,9.85-4.14a69.72,69.72,0,0,1,98.42,0c1.1.76,4.19,5.92,9.85,4.14.77-.09,27-10.61,55.27,4.51A69.54,69.54,0,0,1,403.1,82c1,2.82,1.4,4.38,1.68,5.3a7.6,7.6,0,0,0,5.59,5.22,70.33,70.33,0,0,1,19.33,7.55h0a69.75,69.75,0,0,1,32.5,78.41c-1.34,5,2.62,7.81,2.8,8.09a69.63,69.63,0,0,1,0,99.69c-.17.26-4.14,3.1-2.8,8.09a69.62,69.62,0,0,1-51.85,86c-5.21,1.16-5.78,6.28-6,6.67a69.63,69.63,0,0,1-87.74,46.85c-.48,0-5.22-2.52-9.11,1.36l-2.3,2.3a69.73,69.73,0,0,1-98.42,0c-1.33-1.06-4.29-5.9-9.85-4.15-.74.09-27,10.62-55.27-4.5a69.1,69.1,0,0,1-34-41.87c-.21-.39-.76-5.4-5.89-6.64l-.1,0a69.62,69.62,0,0,1-51.85-86c1.34-5-2.62-7.82-2.8-8.09a69.64,69.64,0,0,1,0-99.7c.17-.26,4.14-3.1,2.8-8.08a69.74,69.74,0,0,1,32.5-78.41,74.41,74.41,0,0,1,20.3-7.83,7.54,7.54,0,0,0,4.62-4.94A70.54,70.54,0,0,1,127,54.51,67.68,67.68,0,0,1,141.67,44ZM59.6,30a55,55,0,0,1,52.32,18.36A84.1,84.1,0,0,0,94.08,79a88.64,88.64,0,0,0-12.57,4.63C69.91,65,52.61,52.21,29.43,46.85A55.07,55.07,0,0,1,59.6,30ZM20.33,60.37c20,3,37.08,13.35,48.13,30.68a85.24,85.24,0,0,0-30,38A55,55,0,0,1,20.33,60.37Z"/></g></g></svg>