<svg xmlns="http://www.w3.org/2000/svg" viewBox="0 0 510.27 512"><defs><style>.cls-1{fill:#f1b986;}.cls-2{fill:#f1d0a5;}.cls-3{fill:#f9f6f9;}.cls-4{fill:#e2dfe2;}</style></defs><g id="Layer_2" data-name="Layer 2"><g id="Layer_1-2" data-name="Layer 1"><path class="cls-1" d="M425.51,193.7l77.26,87.67s-48.87,34.37-102.07,0H109.57c-53.2,34.37-102.07,0-102.07,0L84.76,193.7"/><path class="cls-2" d="M409.27,253.56a154.14,154.14,0,1,0-288.35,75.82,136.14,136.14,0,0,1,18,62.72,115.81,115.81,0,0,0,34,78.52c45.17,45.17,119.2,45.17,164.37,0a115.77,115.77,0,0,0,34-78.53,132.38,132.38,0,0,1,17.56-61.83,153.48,153.48,0,0,0,20.41-76.7Z"/><path class="cls-1" d="M255.14,504.5A115.9,115.9,0,0,1,139,392.1a136.31,136.31,0,0,0-18.06-62.72A154.16,154.16,0,0,1,254.1,99.43h.59c-36.84.55-66.24,69.44-66.09,154.76.05,27.33,3.17,53,8.6,75.19A282.9,282.9,0,0,1,205,392.1c.38,28.51,5.27,56.76,14.66,78.53C229.41,493.21,242.27,504.5,255.14,504.5Z"/><path class="cls-3" d="M222.36,260.13a39.8,39.8,0,0,1-30.2-18.71,39.87,39.87,0,0,1-61.5-21.1,39.88,39.88,0,0,1-52.14-47.75,39.88,39.88,0,0,1-.2-76.94,39.87,39.87,0,0,1,52-48,39.87,39.87,0,0,1,61.48-21.2,39.87,39.87,0,0,1,63.06-6.27,39.87,39.87,0,0,1,63.06,6.16,39.87,39.87,0,0,1,61.51,21,39.87,39.87,0,0,1,52.2,47.64,39.89,39.89,0,0,1,29.6,38.25v.61a39.89,39.89,0,0,1-29.39,38.47,39.88,39.88,0,0,1-52.07,47.86,39.88,39.88,0,0,1-61.5,21.15,39.86,39.86,0,0,1-63,6.22,39.8,39.8,0,0,1-29.12,12.69c-1.24,0-2.5-.06-3.75-.17Z"/><path class="cls-4" d="M240.62,249.17a46.1,46.1,0,0,1-9.49-18.32,36.26,36.26,0,0,1-13.64,2.68A37.1,37.1,0,0,1,192.87,224c-10-8.81-15.22-21.9-15.22-35.12A49.49,49.49,0,0,1,179,177.37a39.91,39.91,0,0,1-21.07-15.67,47.91,47.91,0,0,1-8.42-27.29v-.17c0-20.55,12.4-37.86,29.28-43.06a49.63,49.63,0,0,1-1.39-11.69c0-13.17,5.19-26.23,15.12-35a37.15,37.15,0,0,1,24.73-9.65,36.32,36.32,0,0,1,13.55,2.65,46.15,46.15,0,0,1,9.46-18.33,40.93,40.93,0,0,1,6-5.76,39.82,39.82,0,0,0-20.48-5.68c-1.25,0-2.51.06-3.79.18a39.67,39.67,0,0,0-17.56,6,40.08,40.08,0,0,0-12.62,12.77,39.85,39.85,0,0,0-61.48,21.19,40.23,40.23,0,0,0-13.56-2.36A39.89,39.89,0,0,0,78.32,95.78,39.86,39.86,0,0,0,49,134.21v.15a39.88,39.88,0,0,0,29.48,38.36A40.18,40.18,0,0,0,77.19,183,39.86,39.86,0,0,0,117,222.86a40.24,40.24,0,0,0,13.65-2.39,39.85,39.85,0,0,0,61.5,21.1,39.8,39.8,0,0,0,30.2,18.71c1.25.11,2.51.17,3.75.17a39.83,39.83,0,0,0,20.39-5.64,40.21,40.21,0,0,1-5.88-5.64Z"/><path d="M192.54,304.24c0-18.66-10.16-33.84-22.65-33.84s-22.65,15.18-22.65,33.84,10.16,33.85,22.65,33.85S192.54,322.9,192.54,304.24Z"/><path d="M363,304.24c0-18.66-10.16-33.84-22.65-33.84s-22.64,15.18-22.64,33.84,10.15,33.85,22.64,33.85S363,322.9,363,304.24Z"/><path d="M508.4,276.41l-69.91-79.32a47.14,47.14,0,0,0,1.91-19.81,47.83,47.83,0,0,0,18.41-14.37,46.93,46.93,0,0,0,9.93-29v-.66a46.84,46.84,0,0,0-10.11-28.9A47.81,47.81,0,0,0,440.17,90.1,47.4,47.4,0,0,0,436.11,65a7.5,7.5,0,0,0-13.63,6.26,32.35,32.35,0,0,1,1.9,21.85,7.5,7.5,0,0,0,5.33,9.16,32.5,32.5,0,0,1,17.13,11.32,32,32,0,0,1,6.9,19.68v.61a32,32,0,0,1-6.78,19.8,32.5,32.5,0,0,1-17.08,11.43,7.49,7.49,0,0,0-5.27,9.2,32.38,32.38,0,0,1-42.29,38.84,7.5,7.5,0,0,0-9.74,4.94,32.37,32.37,0,0,1-49.94,17.17,7.52,7.52,0,0,0-10.74,2.14,32.92,32.92,0,0,1-10.24,10.37,32.19,32.19,0,0,1-14.27,4.84c-1.05.1-2.05.15-3.07.15a32.41,32.41,0,0,1-23.61-10.29,7.51,7.51,0,0,0-11,0,32.28,32.28,0,0,1-10.6,7.55,31.91,31.91,0,0,1-13,2.75c-1,0-2-.05-3.06-.14a32.11,32.11,0,0,1-24.51-15.19,7.49,7.49,0,0,0-10.74-2.15,32.34,32.34,0,0,1-49.94-17.13,7.52,7.52,0,0,0-3.81-4.56,7.43,7.43,0,0,0-5.93-.36A32.64,32.64,0,0,1,117,215.21a32.38,32.38,0,0,1-32.33-32.38,32.31,32.31,0,0,1,1.09-8.32,7.5,7.5,0,0,0-5.3-9.18A32.59,32.59,0,0,1,63.36,154a32,32,0,0,1-6.83-19.74v-.15A32.43,32.43,0,0,1,80.3,102.86a7.5,7.5,0,0,0,5.25-9.19,32.38,32.38,0,0,1,42.23-38.95,7.5,7.5,0,0,0,9.74-4.95,32.6,32.6,0,0,1,7.68-13.28,32.36,32.36,0,0,1,42.25-3.92,7.5,7.5,0,0,0,10.74-2.16A32.92,32.92,0,0,1,208.43,20a32,32,0,0,1,14.26-4.85c1-.1,2.06-.15,3.07-.15a32.45,32.45,0,0,1,23.62,10.28,7.49,7.49,0,0,0,5.48,2.38h0a7.51,7.51,0,0,0,5.49-2.38A32.47,32.47,0,0,1,284,15a29.09,29.09,0,0,1,3,.14A32.09,32.09,0,0,1,301.3,20a32.44,32.44,0,0,1,10.25,10.34,7.5,7.5,0,0,0,10.76,2.14,32.36,32.36,0,0,1,49.94,17.1A7.5,7.5,0,0,0,382,54.46a32.41,32.41,0,0,1,11.13-2,31.91,31.91,0,0,1,13.3,2.87,7.5,7.5,0,1,0,6.23-13.64,46.66,46.66,0,0,0-19.53-4.23,48.36,48.36,0,0,0-9.16.88,47.39,47.39,0,0,0-42.77-27,47,47,0,0,0-21.31,5.06A47.19,47.19,0,0,0,288.44.2C287,.07,285.54,0,284,0a47.53,47.53,0,0,0-29.16,10.07,47.38,47.38,0,0,0-54.46-2.7,48.12,48.12,0,0,0-10.57,9.16,46.94,46.94,0,0,0-21.22-5,47.31,47.31,0,0,0-42.85,27.15,48.1,48.1,0,0,0-9-.85,47.44,47.44,0,0,0-47,52.94,47.5,47.5,0,0,0-28.21,43.33v.18a46.8,46.8,0,0,0,10,28.95A47.84,47.84,0,0,0,70,177.5a49.67,49.67,0,0,0-.29,5.33A47.58,47.58,0,0,0,71.85,197l-70,79.4A7.5,7.5,0,0,0,3.18,287.5a102.5,102.5,0,0,0,31.69,13.58,101,101,0,0,0,24.47,3.05A97.1,97.1,0,0,0,99,295.62a160.31,160.31,0,0,0,15.36,37.46,129.37,129.37,0,0,1,17.09,59.25,123,123,0,0,0,10.14,45.37,7.5,7.5,0,1,0,13.76-6,108,108,0,0,1-8.91-39.86,144.31,144.31,0,0,0-19-66.18,145.71,145.71,0,0,1-16-42.53,149.07,149.07,0,0,1-1.08-53.4,48.43,48.43,0,0,0,6.62.46,46.91,46.91,0,0,0,9.09-.88,47.16,47.16,0,0,0,28.31,24.81,47.26,47.26,0,0,0,35.76-2.77A46.93,46.93,0,0,0,221.7,267.6c1.51.13,3,.2,4.41.2a47.38,47.38,0,0,0,29.13-10,47.44,47.44,0,0,0,29.09,10c1.47,0,3-.07,4.47-.22a47.12,47.12,0,0,0,31.45-16.25,47.37,47.37,0,0,0,55.46-9.54,47.54,47.54,0,0,0,8.63-12.53,47.31,47.31,0,0,0,15.49.41,147.38,147.38,0,0,1-1.05,53.48,145.43,145.43,0,0,1-16.43,43.38,140.4,140.4,0,0,0-18.54,65.33A108.4,108.4,0,0,1,262.64,496.74V465.28l30-30A7.5,7.5,0,0,0,282,424.66l-26.9,26.91-26.91-26.91a7.5,7.5,0,0,0-10.61,10.61l30,30v31.46a107.72,107.72,0,0,1-69.39-31.41,109,109,0,0,1-9.75-11.18,7.5,7.5,0,0,0-11.95,9.08,125,125,0,0,0,11.09,12.7,123.73,123.73,0,0,0,211.16-83.6A125.28,125.28,0,0,1,395.36,334a160.41,160.41,0,0,0,15.88-38.39,97,97,0,0,0,39.7,8.52,100.91,100.91,0,0,0,24.46-3.05,102.5,102.5,0,0,0,31.69-13.58,7.5,7.5,0,0,0,1.31-11.09ZM95.76,280.58A81.78,81.78,0,0,1,39,286.66a95.57,95.57,0,0,1-19.82-7.23l60-68.09A47.64,47.64,0,0,0,96,225.27a163.18,163.18,0,0,0-.2,55.31Zm375.48,6.08a81.76,81.76,0,0,1-56.74-6.09,161.34,161.34,0,0,0-.22-55.32,48.36,48.36,0,0,0,8.41-5.32,47.88,47.88,0,0,0,8.4-8.56l60,68.06a95.57,95.57,0,0,1-19.82,7.23Z"/></g></g></svg>