<svg xmlns="http://www.w3.org/2000/svg" viewBox="0 0 512 498.11"><defs><style>.cls-1{fill:#999;}.cls-2{fill:#ccc;}.cls-3{fill:#f2f2f2;}.cls-4{fill:#e6e6e6;}.cls-5{fill:gray;}</style></defs><g id="Layer_2" data-name="Layer 2"><g id="Layer_1-2" data-name="Layer 1"><path class="cls-1" d="M119.9,215.32l-15.18,44.49L94.63,289.37C58.54,325.47,8.17,324.1,8.17,324.1c9.1-41,28.49-66.55,48.59-82.49C87.49,217.22,119.9,215.32,119.9,215.32Z"/><path class="cls-2" d="M503.63,324.1s-50.36,1.37-86.46-34.73l-10.08-29.52L391.9,215.32s32.34,1.89,63,26.19C475.08,257.45,494.51,283.05,503.63,324.1Z"/><path class="cls-3" d="M407.67,253.53c8.19,24.44,12.73,49.18,12.73,71.72a164.6,164.6,0,0,1-329.2,0c0-22.54,4.54-47.28,12.74-71.72a286.66,286.66,0,0,1,17-40.16V160.53l102.56-44.68L321.09,99.3l79.45,46.89,8.85,5.22L422,158.87l-31.35,54.46A290.22,290.22,0,0,1,407.67,253.53Z"/><path class="cls-4" d="M129.27,325.25c0-23.81,5-50.07,14.15-75.86A267,267,0,0,0,159,160.65v-.12l102.57-44.68,68.06-11.54-8.49-5-97.63,16.55L120.89,160.53v52.83c-18.71,36.39-29.68,76.8-29.68,111.89A164.62,164.62,0,0,0,274.83,488.74,164.6,164.6,0,0,1,129.27,325.25Z"/><path class="cls-5" d="M56.76,241.61c30.73-24.39,63.14-26.29,63.14-26.29l-15.18,44.49a52,52,0,0,1-8.15.64A51.32,51.32,0,0,1,56.76,241.61Z"/><path class="cls-4" d="M390.69,213.33a290.22,290.22,0,0,1,17,40.2,51.54,51.54,0,0,1-40-30.74,38.27,38.27,0,0,1-8.48,1,38.82,38.82,0,0,1-34-20.06,26.46,26.46,0,0,1-13.31-1.3,65.48,65.48,0,0,1-112.12.13A26.38,26.38,0,0,1,191,204a25.33,25.33,0,0,1-4.55-.41,38.82,38.82,0,0,1-34,20.14,38.27,38.27,0,0,1-8.48-1,51.54,51.54,0,0,1-40,30.74,286.72,286.72,0,0,1,17-40.16V160.53l102.56-44.68L321.09,99.3l79.45,46.89a50.92,50.92,0,0,1-3.77,8.25,51.48,51.48,0,0,1,12.62-3L422,158.87Z"/><path class="cls-1" d="M454.93,241.51A51.38,51.38,0,0,1,415,260.45a53.42,53.42,0,0,1-8-.6L391.9,215.32S424.24,217.21,454.93,241.51Z"/><path class="cls-4" d="M415,116.5a51.48,51.48,0,0,0-18.27,3.34,51.48,51.48,0,0,0-76-66.31,69.27,69.27,0,0,0-129.94,0,51.48,51.48,0,0,0-76,66.31,51.48,51.48,0,1,0,29.09,68.36,39.49,39.49,0,0,0,8.48.94,38.82,38.82,0,0,0,34-20.13,26.32,26.32,0,0,0,13.33-1.1,65.49,65.49,0,0,0,112.13-.13,26.46,26.46,0,0,0,13.31,1.3,38.82,38.82,0,0,0,34,20.06,39.42,39.42,0,0,0,8.48-.94A51.49,51.49,0,1,0,415,116.5Z"/><path class="cls-2" d="M201.27,52.28a34.36,34.36,0,0,0,33.12-11.22,69.1,69.1,0,0,1,52.85-24.51c.49,0,1,0,1.45,0a69.28,69.28,0,0,0-97,34.69A51.91,51.91,0,0,1,201.27,52.28Z"/><path class="cls-2" d="M76.57,174.16a51.67,51.67,0,0,1,48.81-49.32c.45,0,.89,0,1.34,0A13.8,13.8,0,0,0,140,109.19a52.81,52.81,0,0,1-.4-6.45,51.47,51.47,0,0,1,48.2-51.36,51.47,51.47,0,0,0-72.95,68.46,51.48,51.48,0,1,0-18.27,99.62c1.11,0,2.21-.05,3.3-.11A51.42,51.42,0,0,1,76.57,174.16Z"/><path d="M215.83,314.89v-23a8.28,8.28,0,1,0-16.55,0v23a8.28,8.28,0,0,0,16.55,0Z"/><path d="M312.52,314.89v-23a8.28,8.28,0,1,0-16.55,0v23a8.28,8.28,0,0,0,16.55,0Z"/><path d="M511.8,322.3c-12.55-56.47-44.17-84.81-68.48-98.63-1-.55-1.92-1.07-2.88-1.58a59.74,59.74,0,0,0-25.31-113.87c-1.65,0-3.31.07-4.95.2a59.94,59.94,0,0,0,1.66-14,8.28,8.28,0,1,0-16.55,0,43.26,43.26,0,0,1-5.62,21.29,8.27,8.27,0,0,0,10.13,11.82,43.2,43.2,0,1,1-24.41,57.36,8.28,8.28,0,0,0-9.41-4.82,30.94,30.94,0,0,1-6.68.74,30.62,30.62,0,0,1-26.76-15.79,8.26,8.26,0,0,0-8.54-4.16,18.05,18.05,0,0,1-9.12-.89,8.27,8.27,0,0,0-10,3.48,57.21,57.21,0,0,1-98,.11,8.29,8.29,0,0,0-9.84-3.51,17.88,17.88,0,0,1-9.15.76,8.26,8.26,0,0,0-8.67,4.15,30.49,30.49,0,0,1-33.47,15.1,8.29,8.29,0,0,0-9.41,4.83A43.21,43.21,0,1,1,112,127.58a8.27,8.27,0,0,0,10.13-11.82A43.21,43.21,0,0,1,185.91,60.1a8.27,8.27,0,0,0,12.78-3.71,61,61,0,0,1,114.42,0,8.27,8.27,0,0,0,12.78,3.71,43.22,43.22,0,0,1,60.44,8A8.27,8.27,0,0,0,399.44,58a59.82,59.82,0,0,0-74.93-16.59,77.53,77.53,0,0,0-137.22,0,59.79,59.79,0,0,0-87.33,53,60,60,0,0,0,1.66,14c-1.64-.13-3.29-.2-5-.2A59.74,59.74,0,0,0,71.48,222.14c-.93.5-1.86,1-2.8,1.52C44.37,237.49,12.75,265.83.2,322.3a8.27,8.27,0,0,0,7.85,10.06c.11,0,.46,0,1,0a142.87,142.87,0,0,0,60.51-14.9,8.27,8.27,0,1,0-7.44-14.78,128.5,128.5,0,0,1-43.07,12.49c10-34.83,29.17-60.63,57.15-76.77a120.6,120.6,0,0,1,25.17-10.89c1.34-.1,2.66-.25,4-.44C91.06,260.07,83,295,83,325.24c0,5.71.28,11.46.84,17.1a8.28,8.28,0,0,0,8.22,7.47c.27,0,.55,0,.82,0a8.29,8.29,0,0,0,7.43-9c-.51-5.11-.76-10.31-.76-15.48,0-32.48,10.1-71,27.71-106a59.61,59.61,0,0,0,21.47-22c1.25.1,2.5.15,3.74.15a47.12,47.12,0,0,0,38.33-19.72,35.59,35.59,0,0,0,5.36-.37,73.76,73.76,0,0,0,119.46-.06,34.92,34.92,0,0,0,5.32.43A47.14,47.14,0,0,0,359.3,197.4c1.24,0,2.49-.05,3.74-.15a59.79,59.79,0,0,0,21.49,22.06c17.61,35,27.7,73.46,27.7,105.93,0,86.2-70.13,156.32-156.32,156.32a155,155,0,0,1-94.44-31.74,157.5,157.5,0,0,1-55.54-80.33,8.27,8.27,0,1,0-15.87,4.68A174.16,174.16,0,0,0,151.46,463a171.34,171.34,0,0,0,104.45,35.11c95.32,0,172.86-77.55,172.86-172.87,0-5.28-.25-10.7-.72-16.23,32.38,22.22,67.93,23.37,74.79,23.37.59,0,1,0,1.11,0a8.27,8.27,0,0,0,7.85-10.06ZM424.62,285a284.14,284.14,0,0,0-18.16-57.88c1.39.21,2.8.36,4.22.47a120.32,120.32,0,0,1,25.1,10.86c28,16.14,47.17,41.93,57.15,76.76C477.43,313.46,447.88,307.26,424.62,285Z"/><circle cx="282.22" cy="423.39" r="8.28"/><circle cx="229.58" cy="423.39" r="8.28"/></g></g></svg>