<svg xmlns="http://www.w3.org/2000/svg" viewBox="0 0 512 512"><defs><style>.cls-1{fill:#acabb1;}.cls-2{fill:#e0e0e2;}.cls-3{fill:#787680;}.cls-4{fill:#c5ce55;}.cls-5{font-size:96px;fill:#e6e7e8;stroke:#787680;stroke-miterlimit:10;stroke-width:6px;font-family:Impact;}</style></defs><g id="Layer_2" data-name="Layer 2"><g id="Layer_1-2" data-name="Layer 1"><g id="ic-chip-electronics"><path class="cls-1" d="M392.53,409.6h85.34v17.07L460.8,443.73H409.6l-17.07-17.06Z"/><path class="cls-2" d="M409.6,443.73h51.2V486.4l-17.07,17.07H426.67L409.6,486.4Z"/><path class="cls-3" d="M392.53,409.6V384h85.34v25.6Z"/><path class="cls-1" d="M153.6,409.6h85.33v17.07l-17.06,17.06h-51.2L153.6,426.67Z"/><path class="cls-2" d="M290.13,443.73h51.2V486.4l-17.06,17.07H307.2L290.13,486.4Z"/><path class="cls-1" d="M273.07,409.6H358.4v17.07l-17.07,17.06h-51.2l-17.06-17.06Z"/><path class="cls-3" d="M273.07,409.6V384H358.4v25.6Z"/><path class="cls-3" d="M153.6,409.6V384h85.33v25.6Z"/><path class="cls-2" d="M170.67,443.73h51.2V486.4L204.8,503.47H187.73L170.67,486.4Z"/><path class="cls-2" d="M17.07,384a8.53,8.53,0,0,1-8.54-8.53V358.4H503.47v17.07a8.53,8.53,0,0,1-8.54,8.53Z"/><path class="cls-1" d="M34.13,409.6h85.34v17.07L102.4,443.73H51.2L34.13,426.67Z"/><path class="cls-2" d="M51.2,443.73h51.2V486.4L85.33,503.47H68.27L51.2,486.4Z"/><path class="cls-3" d="M34.13,409.6V384h85.34v25.6Z"/><path class="cls-3" d="M392.53,128V102.4h85.34V128Z"/><path class="cls-2" d="M426.67,8.53h17.06L460.8,25.6V68.27H409.6V25.6Z"/><path class="cls-1" d="M409.6,68.27h51.2l17.07,17.06V102.4H392.53V85.33Z"/><path class="cls-3" d="M273.07,128V102.4H358.4V128Z"/><path class="cls-2" d="M307.2,8.53h17.07L341.33,25.6V68.27h-51.2V25.6Z"/><path class="cls-1" d="M290.13,68.27h51.2L358.4,85.33V102.4H273.07V85.33Z"/><path class="cls-3" d="M34.13,128V102.4h85.34V128Z"/><path class="cls-1" d="M170.67,68.27h51.2l17.06,17.06V102.4H153.6V85.33Z"/><path class="cls-2" d="M187.73,8.53H204.8L221.87,25.6V68.27h-51.2V25.6Z"/><path class="cls-3" d="M153.6,128V102.4h85.33V128Z"/><path class="cls-2" d="M34.13,128h460.8a8.53,8.53,0,0,1,8.54,8.53V153.6H8.53V136.53A8.53,8.53,0,0,1,17.07,128Z"/><path class="cls-2" d="M68.27,8.53H85.33L102.4,25.6V68.27H51.2V25.6Z"/><path class="cls-1" d="M51.2,68.27h51.2l17.07,17.06V102.4H34.13V85.33Z"/><path class="cls-2" d="M486.4,221.87h17.07v68.26H486.4a34.13,34.13,0,0,1,0-68.26Z"/><path class="cls-4" d="M8.53,153.6H503.47v68.27H486.4a34.13,34.13,0,0,0,0,68.26h17.07V358.4H8.53V290.13H25.6a34.13,34.13,0,0,0,0-68.26H8.53Z"/><path class="cls-2" d="M8.53,221.87H25.6a34.13,34.13,0,0,1,0,68.26H8.53Z"/><path d="M128,85.33a8.85,8.85,0,0,0-2.47-6.06l-14.6-14.5V25.6a8.8,8.8,0,0,0-2.47-6.06L91.39,2.47A8.83,8.83,0,0,0,85.33,0H68.27a8.83,8.83,0,0,0-6.06,2.47L45.14,19.54a8.8,8.8,0,0,0-2.47,6.06V64.77l-14.6,14.5a8.85,8.85,0,0,0-2.47,6.06v34.14H17.07A17.11,17.11,0,0,0,0,136.53V375.47a17.11,17.11,0,0,0,17.07,17.06H25.6v34.14a8.85,8.85,0,0,0,2.47,6.06l14.6,14.5V486.4a8.8,8.8,0,0,0,2.47,6.06l17.07,17.07A8.83,8.83,0,0,0,68.27,512H85.33a8.83,8.83,0,0,0,6.06-2.47l17.07-17.07a8.8,8.8,0,0,0,2.47-6.06V447.23l14.6-14.5a8.85,8.85,0,0,0,2.47-6.06V392.53h17.07v34.14a8.8,8.8,0,0,0,2.47,6.06l14.59,14.5V486.4a8.86,8.86,0,0,0,2.48,6.06l17.06,17.07a8.85,8.85,0,0,0,6.06,2.47H204.8a8.85,8.85,0,0,0,6.06-2.47l17.07-17.07a8.85,8.85,0,0,0,2.47-6.06V447.23L245,432.73a8.86,8.86,0,0,0,2.48-6.06V392.53h17.06v34.14a8.86,8.86,0,0,0,2.48,6.06l14.59,14.5V486.4a8.85,8.85,0,0,0,2.47,6.06l17.07,17.07A8.85,8.85,0,0,0,307.2,512h17.07a8.85,8.85,0,0,0,6.06-2.47l17.06-17.07a8.86,8.86,0,0,0,2.48-6.06V447.23l14.59-14.5a8.8,8.8,0,0,0,2.47-6.06V392.53H384v34.14a8.85,8.85,0,0,0,2.47,6.06l14.6,14.5V486.4a8.8,8.8,0,0,0,2.47,6.06l17.07,17.07a8.83,8.83,0,0,0,6.06,2.47h17.06a8.83,8.83,0,0,0,6.06-2.47l17.07-17.07a8.8,8.8,0,0,0,2.47-6.06V447.23l14.6-14.5a8.85,8.85,0,0,0,2.47-6.06V392.53h8.53A17.11,17.11,0,0,0,512,375.47V136.53a17.11,17.11,0,0,0-17.07-17.06H486.4V85.33a8.85,8.85,0,0,0-2.47-6.06l-14.6-14.5V25.6a8.8,8.8,0,0,0-2.47-6.06L449.79,2.47A8.83,8.83,0,0,0,443.73,0H426.67a8.83,8.83,0,0,0-6.06,2.47L403.54,19.54a8.8,8.8,0,0,0-2.47,6.06V64.77l-14.6,14.5A8.85,8.85,0,0,0,384,85.33v34.14H366.93V85.33a8.8,8.8,0,0,0-2.47-6.06l-14.59-14.5V25.6a8.86,8.86,0,0,0-2.48-6.06L330.33,2.47A8.85,8.85,0,0,0,324.27,0H307.2a8.85,8.85,0,0,0-6.06,2.47L284.07,19.54a8.85,8.85,0,0,0-2.47,6.06V64.77L267,79.27a8.86,8.86,0,0,0-2.48,6.06v34.14H247.47V85.33A8.86,8.86,0,0,0,245,79.27L230.4,64.77V25.6a8.85,8.85,0,0,0-2.47-6.06L210.86,2.47A8.85,8.85,0,0,0,204.8,0H187.73a8.85,8.85,0,0,0-6.06,2.47L164.61,19.54a8.86,8.86,0,0,0-2.48,6.06V64.77l-14.59,14.5a8.8,8.8,0,0,0-2.47,6.06v34.14H128ZM59.73,59.73V29.1l12-12H81.83l12,12V59.73ZM42.67,93.87v-5l12-12H98.9l12,12v5Zm0,25.6v-8.54h68.26v8.54Zm51.2,332.8V482.9l-12,12H71.77l-12-12V452.27Zm17.06-34.14v5l-12,12H54.7l-12-12v-5Zm102.4,34.14V482.9l-12,12H191.23l-12-12V452.27Zm17.07-34.14v5l-12,12h-44.2l-12-12v-5Zm102.4,34.14V482.9l-12,12H310.7l-12-12V452.27Zm17.07-34.14v5l-12,12h-44.2l-12-12v-5Zm102.4,34.14V482.9l-12,12H430.17l-12-12V452.27Zm17.06-34.14v5l-12,12H413.1l-12-12v-5Zm0-25.6v8.54H401.07v-8.54Zm-119.46,0v8.54H281.6v-8.54Zm-119.47,0v8.54H162.13v-8.54Zm-119.47,0v8.54H42.67v-8.54Zm384-25.6v8.54H17.07v-8.54ZM17.07,281.6V230.4H25.6a25.6,25.6,0,0,1,0,51.2Zm477.86-51.2v51.2H486.4a25.6,25.6,0,1,1,0-51.2Zm0-68.27v51.2H486.4a42.67,42.67,0,1,0,0,85.34h8.53v51.2H17.07v-51.2H25.6a42.67,42.67,0,0,0,0-85.34H17.07v-51.2ZM273,136.53h222v8.54H17.07v-8.54Zm145.15-76.8V29.1l12-12h10.06l12,12V59.73ZM401.07,93.87v-5l12-12h44.2l12,12v5Zm0,17.06h68.26v8.54H401.07Zm-102.4-51.2V29.1l12-12h10.07l12,12V59.73ZM281.6,93.87v-5l12-12h44.2l12,12v5Zm0,17.06h68.27v8.54H281.6ZM179.2,59.73V29.1l12-12H201.3l12,12V59.73ZM162.13,93.87v-5l12-12h44.2l12,12v5Zm0,17.06H230.4v8.54H162.13Z"/></g><text class="cls-5" transform="translate(111.18 247.11)">System<tspan x="0" y="88">Verilog</tspan></text></g></g></svg>