<svg id="Layer_1" data-name="Layer 1" xmlns="http://www.w3.org/2000/svg" viewBox="0 0 104.73 66.47"><defs><style>.cls-1{fill:#70bf4f;}.cls-2{fill:#539554;}.cls-3{fill:#9ac865;}.cls-4{fill:#98c964;}.cls-5{fill:#72be4f;}.cls-6{fill:#95ca63;}.cls-7{fill:#fefefe;}.cls-8{fill:#9ac864;}.cls-9{fill:#98c963;}.cls-10{fill:#9ac767;}.cls-11{fill:#73bd52;}.cls-12{fill:#73be50;}.cls-13{fill:#3896f0;}.cls-13,.cls-15,.cls-16,.cls-17,.cls-18,.cls-19,.cls-20,.cls-21,.cls-22,.cls-23,.cls-29,.cls-30,.cls-31{stroke:#141f1f;stroke-width:0.25px;}.cls-13,.cls-14{stroke-miterlimit:10;}.cls-14{fill:none;stroke:#3896f0;}.cls-15,.cls-33{fill:#98643a;}.cls-15,.cls-16,.cls-17,.cls-18,.cls-19,.cls-20,.cls-21,.cls-22,.cls-23,.cls-29,.cls-30,.cls-31{stroke-linecap:round;stroke-linejoin:round;}.cls-16{fill:#262626;}.cls-17{fill:#432326;}.cls-18{fill:#e5eff2;}.cls-19{fill:#eff4f3;}.cls-20{fill:#eee;}.cls-21{fill:#eeeeec;}.cls-22{fill:#e24d5d;}.cls-23{fill:#fcca5c;}.cls-24{fill:#fcfbf6;}.cls-25{fill:#fcfbf5;}.cls-26{fill:#fcfaf1;}.cls-27{fill:#fcfaf2;}.cls-28{fill:#fcfaf3;}.cls-29{fill:#050306;}.cls-30{fill:#fbfbfb;}.cls-31{fill:#ededed;}.cls-32{fill:#98643b;}.cls-34{fill:#8c6848;}.cls-35{fill:#97643a;}</style></defs><path class="cls-1" d="M324.26,440.8q0,6.49,0,13c0,.3-.06.36-.36.36h-8.26a2.38,2.38,0,0,1-1.07-1c-.42-.65-.84-.74-1.44-.26-.35.28-.66.36-1,0a.28.28,0,0,0-.36-.08.35.35,0,0,0-.15.4c.05.32.2.65-.08.94H270a.6.6,0,0,1-.23-.66.49.49,0,0,0-.19-.52,1.18,1.18,0,0,1-.46-1.5,4.6,4.6,0,0,1,.67-1.54c.14-.16.08-.38.12-.58a30.05,30.05,0,0,0,1.87-4.5,3.74,3.74,0,0,0,.14-.93c0-.44.2-.73.7-.72.25,0,.31-.16.28-.37-.07-.38-.13-.76-.21-1.14,0-.16-.12-.28-.29-.28s-.27.11-.3.27a6.12,6.12,0,0,1-.24.76c-.05.11-.11.23-.24.23s-.24-.11-.28-.24a3.29,3.29,0,0,1-.06-1.76,9.5,9.5,0,0,1,1.37-.44,6.56,6.56,0,0,1,2.16-.2,1.82,1.82,0,0,0,.76-.23,7.63,7.63,0,0,1,3.88-.66,20.28,20.28,0,0,1,3.1.43.38.38,0,0,1,.18.09,1.13,1.13,0,0,1,.18.8,26.09,26.09,0,0,0,.1,3.19,7.13,7.13,0,0,0,.35,1.45c.22.62.63.72,1.14.32a4.16,4.16,0,0,0,1.52-2.62,18.44,18.44,0,0,0,.43-2.09.58.58,0,0,1,.19-.4,1.89,1.89,0,0,1,1.75.51c.1.9.12,1.82.23,2.73a3,3,0,0,0,.38,1.27,1.07,1.07,0,0,0,2-.05,10.62,10.62,0,0,0,.78-2.1.69.69,0,0,1,.93-.7,10.41,10.41,0,0,0,4-.29,1.2,1.2,0,0,1,.74-.09,8.21,8.21,0,0,0,2.32.24,1.15,1.15,0,0,1,.48.1c.32.21.29.54.31.85a32.59,32.59,0,0,0,.4,3.68c.05.29.13.58.18.88a.65.65,0,0,0,1.05.5,1.58,1.58,0,0,0,.58-.54A9.64,9.64,0,0,0,304,442.9a12.92,12.92,0,0,0,.12-1.64.64.64,0,0,1,.17-.51.53.53,0,0,1,.58,0c.24.17.21.43.23.68a5.84,5.84,0,0,0,.34,1.7c.12.3.28.58.66.59s.49-.29.63-.56a4.14,4.14,0,0,0,.33-1.14c.22-1,.34-2.06.46-3.1a.56.56,0,0,1,.64-.45,3.18,3.18,0,0,0,1.46.23c1.41.11,2.78.45,4.16.67.57.09,1.14.17,1.71.28a18.17,18.17,0,0,1,2.16.59,3,3,0,0,1,.73.29,5.62,5.62,0,0,0,2.81.71c.52,0,1-.33,1.48-.37S323.74,440.57,324.26,440.8Z" transform="translate(-245.71 -387.77)"/><path class="cls-1" d="M267.18,454.12h-.8c-.16-.2,0-.62-.38-.66s-.32.42-.48.63c0,.05,0,0,0,0-1.65,0-3.3,0-5,0-.3,0-.36-.06-.36-.36,0-3.62,0-7.24,0-10.86a.81.81,0,0,0,.55-.53,2.37,2.37,0,0,1,2.24-1.46c.34,0,.52-.26.78-.38a2.29,2.29,0,0,1,1.74-.12c.22.08.47,0,.66.18a.9.9,0,0,1,.06.8c-.1.41-.16.83-.25,1.24a2.3,2.3,0,0,0,.2.86c.26.5.21.66-.2,1.05s-.51.47-.2,1a4.72,4.72,0,0,1,.33,1.09c.15.6.53,1.11.65,1.72a7.63,7.63,0,0,0,1.54,3.2,2.33,2.33,0,0,1,.5,1.68c0,.1-.11.2-.2.21A3.26,3.26,0,0,0,267.18,454.12Z" transform="translate(-245.71 -387.77)"/><path class="cls-2" d="M268.67,453.33c0-1.2-1-1.89-1.37-2.88-.26-.67-.81-1.25-.71-2.05a.45.45,0,0,1,.58-.26,1.27,1.27,0,0,0,.9,0,.57.57,0,0,1,.62.22,1.59,1.59,0,0,0,.93.54c.19.05.41.09.37.38s.18.42,0,.57a5.36,5.36,0,0,0-.69,1.45,1.87,1.87,0,0,0,0,1.21c0,.15.15.16.27.17.4.07.48.35.39.67a1.29,1.29,0,0,0,0,.73h-1.1A.63.63,0,0,1,268.67,453.33Z" transform="translate(-245.71 -387.77)"/><path class="cls-3" d="M311.55,454.12a2.27,2.27,0,0,0-.11-.93c-.14-.26,0-.45.21-.59a.39.39,0,0,1,.58.07c.3.46.52.3.84,0a1,1,0,0,1,1.62.31c.24.46.68.73,1,1.14h-1.2c-.27-.15-.37-.57-.69-.58s-.45.4-.74.52c0,0,0,0-.07.06Z" transform="translate(-245.71 -387.77)"/><path class="cls-4" d="M268.67,453.33l.22.79h-1.71A1.55,1.55,0,0,1,268.67,453.33Z" transform="translate(-245.71 -387.77)"/><path class="cls-5" d="M313,454.12c.08-.35.39-.52.62-.75s.3-.1.43.05a1.24,1.24,0,0,1,.45.7Z" transform="translate(-245.71 -387.77)"/><path class="cls-6" d="M265.48,454.12c0-.2-.14-.41,0-.61a.53.53,0,0,1,.69-.23c.37.19.36.51.2.84Z" transform="translate(-245.71 -387.77)"/><path class="cls-7" d="M270,449.32a.73.73,0,0,0-.52-.24,1,1,0,0,1-.82-.46c-.22-.38-.51-.35-.85-.21-.09,0-.17.24-.28.09-.28-.39-.61-.21-.93-.1-.58-1-.66-2.14-1.22-3.12-.17-.3,0-.52.24-.71.66-.44.66-.45.28-1.12a1.07,1.07,0,0,1-.1-.72c.31-.45.73-.48,1,0a1.33,1.33,0,0,0,1,.82c.32.06.37.42.39.7a8.53,8.53,0,0,1,.48-1.15.76.76,0,0,1,1.11-.38.61.61,0,0,1,.17.24c0,.16.07.32.1.48a2.34,2.34,0,0,0,.14.55,2.13,2.13,0,0,1,.9-.6.73.73,0,0,1,1,.55c.13.6-.22,1.09-.39,1.62a17.53,17.53,0,0,1-1.44,3.47C270.17,449.13,270.14,449.27,270,449.32Z" transform="translate(-245.71 -387.77)"/><path class="cls-1" d="M300.26,442a4.92,4.92,0,0,0,1.95-.73,6.65,6.65,0,0,1,.75-.39,1.77,1.77,0,0,1,1.39-.1,15.35,15.35,0,0,1-.91,5.58,4.24,4.24,0,0,1-.67,1.17,1.21,1.21,0,0,1-.91.55c-.74,0-.77-.07-.95-.8A40.93,40.93,0,0,1,300.26,442Z" transform="translate(-245.71 -387.77)"/><path class="cls-1" d="M282.67,439.59c1.09,1,2.7.12,4.05.72-.17.87-.35,1.75-.54,2.62a4.52,4.52,0,0,1-1.53,2.62c-.66.54-1.26.38-1.52-.45a11.15,11.15,0,0,1-.45-3.2,17.78,17.78,0,0,0,0-2.19" transform="translate(-245.71 -387.77)"/><path class="cls-1" d="M288.3,440.78a28.94,28.94,0,0,0,3.72,1.34,8.17,8.17,0,0,1-1,2.9,1.25,1.25,0,0,1-2.22-.12,3.22,3.22,0,0,1-.4-1.32c-.07-.76-.14-1.52-.19-2.28C288.22,441.13,288.14,440.94,288.3,440.78Z" transform="translate(-245.71 -387.77)"/><path class="cls-1" d="M304.91,440.81a1.51,1.51,0,0,0,.91-.54,7.12,7.12,0,0,1,1.82-1.41c.21.36,0,.72,0,1.07a19.52,19.52,0,0,1-.48,2.75,2.83,2.83,0,0,1-.31.79.78.78,0,0,1-1.43,0,5,5,0,0,1-.43-1.83C304.93,441.35,304.92,441.08,304.91,440.81Z" transform="translate(-245.71 -387.77)"/><path class="cls-8" d="M272.94,452.44a3.67,3.67,0,0,0,.63-.88c.35-.58.8-.61,1.15,0s.48.83,1.07.84c.21,0,.32.22.3.45a.4.4,0,0,1-.38.4,1.2,1.2,0,0,1-1.24-.46c-.27-.35-.46-.35-.74.05-.55.79-.9.82-1.61.24a3.23,3.23,0,0,1-.15.47.42.42,0,0,1-.58.23.48.48,0,0,1-.38-.6q.28-1.26.6-2.52c.06-.24.19-.5.49-.48s.44.24.5.54a4.06,4.06,0,0,1,.09,1A1,1,0,0,0,272.94,452.44Z" transform="translate(-245.71 -387.77)"/><path class="cls-9" d="M316.25,445.8a.39.39,0,0,1,.11-.32,7.47,7.47,0,0,0,1.47-2.47c.14-.28.29-.43.6-.4a.46.46,0,0,1,.41.58c-.08.7.38,1,.88,1.24a5.73,5.73,0,0,1,1.72,1.41.34.34,0,0,1,0,.53.31.31,0,0,1-.48,0,4.93,4.93,0,0,0-2.06-1.45,1,1,0,0,1-.28-.2c-.54-.44-.54-.44-.85.22a5.47,5.47,0,0,0-.43,1.06c-.06.34-.4.36-.69.33S316.25,446.07,316.25,445.8Z" transform="translate(-245.71 -387.77)"/><path class="cls-8" d="M272.07,443.93a.9.9,0,0,0-1.48-.13l-.67.59c.17-.51-.22-.92-.11-1.38.06-.06.18.09.25-.15.15-.58.19-1.17.32-1.75a1.29,1.29,0,0,1,.91-.37c.21.52,0,1.1.2,1.62l.1.3a6.07,6.07,0,0,0,.3-1.09.42.42,0,0,1,.49-.44.47.47,0,0,1,.51.45,7.85,7.85,0,0,0,.22,1.27c.09.34-.1.62-.43.53C272.11,443.24,272.1,443.56,272.07,443.93Z" transform="translate(-245.71 -387.77)"/><path class="cls-9" d="M295,450.42c-.26,0-.4-.17-.57-.33s-.26-.22-.34,0-.41.57-.38,1a.54.54,0,0,1-.49.64,1,1,0,0,1-.86-.58c-.16-.26.07-.56.34-.68.56-.26.65-.81.9-1.27.14-.25.26-.53.59-.54a.72.72,0,0,1,.67.52,5.41,5.41,0,0,0,.46.64C295.54,450.12,295.4,450.41,295,450.42Z" transform="translate(-245.71 -387.77)"/><path class="cls-10" d="M269.69,442.8a.66.66,0,0,0-1,.42c-.23.53-.41,1.08-.64,1.69a1.7,1.7,0,0,1-.13-.8c0-.27-.13-.56-.43-.5-.48.09-.59-.19-.73-.53-.23-.61-.45-.68-1-.35,0-.72.33-1.38.29-2.1.2-.18.39-.42.72-.29s.26.41.3.66a1.82,1.82,0,0,0,.29.93c.24.19.21.51.33.76a2.24,2.24,0,0,0,.42.65,2.56,2.56,0,0,0,.22-1.13.71.71,0,0,1,.12-.47c.2-.39.55-.36.9-.29A1.45,1.45,0,0,1,269.69,442.8Z" transform="translate(-245.71 -387.77)"/><path class="cls-11" d="M269.69,442.8a7.77,7.77,0,0,1-.31-1.35l1-.34a2.41,2.41,0,0,1-.22,1.82c-.07.21-.19.23-.35.08Z" transform="translate(-245.71 -387.77)"/><path class="cls-12" d="M268.48,441.74a3.34,3.34,0,0,1-.11,1.66c0,.1-.06.24-.2.25s-.18-.08-.23-.16a3.06,3.06,0,0,1-.55-1.56C267.76,441.89,268.15,442,268.48,441.74Z" transform="translate(-245.71 -387.77)"/><path class="cls-13" d="M317,392.79a3.47,3.47,0,0,1-1.54,2.8,5.59,5.59,0,0,1-3.89,1.47,1.71,1.71,0,0,1-1.49-.77c-.22-.34-.38-.34-.57,0a1.82,1.82,0,0,1-1.41.89,20.19,20.19,0,0,1-2.65.48,4.4,4.4,0,0,1-3.66-1.16.47.47,0,0,0-.51-.13,5.83,5.83,0,0,1-2.39.06,3.13,3.13,0,0,1-2.6-3.64Z" transform="translate(-245.71 -387.77)"/><path class="cls-13" d="M317,392.79a3.49,3.49,0,0,0-1.54-2.81,5.63,5.63,0,0,0-3.89-1.47,1.73,1.73,0,0,0-1.49.77c-.22.34-.38.35-.57,0a1.84,1.84,0,0,0-1.41-.89,24.15,24.15,0,0,0-2.65-.48,4.4,4.4,0,0,0-3.66,1.17.46.46,0,0,1-.51.12,6,6,0,0,0-2.39-.05,3.13,3.13,0,0,0-2.6,3.64Z" transform="translate(-245.71 -387.77)"/><line class="cls-14" x1="50.66" y1="5.02" x2="71.13" y2="5.02"/><path class="cls-15" d="M283.41,438.41l-.06-.09a11.91,11.91,0,0,0-2-2,9.79,9.79,0,0,1-2.4-3.86,5.5,5.5,0,0,1-.44-1.39.41.41,0,0,0-.29-.34c-.17-.25-.1-.55-.16-.82a1,1,0,0,1,.12-.56,2.12,2.12,0,0,1,.67-.34,1.36,1.36,0,0,0,.89-1.75c-.24-1.07-.22-2.17-.49-3.24a3.61,3.61,0,0,1-.24-1.34,8.86,8.86,0,0,1,.44-.87.67.67,0,0,0,.09-.48,5.13,5.13,0,0,1,.88-1.33,1,1,0,0,0,.23-.87,1,1,0,0,1,.16-.48,3.48,3.48,0,0,0,.78-.59,22.42,22.42,0,0,1,2.47-1.63,33.94,33.94,0,0,1,4-2.33,19,19,0,0,1,5.63-.93,25.62,25.62,0,0,1,6.43.05,10.73,10.73,0,0,1,4.1,1.57,10.61,10.61,0,0,1,2,1.95c.7.76,1.49,1.43,2.23,2.16a8.45,8.45,0,0,1,2.28,3.46,1.83,1.83,0,0,1,.09.52c0,.27-.24.43-.4.62a1.72,1.72,0,0,0-.36,2,1.24,1.24,0,0,1,.05.74,2.86,2.86,0,0,0,1,2.79c.12.1.26.19.24.38a3.29,3.29,0,0,0-.3,1.57,11.37,11.37,0,0,1-.63,3.7,10.26,10.26,0,0,1-1.54,2.24,18.77,18.77,0,0,1-1.7,2,11.38,11.38,0,0,1-7,3c-1.29.14-2.59,0-3.87.13a20.6,20.6,0,0,1-4.64.19c-2.24-.32-4.56-1.6-6.67-2.39a3,3,0,0,1-1.1-.6A4.25,4.25,0,0,1,283.41,438.41Z" transform="translate(-245.71 -387.77)"/><path class="cls-16" d="M280.89,418.74l-.1.46a.86.86,0,0,0-.93.64.66.66,0,0,1-.24.28c-.41.19-.63.61-1,.85a2.69,2.69,0,0,1-1.14.52,2.29,2.29,0,0,0-.74.35l-.13.05c-.18,0-.36.15-.54,0l-1.29-.1a15.06,15.06,0,0,1-5.15-2.1,6.42,6.42,0,0,1-2.56-4.13,17,17,0,0,1,.57-9.6,9.75,9.75,0,0,1,1.13-2.26c.31.07.36.37.49.59s.34.68.53,1c.1.18.23.39.48.23s.11-.36,0-.53a12,12,0,0,1-1-1.39c-.1-.17-.26-.34-.13-.56a3.71,3.71,0,0,1,2.72-1.32c.05,0,.1,0,.14,0,1.39.52,3,.38,4.24,1.29.37.26.77.48,1.12.78,0,.25-.18.34-.33.46a2.87,2.87,0,0,1-.62.34c-.17.08-.25.21-.16.38s.25.18.41.11a4.79,4.79,0,0,0,.69-.49c.19-.13.33-.35.61-.29a13.89,13.89,0,0,1,3,4.52,9,9,0,0,1,1,4.54,14.13,14.13,0,0,1-1,4.58c-.05.17-.11.33,0,.48A.23.23,0,0,1,280.89,418.74Z" transform="translate(-245.71 -387.77)"/><path class="cls-17" d="M311.42,429.41a3,3,0,0,1-1.41-3.33.69.69,0,0,0,0-.51,1.8,1.8,0,0,1,.41-2.2,4.47,4.47,0,0,1,.42-.45c0-.23.22-.21.37-.27a2.88,2.88,0,0,1,2.87-.31,2.46,2.46,0,0,1,1.38,1.61,7.72,7.72,0,0,1-.17,4.44A2.28,2.28,0,0,1,312,429.7Z" transform="translate(-245.71 -387.77)"/><path class="cls-18" d="M269.15,403a7.78,7.78,0,0,0,1.28,1.84.56.56,0,0,1,.19.59.49.49,0,0,1-.43.33c-.26,0-.4-.14-.51-.34l-.9-1.77a32.5,32.5,0,0,1-1.65-3.35c-.13-.29-.21-.58.05-.84a.39.39,0,0,1,.48-.08c.3.17.55.48.47.76-.21.69.2,1.18.42,1.74A4.67,4.67,0,0,0,269.15,403Z" transform="translate(-245.71 -387.77)"/><path class="cls-19" d="M278,404.31c-.35.29-.71.57-1.05.87a.58.58,0,0,1-.69.1c-.21-.09-.22-.29-.21-.48s.21-.37.47-.43a1.9,1.9,0,0,0,.88-.57,2.64,2.64,0,0,0,.87-.79.72.72,0,0,1,.37-.27,2.71,2.71,0,0,0,1-.48.45.45,0,0,1,.73.13c.2.31.06.53-.23.69a8.67,8.67,0,0,1-1.2.64A3.42,3.42,0,0,0,278,404.31Z" transform="translate(-245.71 -387.77)"/><path class="cls-20" d="M299.9,442.12a4.61,4.61,0,0,0,1.85-.68,4.79,4.79,0,0,1,.71-.37,1.62,1.62,0,0,1,1.31-.1,14.31,14.31,0,0,1-.86,5.3,4.14,4.14,0,0,1-.63,1.1,1.18,1.18,0,0,1-.86.53c-.71,0-.74-.07-.9-.76A36.81,36.81,0,0,1,299.9,442.12Z" transform="translate(-245.71 -387.77)"/><path class="cls-20" d="M283.45,438.39a12,12,0,0,0,3.6,2.09q-.24,1.25-.51,2.49a4.32,4.32,0,0,1-1.45,2.48c-.63.52-1.2.37-1.44-.42a10.32,10.32,0,0,1-.43-3,18.22,18.22,0,0,0,0-2.09l0-1A.58.58,0,0,1,283.45,438.39Z" transform="translate(-245.71 -387.77)"/><path class="cls-20" d="M288.55,440.93a26.55,26.55,0,0,0,3.53,1.27,7.72,7.72,0,0,1-.93,2.75,1.19,1.19,0,0,1-2.11-.11,3.08,3.08,0,0,1-.38-1.25q-.11-1.08-.18-2.16C288.47,441.27,288.4,441.08,288.55,440.93Z" transform="translate(-245.71 -387.77)"/><path class="cls-21" d="M304.3,441a1.45,1.45,0,0,0,.87-.51,6.81,6.81,0,0,1,1.73-1.34c.2.34,0,.68,0,1a17.7,17.7,0,0,1-.46,2.6,2.44,2.44,0,0,1-.29.75.73.73,0,0,1-1.35,0,4.73,4.73,0,0,1-.42-1.73C304.33,441.47,304.32,441.21,304.3,441Z" transform="translate(-245.71 -387.77)"/><path class="cls-22" d="M278.2,429.94a1,1,0,0,1,0,.82c-.14.13-.27.26-.42.38a.92.92,0,0,1-1.5-.62c0-.12,0-.25,0-.37a.2.2,0,0,1,.08-.12c.4-.16.86-.19,1.14-.58a.27.27,0,0,1,.31-.05C278,429.53,278.05,429.77,278.2,429.94Z" transform="translate(-245.71 -387.77)"/><path class="cls-23" d="M276.41,430.11a6.81,6.81,0,0,1-1.74-1.17,1.67,1.67,0,0,1-.48-1.87,26.06,26.06,0,0,0,1.09-3.69,1.9,1.9,0,0,1,.8-1.17c.21-.13.4-.3.6-.45h0c.32-.07.33.16.36.38.07.55.21.62.71.36a2.31,2.31,0,0,1,1.12-.32.41.41,0,0,1,.27.46c.17.88.36,1.76.52,2.64s.18,1.53.32,2.29a1.39,1.39,0,0,1-.91,1.6c-.27.12-.56.2-.85.3a.38.38,0,0,1-.43,0c-.07,0-.2,0-.21,0C277.36,430.07,276.87,430.07,276.41,430.11Z" transform="translate(-245.71 -387.77)"/><path class="cls-24" d="M282.36,425.85c-.19.17-.14.36-.17.52a.46.46,0,0,1-.39.42c-.19,0-.4,0-.51-.16a.51.51,0,0,1,0-.57,3.4,3.4,0,0,1,.59-.85.76.76,0,0,0,.28-.47.42.42,0,0,1,.43-.38,1.64,1.64,0,0,0,.85-.23,2,2,0,0,1,2.82,1.73,2.85,2.85,0,0,1-.83,2.14c-.24.27-.32.4,0,.7a3.25,3.25,0,0,1-1,5.24,1.39,1.39,0,0,1-.6.09c-.42,0-.48.18-.4.53a1.46,1.46,0,0,1,.06.46c0,.28-.18.42-.47.43s-.43-.17-.44-.44,0-.47,0-.71a.91.91,0,0,0-.26-.72.6.6,0,0,1,.07-1,.42.42,0,0,0,.14-.37c0-.85,0-1.71,0-2.56a.41.41,0,0,0-.17-.36.5.5,0,0,1-.05-.82.69.69,0,0,0,.21-.72C282.36,427.14,282.43,426.51,282.36,425.85Z" transform="translate(-245.71 -387.77)"/><path class="cls-25" d="M291.7,427.11c-.11-.56,0-1.24-.4-1.83-.2-.26,0-.65.41-.65s.37,0,.44-.28a.48.48,0,0,1,.51-.41.53.53,0,0,1,.53.45c.27.95.53,1.91.78,2.86a55,55,0,0,1,1.12,6.36c0,.14.08.27.1.4a.44.44,0,0,1-.4.58c-.32,0-.52-.09-.53-.44,0-.73,0-1.47,0-2.21a14.36,14.36,0,0,0-.47-3.11c-.05-.23-.07-.49-.39-.51a1.06,1.06,0,0,0-.95.56,17,17,0,0,0-.18,2,5,5,0,0,0,0,1.55.38.38,0,0,1-.28.44.39.39,0,0,1-.48-.09.49.49,0,0,1-.14-.51,12.44,12.44,0,0,0,.34-3c0-.28-.38-.49-.19-.78a2.23,2.23,0,0,0,.19-1.24Z" transform="translate(-245.71 -387.77)"/><path class="cls-26" d="M301.44,425.28a1.17,1.17,0,0,0-.94-.24.37.37,0,0,1-.5-.31c0-.26.17-.4.46-.4a2.46,2.46,0,0,1,2.15,1.32,5.81,5.81,0,0,1,.81,3.76,8.34,8.34,0,0,1-.83,3,2.79,2.79,0,0,1-.84,1.06,1.11,1.11,0,0,1-1.82-.45,2.73,2.73,0,0,1-.25-1,13.09,13.09,0,0,1,.75-5.48A1.77,1.77,0,0,1,301.44,425.28Z" transform="translate(-245.71 -387.77)"/><path class="cls-27" d="M297.39,425.07a7.05,7.05,0,0,0-1,2.88,14.62,14.62,0,0,0-.26,2,5.81,5.81,0,0,0,.49,3c.32.59.76.65,1.26.18a2.61,2.61,0,0,0,.42-.62c.1-.19.23-.35.49-.22s.25.34.15.56a2.38,2.38,0,0,1-1.25,1.23,1.14,1.14,0,0,1-1.41-.44,3.29,3.29,0,0,1-.56-1.64,15.88,15.88,0,0,1,.95-7.06,1.85,1.85,0,0,1,.19-.37c.2-.31.43-.62.87-.51s.5.49.54.85a5.93,5.93,0,0,1-.19,2,.49.49,0,1,1-.9-.36A1.87,1.87,0,0,0,297.39,425.07Z" transform="translate(-245.71 -387.77)"/><path class="cls-28" d="M288.18,428.76a8.53,8.53,0,0,0,.29,2.45,1.34,1.34,0,0,0,.37.64.53.53,0,0,0,.66.06c.23-.13.24-.28.16-.52a.37.37,0,0,1,.32-.52.55.55,0,0,1,.68.49,1.42,1.42,0,0,1-1.24,1.43c-.8.11-1.4-.41-1.62-1.43a21.31,21.31,0,0,1-.28-2.77,10.1,10.1,0,0,0-.11-1.55c-.08-.31-.05-.66-.47-.85s-.27-.47,0-.72a.6.6,0,0,1,.84.06,1.4,1.4,0,0,1,.29.89C288.06,427.22,288.24,428,288.18,428.76Z" transform="translate(-245.71 -387.77)"/><path class="cls-29" d="M278.84,422.24c-.43.22-.91.32-1.35.57s-.63-.14-.6-.65a1.3,1.3,0,0,1,.72-.77,2.49,2.49,0,0,0,1.6-1c.09-.12.17-.27.32-.33.14-.25.27-.49.42-.73s.47-.4.84-.13a.47.47,0,0,1,0,.68c-.42.46-.72,1-1.12,1.5A1,1,0,0,1,278.84,422.24Z" transform="translate(-245.71 -387.77)"/><path class="cls-30" d="M274.71,417.81c-.19-.08-.47,0-.71-.17a6.78,6.78,0,0,1-1.53-1.23.47.47,0,0,1-.1-.6.53.53,0,0,1,1,.08,1.84,1.84,0,0,0,1.31,1.1.88.88,0,0,0,.8-.31,2.86,2.86,0,0,0,.39-.47c.16-.23.33-.33.59-.16a.39.39,0,0,1,.11.58A2.21,2.21,0,0,1,274.71,417.81Z" transform="translate(-245.71 -387.77)"/><path class="cls-31" d="M275.62,411.88a17.4,17.4,0,0,0,.14-2.9,2.1,2.1,0,0,0-.1-.65.57.57,0,0,1,.17-.64.47.47,0,0,1,.54,0,.62.62,0,0,1,.3.65,22.57,22.57,0,0,0-.35,3.84c0,.21-.05.37-.29.42a.33.33,0,0,1-.38-.2A1.87,1.87,0,0,1,275.62,411.88Z" transform="translate(-245.71 -387.77)"/><path class="cls-31" d="M270.9,411.86a27.06,27.06,0,0,0,.17-3.16.43.43,0,0,1,.5-.48c.29,0,.55.27.44.61a8.86,8.86,0,0,0-.27,2.9c0,.34,0,.73-.45.71S270.87,412.05,270.9,411.86Z" transform="translate(-245.71 -387.77)"/><path class="cls-32" d="M283,430.11c-.13-.49.08-.72.55-.77a1.51,1.51,0,0,0,.31-.12c.24-.07.43-.39.71-.27a1.67,1.67,0,0,1,.73.71,2.62,2.62,0,0,1-.63,3.35,1.41,1.41,0,0,1-.7.25c-.7.06-.82-.06-.85-.76A21,21,0,0,0,283,430.11Z" transform="translate(-245.71 -387.77)"/><path class="cls-33" d="M284.19,424.7c1.07,0,1.63,1,1.17,2.12a3.7,3.7,0,0,1-.62.95.64.64,0,0,1-.72.23,1,1,0,0,0-.65,0c-.35.1-.48,0-.41-.37a9.52,9.52,0,0,0,.09-1.85C283.06,425,283.34,424.69,284.19,424.7Z" transform="translate(-245.71 -387.77)"/><path class="cls-34" d="M292.54,427.71a17,17,0,0,1,.23-2.24,11.35,11.35,0,0,1,.63,1.83c.06.16,0,.23-.19.25Z" transform="translate(-245.71 -387.77)"/><path class="cls-35" d="M302.23,426.09a5.46,5.46,0,0,1,.55,4.31,4.79,4.79,0,0,1-.83,1.94c-.26.34-.55.74-1,.67s-.59-.62-.69-1.05a6.67,6.67,0,0,1,0-2.44,8.56,8.56,0,0,1,.79-2.7c.11-.22.17-.39.51-.27S302.16,426.51,302.23,426.09Z" transform="translate(-245.71 -387.77)"/><path class="cls-1" d="M324.26,440.8a4.93,4.93,0,0,1,3.89,1.93c1.65,2.07,2.83,1.23,4.3,2.91s9.76,3,9.76,3,4.71.93,6.12,2.75,1.47,1.3,2.12,2.74c.12.27-31.88,0-31.88,0" transform="translate(-245.71 -387.77)"/><path class="cls-1" d="M260.17,442.91s-4.57.69-5,2.17a2.8,2.8,0,0,0-1.81,1,23,23,0,0,1-4.15,2.56s-1.7.57-2,1.81-1.85,2.36-1.45,3.66h16.57" transform="translate(-245.71 -387.77)"/><path class="cls-8" d="M251.4,451.58c.09,0,.23-.07.3-.12.24-.16.42-.38.64-.55a.66.66,0,0,1,.53-.17.67.67,0,0,1,.47.49c.08.22.54-.09.64.12s.75.14.9.44-.59,1.17-.72,1.29-.13-.84-.3-.87-.53.88-.67.76a1.54,1.54,0,0,1-.4-.51c-.07-.14-.12-.3-.26-.37a.47.47,0,0,0-.44.05c-.3.19-.57.51-1,.44s-.51-.4-.71-.63c-.12.23-.28.52-.57.55a.59.59,0,0,1-.37-.14.53.53,0,0,1-.22-.34.49.49,0,0,1,.05-.24,8.54,8.54,0,0,1,.64-1.1c.25-.41.5-.82.76-1.21a.66.66,0,0,1,.34-.32.44.44,0,0,1,.48.23.86.86,0,0,1,.07.57c-.06.42-.26.82-.28,1.25,0,.09,0,.3.05.36Z" transform="translate(-245.71 -387.77)"/><path class="cls-9" d="M339,452.83c0-.25.26-.35.45-.47s.28-.21.08-.34-.47-.53-.85-.59a.55.55,0,0,1-.52-.62,1,1,0,0,1,.77-.71c.29-.09,1.37.2,1.43.49.11.6-.21.82.18,1.17.22.19.46.37.39.7a.71.71,0,0,1-.66.52,5.7,5.7,0,0,0-.73.31C339.16,453.42,338.91,453.21,339,452.83Z" transform="translate(-245.71 -387.77)"/></svg>