<?xml version="1.0" encoding="utf-8"?>
<!-- Generator: Adobe Illustrator 24.2.1, SVG Export Plug-In . SVG Version: 6.00 Build 0)  -->
<svg version="1.1" id="Layer_1" xmlns="http://www.w3.org/2000/svg" xmlns:xlink="http://www.w3.org/1999/xlink" x="0px" y="0px"
	 viewBox="0 0 105 67" style="enable-background:new 0 0 105 67;" xml:space="preserve">
<style type="text/css">
	.st0{fill:#70BF4F;}
	.st1{fill:#539554;}
	.st2{fill:#9AC865;}
	.st3{fill:#98C964;}
	.st4{fill:#72BE4F;}
	.st5{fill:#95CA63;}
	.st6{fill:#FEFEFE;}
	.st7{fill:#9AC864;}
	.st8{fill:#98C963;}
	.st9{fill:#9AC767;}
	.st10{fill:#73BD52;}
	.st11{fill:#73BE50;}
	.st12{fill:#3896F0;stroke:#141F1F;stroke-width:0.25;stroke-miterlimit:10;}
	.st13{fill:none;stroke:#3896F0;stroke-miterlimit:10;}
	.st14{fill:#98643A;stroke:#141F1F;stroke-width:0.25;stroke-linecap:round;stroke-linejoin:round;stroke-miterlimit:10;}
	.st15{fill:#262626;stroke:#141F1F;stroke-width:0.25;stroke-linecap:round;stroke-linejoin:round;stroke-miterlimit:10;}
	.st16{fill:#432326;stroke:#141F1F;stroke-width:0.25;stroke-linecap:round;stroke-linejoin:round;stroke-miterlimit:10;}
	.st17{fill:#E5EFF2;stroke:#141F1F;stroke-width:0.25;stroke-linecap:round;stroke-linejoin:round;stroke-miterlimit:10;}
	.st18{fill:#EFF4F3;stroke:#141F1F;stroke-width:0.25;stroke-linecap:round;stroke-linejoin:round;stroke-miterlimit:10;}
	.st19{fill:#EEEEEE;stroke:#141F1F;stroke-width:0.25;stroke-linecap:round;stroke-linejoin:round;stroke-miterlimit:10;}
	.st20{fill:#EEEEEC;stroke:#141F1F;stroke-width:0.25;stroke-linecap:round;stroke-linejoin:round;stroke-miterlimit:10;}
	.st21{fill:#E24D5D;stroke:#141F1F;stroke-width:0.25;stroke-linecap:round;stroke-linejoin:round;stroke-miterlimit:10;}
	.st22{fill:#FCCA5C;stroke:#141F1F;stroke-width:0.25;stroke-linecap:round;stroke-linejoin:round;stroke-miterlimit:10;}
	.st23{fill:#FCFBF6;}
	.st24{fill:#FCFBF5;}
	.st25{fill:#FCFAF1;}
	.st26{fill:#FCFAF2;}
	.st27{fill:#FCFAF3;}
	.st28{fill:#050306;stroke:#141F1F;stroke-width:0.25;stroke-linecap:round;stroke-linejoin:round;stroke-miterlimit:10;}
	.st29{fill:#FBFBFB;stroke:#141F1F;stroke-width:0.25;stroke-linecap:round;stroke-linejoin:round;stroke-miterlimit:10;}
	.st30{fill:#EDEDED;stroke:#141F1F;stroke-width:0.25;stroke-linecap:round;stroke-linejoin:round;stroke-miterlimit:10;}
	.st31{fill:#98643B;}
	.st32{fill:#98643A;}
	.st33{fill:#8C6848;}
	.st34{fill:#97643A;}
</style>
<path class="st0" d="M79.02,53.34c0,4.32,0,8.65,0.01,12.97c0,0.3-0.06,0.36-0.36,0.36c-2.75-0.01-5.51-0.01-8.26-0.01
	c-0.48-0.2-0.8-0.58-1.07-1.01c-0.42-0.66-0.84-0.75-1.44-0.27c-0.36,0.29-0.66,0.37-1,0.01c-0.1-0.1-0.23-0.15-0.37-0.07
	c-0.15,0.08-0.17,0.23-0.14,0.39c0.05,0.32,0.19,0.65-0.09,0.95c-13.85,0-27.71,0-41.56,0c-0.24-0.17-0.27-0.4-0.23-0.66
	c0.03-0.2,0.02-0.38-0.18-0.52c-0.54-0.37-0.7-0.89-0.46-1.5c0.2-0.52,0.28-1.09,0.67-1.54c0.14-0.16,0.08-0.38,0.12-0.58
	c0.78-1.44,1.33-2.96,1.87-4.5c0.11-0.31,0.13-0.62,0.15-0.93c0.02-0.44,0.19-0.73,0.7-0.72c0.25,0.01,0.31-0.17,0.27-0.38
	c-0.06-0.38-0.13-0.76-0.2-1.13c-0.03-0.16-0.12-0.28-0.3-0.29s-0.26,0.11-0.3,0.28c-0.06,0.26-0.14,0.51-0.24,0.76
	c-0.04,0.11-0.11,0.22-0.24,0.23c-0.16,0.01-0.24-0.11-0.28-0.24c-0.14-0.58-0.24-1.17-0.06-1.76c0.43-0.23,0.91-0.28,1.36-0.44
	c0.71-0.25,1.44-0.18,2.16-0.19c0.27-0.01,0.52-0.12,0.76-0.24c1.23-0.61,2.54-0.73,3.88-0.65c1.04,0.06,2.08,0.21,3.11,0.43
	c0.07,0.01,0.12,0.05,0.18,0.09c0.21,0.23,0.17,0.53,0.18,0.81c0.03,1.06-0.06,2.13,0.1,3.19c0.08,0.5,0.18,0.98,0.35,1.45
	c0.22,0.62,0.64,0.71,1.15,0.32c0.86-0.67,1.32-1.57,1.51-2.62c0.13-0.7,0.39-1.38,0.43-2.1c0.01-0.15,0.07-0.29,0.19-0.39
	c0.54-0.17,1.38,0.08,1.75,0.5c0.1,0.91,0.12,1.82,0.23,2.73c0.05,0.45,0.14,0.89,0.39,1.28c0.54,0.86,1.51,0.85,1.97-0.06
	c0.34-0.67,0.59-1.38,0.78-2.1c0.06-0.22,0.09-0.46,0.3-0.62c0.2-0.12,0.42-0.1,0.63-0.08c1.35,0.14,2.69,0.09,4.01-0.29
	c0.24-0.07,0.5-0.18,0.74-0.09c0.76,0.28,1.54,0.2,2.32,0.24c0.17,0.01,0.33,0.02,0.48,0.1c0.32,0.21,0.29,0.54,0.31,0.85
	c0.08,1.23,0.18,2.46,0.4,3.67c0.05,0.3,0.14,0.58,0.19,0.88c0.1,0.58,0.53,0.79,1.05,0.5c0.23-0.13,0.42-0.31,0.57-0.54
	c0.85-1.33,1.14-2.83,1.29-4.37c0.05-0.55,0.14-1.09,0.12-1.64c-0.01-0.18,0.03-0.37,0.17-0.51c0.19-0.13,0.38-0.13,0.58-0.03
	c0.23,0.17,0.21,0.43,0.23,0.68c0.04,0.58,0.13,1.15,0.34,1.7c0.12,0.3,0.28,0.58,0.66,0.59c0.37,0.01,0.49-0.29,0.63-0.55
	c0.19-0.36,0.25-0.76,0.33-1.14c0.22-1.02,0.34-2.06,0.46-3.1c0.1-0.32,0.3-0.48,0.64-0.45c0.46,0.25,0.97,0.19,1.46,0.23
	c1.41,0.11,2.77,0.45,4.16,0.67c0.57,0.09,1.14,0.17,1.71,0.28c0.74,0.11,1.43,0.4,2.15,0.59c0.26,0.07,0.49,0.17,0.73,0.29
	c0.88,0.45,1.8,0.76,2.81,0.71c0.52-0.03,0.97-0.33,1.48-0.37C77.97,53.34,78.49,53.11,79.02,53.34z"/>
<path class="st0" d="M21.94,66.66c-0.27,0-0.53,0-0.8,0c-0.16-0.2,0.01-0.63-0.38-0.66c-0.43-0.04-0.32,0.42-0.48,0.63
	c-0.04,0.05-0.01-0.03-0.04,0.03c-1.65,0-3.3-0.01-4.96,0.01c-0.3,0-0.36-0.06-0.36-0.36c0.01-3.62,0.01-7.24,0.01-10.87
	c0.3-0.06,0.44-0.3,0.55-0.53c0.45-0.95,1.2-1.44,2.24-1.46c0.34-0.01,0.52-0.26,0.79-0.38c0.58-0.26,1.15-0.32,1.73-0.11
	c0.22,0.08,0.47,0.01,0.66,0.17c0.18,0.26,0.13,0.53,0.06,0.8c-0.1,0.41-0.16,0.83-0.25,1.24c0.03,0.3,0.06,0.58,0.2,0.86
	c0.26,0.49,0.21,0.66-0.21,1.04c-0.49,0.46-0.51,0.47-0.19,1.04c0.19,0.35,0.23,0.73,0.32,1.09c0.16,0.6,0.53,1.11,0.66,1.72
	c0.26,1.19,0.77,2.26,1.53,3.2c0.39,0.49,0.55,1.05,0.5,1.68c-0.04,0.1-0.11,0.2-0.2,0.2C22.77,66.06,22.38,66.41,21.94,66.66z"/>
<path class="st1" d="M23.43,65.87c0.03-1.2-0.98-1.9-1.37-2.88c-0.27-0.67-0.82-1.25-0.71-2.05c0.12-0.24,0.34-0.35,0.58-0.26
	c0.31,0.12,0.58,0.15,0.9,0.04c0.23-0.08,0.46,0.03,0.62,0.22c0.25,0.29,0.56,0.46,0.93,0.54c0.19,0.04,0.41,0.09,0.37,0.37
	c0.09,0.19,0.17,0.42,0.04,0.57c-0.38,0.43-0.46,0.97-0.69,1.45c-0.21,0.44-0.09,0.8-0.04,1.21c0.02,0.15,0.15,0.16,0.27,0.18
	c0.4,0.06,0.48,0.35,0.39,0.67c-0.07,0.26-0.05,0.49,0.02,0.73c-0.37,0-0.73,0-1.1,0C23.41,66.44,23.26,66.2,23.43,65.87z"/>
<path class="st2" d="M66.3,66.66c-0.02-0.31,0.05-0.63-0.11-0.93c-0.14-0.26,0.01-0.46,0.21-0.6c0.2-0.14,0.45-0.13,0.58,0.07
	c0.31,0.46,0.53,0.3,0.84,0c0.45-0.43,1.18-0.53,1.62,0.32c0.23,0.45,0.67,0.73,0.96,1.14c-0.4,0-0.8,0-1.2,0
	c-0.27-0.16-0.37-0.57-0.69-0.58c-0.32-0.01-0.45,0.39-0.74,0.52c-0.03,0.01-0.05,0.04-0.07,0.07
	C67.23,66.66,66.77,66.66,66.3,66.66z"/>
<path class="st3" d="M23.43,65.87c0.07,0.26,0.14,0.53,0.21,0.79c-0.57,0-1.13,0-1.7,0C22.26,66.07,22.79,65.87,23.43,65.87z"/>
<path class="st4" d="M67.7,66.66c0.08-0.36,0.39-0.53,0.62-0.75c0.15-0.14,0.3-0.1,0.43,0.05c0.19,0.21,0.41,0.39,0.45,0.7
	C68.7,66.66,68.2,66.66,67.7,66.66z"/>
<path class="st5" d="M20.23,66.66c0.02-0.21-0.14-0.41,0.01-0.62c0.18-0.23,0.41-0.36,0.68-0.22c0.37,0.19,0.36,0.51,0.21,0.84
	C20.83,66.66,20.53,66.66,20.23,66.66z"/>
<path class="st6" d="M24.75,61.86c-0.13-0.18-0.32-0.2-0.52-0.23c-0.32-0.05-0.65-0.15-0.82-0.46c-0.22-0.38-0.51-0.35-0.85-0.21
	c-0.09,0.04-0.17,0.24-0.28,0.09c-0.28-0.39-0.61-0.21-0.93-0.1c-0.58-0.97-0.66-2.14-1.22-3.12c-0.17-0.3-0.03-0.52,0.24-0.71
	c0.66-0.44,0.66-0.45,0.28-1.13c-0.13-0.24-0.14-0.47-0.1-0.72c0.31-0.45,0.73-0.48,1,0c0.23,0.4,0.44,0.73,0.96,0.82
	c0.32,0.06,0.38,0.42,0.4,0.7c0.13-0.37,0.28-0.78,0.48-1.15c0.26-0.49,0.61-0.59,1.11-0.38c0.08,0.06,0.13,0.14,0.17,0.24
	c0.04,0.16,0.08,0.32,0.1,0.49c0.02,0.16,0.07,0.33,0.14,0.55c0.27-0.27,0.55-0.51,0.9-0.61c0.52-0.15,0.86,0.04,1.02,0.56
	c0.13,0.6-0.22,1.09-0.39,1.61c-0.38,1.2-0.81,2.38-1.45,3.47C24.92,61.67,24.89,61.81,24.75,61.86z"/>
<path class="st0" d="M55.02,54.57c0.71-0.07,1.34-0.36,1.95-0.72c0.24-0.14,0.49-0.29,0.75-0.39c0.45-0.18,0.91-0.31,1.39-0.1
	c-0.01,1.91-0.21,3.79-0.91,5.58c-0.16,0.42-0.39,0.82-0.67,1.17c-0.23,0.28-0.49,0.54-0.91,0.55c-0.75,0.02-0.77-0.07-0.95-0.8
	C55.24,58.12,55.2,56.34,55.02,54.57z"/>
<path class="st0" d="M37.42,52.13c1.09,1.03,2.7,0.12,4.05,0.71c-0.16,0.88-0.35,1.75-0.54,2.62c-0.23,1.05-0.7,1.93-1.53,2.62
	c-0.66,0.55-1.27,0.38-1.52-0.44c-0.32-1.04-0.45-2.11-0.45-3.2c0-0.73,0.08-1.47-0.01-2.2"/>
<path class="st0" d="M43.06,53.32c1.23,0.48,2.43,1.03,3.72,1.34c-0.11,1.04-0.51,2-0.98,2.9s-1.7,0.8-2.22-0.12
	c-0.23-0.41-0.36-0.85-0.4-1.32c-0.07-0.76-0.13-1.52-0.18-2.28C42.97,53.67,42.89,53.48,43.06,53.32z"/>
<path class="st0" d="M59.66,53.35c0.38-0.05,0.66-0.27,0.91-0.54c0.53-0.58,1.15-1.03,1.83-1.41c0.21,0.36,0,0.72-0.03,1.07
	c-0.1,0.93-0.25,1.84-0.48,2.75c-0.07,0.28-0.16,0.54-0.31,0.79c-0.37,0.62-1.09,0.61-1.43-0.03c-0.3-0.57-0.37-1.2-0.43-1.83
	C59.68,53.89,59.68,53.62,59.66,53.35z"/>
<path class="st7" d="M27.69,64.98c0.28-0.28,0.46-0.57,0.64-0.88c0.34-0.59,0.8-0.61,1.15-0.04c0.26,0.42,0.47,0.83,1.07,0.84
	c0.21,0,0.32,0.22,0.3,0.45c-0.02,0.23-0.15,0.37-0.37,0.4c-0.5,0.08-0.93-0.04-1.24-0.46c-0.27-0.36-0.46-0.35-0.74,0.04
	c-0.55,0.79-0.9,0.82-1.61,0.25c-0.05,0.16-0.08,0.32-0.15,0.47c-0.12,0.25-0.32,0.31-0.58,0.23c-0.3-0.1-0.45-0.29-0.38-0.6
	c0.19-0.84,0.39-1.68,0.6-2.52c0.06-0.25,0.18-0.51,0.49-0.48c0.3,0.02,0.44,0.24,0.5,0.54c0.06,0.33,0.11,0.66,0.09,0.99
	C27.43,64.48,27.48,64.74,27.69,64.98z"/>
<path class="st8" d="M71.01,58.34c0-0.12,0.01-0.24,0.11-0.32c0.75-0.67,1.04-1.61,1.47-2.47c0.14-0.28,0.29-0.44,0.6-0.4
	c0.35,0.04,0.45,0.31,0.42,0.58c-0.09,0.7,0.38,1,0.88,1.24c0.7,0.33,1.2,0.88,1.71,1.42c0.16,0.17,0.18,0.36-0.02,0.52
	c-0.16,0.14-0.33,0.15-0.48-0.03c-0.57-0.64-1.23-1.16-2.05-1.45c-0.11-0.04-0.2-0.12-0.29-0.2c-0.54-0.44-0.54-0.45-0.84,0.22
	c-0.16,0.35-0.36,0.67-0.43,1.06c-0.06,0.34-0.4,0.36-0.69,0.33C71.11,58.81,71,58.61,71.01,58.34z"/>
<path class="st7" d="M26.83,56.47c-0.39-0.56-0.92-0.61-1.48-0.14c-0.21,0.18-0.42,0.37-0.67,0.59c0.17-0.51-0.22-0.92-0.12-1.38
	c0.07-0.06,0.19,0.09,0.25-0.15c0.15-0.58,0.2-1.17,0.33-1.75c0.23-0.3,0.58-0.31,0.9-0.37c0.21,0.52,0.01,1.1,0.2,1.62
	c0.02,0.06,0.04,0.11,0.1,0.3c0.1-0.45,0.28-0.74,0.3-1.09c0.01-0.32,0.22-0.45,0.49-0.45c0.26,0.01,0.48,0.15,0.51,0.45
	c0.04,0.43,0.12,0.85,0.22,1.27c0.09,0.34-0.1,0.62-0.43,0.53C26.87,55.78,26.85,56.1,26.83,56.47z"/>
<path class="st8" d="M49.76,62.96c-0.25,0.03-0.39-0.17-0.56-0.33c-0.12-0.11-0.26-0.22-0.34,0c-0.11,0.33-0.41,0.58-0.38,0.96
	c0.02,0.35-0.14,0.61-0.49,0.64c-0.41,0.04-0.69-0.29-0.86-0.58c-0.16-0.27,0.07-0.56,0.34-0.69c0.56-0.25,0.65-0.81,0.9-1.27
	c0.14-0.25,0.26-0.54,0.59-0.54c0.34,0,0.52,0.21,0.66,0.51c0.11,0.24,0.32,0.42,0.47,0.64C50.3,62.66,50.15,62.95,49.76,62.96z"/>
<path class="st9" d="M24.44,55.34c-0.47-0.21-0.78-0.01-0.96,0.42c-0.23,0.53-0.41,1.08-0.64,1.7c-0.17-0.3-0.09-0.56-0.12-0.81
	c-0.03-0.27-0.13-0.56-0.43-0.5c-0.48,0.09-0.6-0.18-0.73-0.53c-0.24-0.61-0.45-0.68-1.01-0.35c-0.03-0.71,0.33-1.38,0.28-2.09
	c0.21-0.18,0.39-0.43,0.72-0.3c0.31,0.12,0.26,0.41,0.3,0.67c0.05,0.32,0.07,0.66,0.29,0.93c0.25,0.19,0.22,0.51,0.34,0.76
	c0.1,0.22,0.21,0.44,0.42,0.65c0.19-0.38,0.21-0.76,0.23-1.13c0.01-0.17,0-0.33,0.12-0.47c0.2-0.4,0.54-0.37,0.9-0.3
	C24.43,54.4,24.6,54.83,24.44,55.34z"/>
<path class="st10" d="M24.44,55.34c-0.1-0.45-0.28-0.89-0.3-1.36c0.33-0.11,0.67-0.23,1-0.34c0.26,0.65-0.01,1.23-0.22,1.82
	c-0.08,0.21-0.2,0.23-0.36,0.08C24.52,55.48,24.48,55.41,24.44,55.34z"/>
<path class="st11" d="M23.24,54.28c0.15,0.56,0.01,1.11-0.12,1.65c-0.03,0.11-0.06,0.24-0.2,0.26c-0.11,0.01-0.18-0.08-0.23-0.17
	c-0.26-0.49-0.58-0.96-0.56-1.56C22.51,54.43,22.9,54.52,23.24,54.28z"/>
<g>
	<g>
		<g>
			<path class="st12" d="M71.72,5.33c0.04,1.23-0.66,2.07-1.53,2.8c-1.12,0.94-2.39,1.52-3.9,1.47c-0.63-0.02-1.13-0.24-1.48-0.77
				c-0.22-0.34-0.38-0.34-0.58,0c-0.31,0.56-0.78,0.78-1.41,0.89c-0.88,0.16-1.75,0.42-2.65,0.48c-1.37,0.08-2.65-0.13-3.66-1.17
				c-0.16-0.17-0.3-0.17-0.5-0.12c-0.79,0.16-1.59,0.22-2.39,0.06c-1.8-0.36-2.84-1.82-2.61-3.64C57.91,5.33,64.82,5.33,71.72,5.33z
				"/>
			<path class="st12" d="M71.72,5.33c0.04-1.23-0.66-2.07-1.53-2.8c-1.12-0.94-2.39-1.52-3.9-1.47c-0.63,0.02-1.13,0.24-1.48,0.77
				c-0.22,0.34-0.38,0.34-0.58,0c-0.31-0.56-0.78-0.78-1.41-0.89c-0.88-0.16-1.75-0.42-2.65-0.48c-1.37-0.08-2.65,0.13-3.66,1.17
				c-0.16,0.17-0.3,0.17-0.5,0.12c-0.79-0.16-1.59-0.22-2.39-0.06c-1.8,0.36-2.84,1.82-2.61,3.64C57.91,5.33,64.82,5.33,71.72,5.33z
				"/>
			<line class="st13" x1="51.12" y1="5.33" x2="71.59" y2="5.33"/>
		</g>
		<g>
			<path class="st14" d="M38.16,50.95c-0.02-0.03-0.04-0.06-0.06-0.09c-0.52-0.78-1.3-1.33-1.98-1.98c-1.17-1.11-1.84-2.37-2.4-3.85
				c-0.17-0.45-0.4-0.89-0.44-1.39c-0.01-0.16-0.14-0.28-0.3-0.34c-0.17-0.25-0.1-0.55-0.15-0.82c0.01-0.19-0.01-0.39,0.12-0.56
				c0.18-0.19,0.44-0.24,0.67-0.34c0.8-0.36,1.08-0.91,0.89-1.76c-0.24-1.07-0.23-2.17-0.49-3.23c-0.11-0.44-0.29-0.87-0.24-1.35
				c0.11-0.3,0.29-0.57,0.43-0.86c0.08-0.16,0.14-0.31,0.1-0.48c0.16-0.53,0.57-0.9,0.88-1.33c0.2-0.28,0.31-0.54,0.23-0.87
				c0.04-0.17,0.04-0.34,0.15-0.48c0.32-0.12,0.52-0.4,0.79-0.59c0.8-0.58,1.6-1.15,2.47-1.63c1.39-0.76,2.5-1.74,4.02-2.33
				c1.89-0.73,3.67-0.77,5.63-0.93c2.14-0.18,4.3-0.32,6.44,0.05c1.45,0.25,2.87,0.75,4.1,1.57c0.79,0.53,1.37,1.25,2.01,1.95
				c0.7,0.77,1.49,1.44,2.23,2.16c1,0.98,1.86,2.11,2.28,3.46c0.05,0.16,0.09,0.34,0.09,0.51c-0.03,0.27-0.25,0.43-0.4,0.63
				c-0.46,0.59-0.74,1.21-0.37,1.96c0.12,0.23,0.09,0.49,0.05,0.74c-0.17,1.12,0.14,2.06,1.02,2.79c0.12,0.1,0.26,0.19,0.24,0.38
				c-0.27,0.49-0.29,1.04-0.31,1.56c-0.03,1.27-0.18,2.51-0.62,3.7c-0.28,0.77-1.06,1.59-1.55,2.24c-0.52,0.68-1.09,1.36-1.7,1.96
				c-1.87,1.87-4.44,2.69-7.02,2.96c-1.29,0.14-2.59,0.03-3.87,0.13c-1.56,0.12-3.07,0.42-4.64,0.19c-2.24-0.32-4.56-1.6-6.67-2.39
				c-0.39-0.15-0.8-0.3-1.1-0.6C38.48,51.5,38.33,51.22,38.16,50.95z"/>
			<path class="st15" d="M35.64,31.28c-0.03,0.15-0.06,0.31-0.1,0.46c-0.48-0.03-0.77,0.21-0.94,0.64
				c-0.04,0.12-0.13,0.21-0.24,0.28c-0.41,0.19-0.63,0.6-0.99,0.85c-0.35,0.24-0.71,0.46-1.14,0.52c-0.27,0.08-0.52,0.18-0.75,0.35
				c-0.04,0.02-0.08,0.04-0.13,0.05c-0.18-0.01-0.36,0.15-0.54-0.01c-0.43-0.04-0.86-0.07-1.29-0.11c-1.84-0.39-3.57-1.06-5.15-2.1
				c-1.48-0.97-2.16-2.47-2.56-4.12c-0.79-3.26-0.49-6.45,0.57-9.6c0.27-0.82,0.67-1.55,1.13-2.26c0.31,0.07,0.36,0.37,0.49,0.59
				c0.2,0.32,0.34,0.68,0.53,1.01c0.1,0.18,0.23,0.39,0.48,0.23c0.24-0.16,0.11-0.36-0.02-0.53c-0.35-0.45-0.69-0.9-0.98-1.39
				c-0.1-0.17-0.26-0.34-0.13-0.56c0.78-0.71,1.57-1.38,2.72-1.31c0.05,0,0.1-0.01,0.14,0c1.39,0.52,2.97,0.38,4.24,1.29
				c0.37,0.26,0.77,0.48,1.12,0.78c0.04,0.26-0.18,0.34-0.33,0.47c-0.18,0.16-0.41,0.23-0.62,0.33c-0.16,0.08-0.25,0.21-0.16,0.38
				c0.09,0.18,0.25,0.18,0.41,0.11c0.26-0.12,0.46-0.33,0.69-0.49c0.19-0.13,0.33-0.35,0.61-0.29c1.35,1.27,2.2,2.86,2.96,4.52
				c0.66,1.45,1.09,2.93,0.96,4.53c-0.13,1.58-0.4,3.13-1.04,4.59c-0.04,0.17-0.1,0.33,0.06,0.48
				C35.75,31.06,35.71,31.18,35.64,31.28z"/>
			<path class="st16" d="M66.18,41.95c-1.22-0.8-1.69-1.9-1.41-3.34c0.03-0.17,0.05-0.35-0.05-0.51c-0.5-0.85-0.11-1.54,0.41-2.2
				c0.13-0.16,0.28-0.3,0.42-0.45c0.02-0.23,0.23-0.21,0.37-0.27c0.91-0.55,1.85-0.79,2.88-0.31c0.71,0.33,1.17,0.89,1.37,1.61
				c0.41,1.49,0.3,3-0.17,4.44c-0.45,1.38-1.84,1.88-3.22,1.31C66.57,42.15,66.38,42.05,66.18,41.95z"/>
			<path class="st17" d="M23.9,15.58c0.35,0.67,0.75,1.31,1.29,1.84c0.18,0.18,0.25,0.37,0.18,0.6c-0.06,0.2-0.23,0.3-0.42,0.33
				c-0.26,0.04-0.4-0.14-0.51-0.34c-0.3-0.59-0.6-1.18-0.9-1.76c-0.63-1.08-1.15-2.21-1.65-3.36c-0.13-0.29-0.21-0.58,0.05-0.83
				c0.13-0.13,0.3-0.18,0.48-0.08c0.3,0.16,0.55,0.47,0.47,0.76c-0.2,0.69,0.2,1.18,0.42,1.74C23.45,14.85,23.64,15.23,23.9,15.58z"
				/>
			<path class="st18" d="M32.72,16.85c-0.35,0.29-0.71,0.57-1.05,0.87c-0.22,0.19-0.45,0.22-0.7,0.11c-0.21-0.1-0.22-0.29-0.21-0.48
				c0.02-0.29,0.21-0.37,0.47-0.43c0.36-0.07,0.62-0.34,0.88-0.58c0.33-0.21,0.65-0.44,0.87-0.78c0.09-0.14,0.22-0.21,0.37-0.27
				c0.34-0.12,0.67-0.25,0.96-0.49c0.26-0.22,0.53-0.17,0.72,0.13c0.2,0.32,0.06,0.54-0.23,0.7c-0.4,0.22-0.78,0.48-1.21,0.64
				C33.26,16.39,33.01,16.63,32.72,16.85z"/>
			<path class="st19" d="M54.65,54.66c0.67-0.07,1.27-0.34,1.85-0.68c0.23-0.14,0.46-0.27,0.71-0.37c0.42-0.17,0.86-0.3,1.32-0.1
				c-0.01,1.81-0.2,3.59-0.86,5.3c-0.16,0.4-0.37,0.77-0.64,1.11c-0.21,0.27-0.46,0.51-0.86,0.52c-0.71,0.02-0.73-0.07-0.9-0.76
				C54.87,58.03,54.82,56.34,54.65,54.66z"/>
			<path class="st19" d="M38.2,50.93c1.04,0.98,2.32,1.53,3.6,2.09c-0.15,0.83-0.33,1.66-0.51,2.49c-0.22,0.99-0.66,1.83-1.45,2.48
				c-0.62,0.52-1.2,0.36-1.44-0.42c-0.3-0.99-0.43-2-0.43-3.04c0-0.7,0.08-1.39-0.01-2.09c0.01-0.34,0.03-0.69,0.04-1.03
				C38,51.23,38.03,51.05,38.2,50.93z"/>
			<path class="st19" d="M43.3,53.47c1.16,0.45,2.3,0.97,3.53,1.27c-0.11,0.99-0.48,1.89-0.93,2.75c-0.45,0.85-1.61,0.76-2.11-0.11
				c-0.22-0.39-0.34-0.81-0.38-1.25c-0.06-0.72-0.13-1.44-0.17-2.16C43.23,53.81,43.15,53.62,43.3,53.47z"/>
			<path class="st20" d="M59.06,53.5c0.36-0.05,0.63-0.26,0.86-0.51c0.5-0.55,1.09-0.98,1.73-1.34c0.19,0.34,0,0.68-0.03,1.02
				c-0.09,0.88-0.24,1.75-0.46,2.61c-0.07,0.26-0.15,0.51-0.29,0.75c-0.36,0.59-1.03,0.58-1.35-0.03c-0.29-0.54-0.35-1.14-0.41-1.73
				C59.08,54.01,59.07,53.75,59.06,53.5z"/>
			<path class="st21" d="M32.95,42.48c0.15,0.27,0.13,0.54,0.04,0.82c-0.14,0.13-0.27,0.26-0.42,0.38c-0.59,0.46-1.34,0.15-1.5-0.62
				c-0.02-0.12-0.03-0.25-0.05-0.37c0.02-0.05,0.05-0.09,0.09-0.11c0.39-0.16,0.86-0.19,1.14-0.58c0.07-0.09,0.19-0.09,0.3-0.05
				C32.76,42.06,32.8,42.31,32.95,42.48z"/>
			<path class="st22" d="M31.16,42.65c-0.65-0.29-1.21-0.7-1.74-1.17c-0.52-0.46-0.76-1.24-0.48-1.87c0.53-1.18,0.74-2.46,1.09-3.69
				c0.13-0.46,0.36-0.9,0.8-1.17c0.21-0.13,0.4-0.3,0.6-0.45l0.01-0.01c0.33-0.07,0.34,0.17,0.36,0.39
				c0.08,0.55,0.21,0.62,0.71,0.36c0.35-0.19,0.72-0.32,1.12-0.31c0.21,0.09,0.3,0.23,0.27,0.46c0.18,0.88,0.37,1.76,0.52,2.64
				c0.14,0.76,0.18,1.53,0.32,2.29c0.14,0.73-0.23,1.28-0.91,1.6c-0.27,0.13-0.56,0.2-0.85,0.3c-0.14,0.1-0.28,0.11-0.43,0.03
				c-0.07,0.01-0.2,0-0.21,0.04C32.11,42.61,31.63,42.61,31.16,42.65z"/>
			<path class="st23" d="M37.11,38.39c-0.19,0.18-0.14,0.36-0.17,0.53c-0.04,0.21-0.15,0.38-0.39,0.41
				c-0.19,0.03-0.4,0.04-0.51-0.16c-0.1-0.18-0.17-0.36-0.04-0.57c0.18-0.29,0.32-0.61,0.59-0.85c0.14-0.12,0.25-0.26,0.28-0.47
				s0.23-0.41,0.43-0.38c0.33,0.05,0.58-0.12,0.85-0.22c1.36-0.52,2.73,0.35,2.82,1.73c0.05,0.83-0.28,1.54-0.83,2.14
				c-0.24,0.27-0.32,0.4,0,0.7c1.61,1.53,1.02,4.54-1,5.24c-0.2,0.07-0.4,0.11-0.6,0.09c-0.42-0.03-0.48,0.18-0.4,0.52
				c0.04,0.15,0.07,0.31,0.06,0.47c-0.02,0.28-0.18,0.41-0.47,0.42c-0.31,0.01-0.44-0.17-0.45-0.43c-0.01-0.24,0.03-0.47,0.04-0.71
				c0.01-0.27-0.06-0.51-0.26-0.73c-0.32-0.35-0.3-0.64,0.06-0.97c0.13-0.12,0.14-0.24,0.14-0.37c-0.01-0.85-0.03-1.71-0.04-2.56
				c0-0.15-0.04-0.26-0.18-0.36c-0.33-0.24-0.3-0.59-0.05-0.82s0.26-0.47,0.21-0.72C37.12,39.68,37.18,39.05,37.11,38.39z"/>
			<path class="st24" d="M46.45,39.65c-0.1-0.56,0.04-1.24-0.4-1.83c-0.2-0.27,0.05-0.65,0.41-0.66c0.23,0,0.37-0.03,0.44-0.28
				c0.07-0.24,0.22-0.41,0.51-0.4c0.31,0,0.47,0.19,0.54,0.44c0.27,0.95,0.52,1.91,0.78,2.87c0.56,2.09,0.81,4.23,1.11,6.35
				c0.02,0.14,0.08,0.27,0.11,0.4c0.06,0.31-0.08,0.53-0.4,0.58s-0.52-0.09-0.53-0.44c-0.02-0.74-0.01-1.47,0-2.21
				c0.01-1.06-0.26-2.09-0.47-3.12c-0.05-0.23-0.07-0.49-0.39-0.5c-0.37-0.02-0.87,0.28-0.94,0.56c-0.16,0.66-0.1,1.35-0.18,2.02
				c-0.06,0.51-0.13,1.03-0.02,1.55c0.04,0.21-0.08,0.36-0.28,0.44c-0.18,0.08-0.35,0.05-0.48-0.09c-0.13-0.14-0.2-0.29-0.14-0.51
				c0.3-0.99,0.27-2.02,0.33-3.04c0.02-0.28-0.38-0.49-0.18-0.79c0.26-0.39,0.16-0.82,0.18-1.23
				C46.45,39.76,46.45,39.74,46.45,39.65z"/>
			<path class="st25" d="M56.19,37.82c-0.34-0.2-0.61-0.33-0.94-0.24c-0.28,0.07-0.48-0.09-0.5-0.31c-0.03-0.26,0.17-0.4,0.46-0.4
				c0.99,0,1.66,0.54,2.15,1.32c0.72,1.15,0.93,2.41,0.81,3.76c-0.1,1.05-0.36,2.04-0.83,2.98c-0.2,0.41-0.46,0.78-0.84,1.06
				c-0.72,0.53-1.44,0.36-1.82-0.45c-0.15-0.32-0.23-0.66-0.25-1c-0.12-1.88,0.1-3.71,0.75-5.48
				C55.37,38.55,55.57,38.05,56.19,37.82z"/>
			<path class="st26" d="M52.15,37.61c-0.64,0.91-0.84,1.9-1.03,2.88c-0.13,0.65-0.22,1.3-0.26,1.96c-0.06,1.04,0,2.09,0.5,3.04
				c0.31,0.6,0.76,0.65,1.25,0.18c0.19-0.18,0.31-0.39,0.42-0.62c0.1-0.19,0.23-0.34,0.49-0.22c0.28,0.13,0.26,0.33,0.15,0.55
				c-0.27,0.56-0.67,0.99-1.25,1.24c-0.52,0.22-1.07,0.04-1.41-0.45c-0.35-0.49-0.49-1.06-0.56-1.64c-0.26-2.43,0.14-4.77,0.95-7.05
				c0.05-0.13,0.12-0.26,0.2-0.37c0.2-0.31,0.43-0.62,0.87-0.51c0.42,0.11,0.5,0.5,0.55,0.85c0.08,0.68-0.04,1.35-0.2,2.01
				c-0.08,0.33-0.31,0.47-0.64,0.35c-0.35-0.13-0.45-0.38-0.26-0.71C52.16,38.67,52.29,38.2,52.15,37.61z"/>
			<path class="st27" d="M42.93,41.3c0.01,0.87,0.07,1.67,0.29,2.44c0.07,0.24,0.18,0.47,0.37,0.65c0.2,0.18,0.42,0.17,0.66,0.05
				c0.23-0.12,0.24-0.28,0.16-0.51c-0.09-0.27,0.04-0.47,0.32-0.52c0.37-0.07,0.61,0.11,0.68,0.48c0.12,0.61-0.5,1.32-1.23,1.43
				c-0.8,0.12-1.4-0.41-1.63-1.42c-0.21-0.91-0.18-1.85-0.27-2.77c-0.05-0.52,0.01-1.04-0.12-1.55c-0.08-0.32-0.05-0.66-0.47-0.85
				c-0.3-0.14-0.27-0.48-0.03-0.72c0.22-0.22,0.65-0.19,0.85,0.06c0.21,0.26,0.28,0.58,0.29,0.89
				C42.82,39.76,42.99,40.56,42.93,41.3z"/>
			<path class="st28" d="M33.59,34.78c-0.43,0.22-0.91,0.32-1.35,0.57c-0.34,0.2-0.63-0.14-0.6-0.65c0.15-0.34,0.35-0.64,0.72-0.77
				c0.66-0.13,1.2-0.44,1.6-1c0.09-0.12,0.17-0.27,0.32-0.34c0.14-0.24,0.27-0.49,0.42-0.72c0.24-0.37,0.46-0.4,0.84-0.14
				c0.18,0.23,0.17,0.48-0.02,0.68c-0.43,0.46-0.73,1.02-1.12,1.5C34.32,34.38,34.04,34.66,33.59,34.78z"/>
			<path class="st29" d="M29.46,30.35c-0.19-0.08-0.47-0.03-0.71-0.18c-0.57-0.33-1.08-0.75-1.53-1.23c-0.16-0.16-0.23-0.37-0.1-0.6
				c0.11-0.2,0.26-0.3,0.5-0.29c0.25,0.01,0.41,0.14,0.49,0.37c0.22,0.62,0.74,0.92,1.31,1.09c0.29,0.09,0.58-0.11,0.8-0.31
				c0.15-0.14,0.28-0.3,0.39-0.47c0.16-0.23,0.33-0.33,0.59-0.16c0.24,0.16,0.22,0.41,0.1,0.58C30.88,29.81,30.34,30.33,29.46,30.35
				z"/>
			<path class="st30" d="M30.37,24.42c0.17-0.95,0.13-1.93,0.14-2.9c0-0.22-0.02-0.43-0.1-0.65c-0.08-0.23-0.02-0.47,0.18-0.64
				c0.16-0.14,0.37-0.12,0.53-0.03c0.25,0.14,0.35,0.42,0.3,0.65c-0.28,1.27-0.28,2.56-0.35,3.84c-0.01,0.21-0.05,0.37-0.29,0.42
				c-0.18,0.04-0.33-0.04-0.38-0.19C30.35,24.77,30.38,24.6,30.37,24.42z"/>
			<path class="st30" d="M25.66,24.4c0.08-1.15,0.22-2.15,0.17-3.16c-0.02-0.31,0.21-0.53,0.5-0.48c0.29,0.04,0.55,0.26,0.44,0.61
				c-0.31,0.95-0.28,1.92-0.27,2.89c0,0.35,0.02,0.73-0.45,0.71C25.61,24.96,25.63,24.59,25.66,24.4z"/>
			<path class="st31" d="M37.71,42.65c-0.12-0.49,0.09-0.71,0.55-0.76c0.11-0.01,0.2-0.09,0.31-0.12c0.25-0.08,0.44-0.39,0.71-0.28
				c0.32,0.13,0.54,0.41,0.73,0.71c0.67,1.02,0.35,2.68-0.63,3.35c-0.22,0.15-0.45,0.23-0.7,0.25c-0.7,0.06-0.82-0.06-0.85-0.76
				C37.8,44.24,37.83,43.43,37.71,42.65z"/>
			<path class="st32" d="M38.94,37.24c1.08,0,1.64,1.02,1.17,2.12c-0.15,0.35-0.37,0.66-0.62,0.95c-0.19,0.22-0.41,0.34-0.71,0.23
				c-0.21-0.07-0.44-0.04-0.65,0.02c-0.35,0.1-0.48-0.04-0.41-0.37c0.12-0.61,0.08-1.23,0.09-1.84
				C37.81,37.51,38.09,37.23,38.94,37.24z"/>
			<path class="st33" d="M47.29,40.25c0.06-0.75,0.07-1.47,0.24-2.24c0.33,0.61,0.42,1.24,0.63,1.84c0.05,0.15-0.04,0.22-0.19,0.25
				C47.76,40.13,47.57,40.18,47.29,40.25z"/>
			<path class="st34" d="M56.98,38.62c0.86,1.38,0.89,2.83,0.55,4.31c-0.16,0.69-0.38,1.37-0.82,1.94
				c-0.26,0.34-0.56,0.74-1.01,0.66c-0.51-0.08-0.58-0.62-0.69-1.04c-0.2-0.81-0.12-1.64-0.01-2.45c0.14-0.93,0.35-1.85,0.79-2.7
				c0.11-0.22,0.17-0.39,0.51-0.27C56.62,39.21,56.91,39.05,56.98,38.62z"/>
		</g>
	</g>
</g>
<path class="st0" d="M79.02,53.34c0,0,2.24-0.14,3.89,1.92c1.65,2.07,2.82,1.23,4.29,2.92s9.76,2.99,9.76,2.99s4.71,0.93,6.12,2.75
	s1.47,1.29,2.12,2.74c0.12,0.26-31.88,0.01-31.88,0.01"/>
<path class="st0" d="M14.93,55.45c0,0-4.58,0.69-4.98,2.17c0,0-0.75-0.02-1.81,1.01c-1.06,1.04-4.15,2.56-4.15,2.56
	S2.29,61.76,1.98,63s-1.85,2.37-1.46,3.66l16.57,0.01"/>
<path class="st7" d="M6.15,64.12c0.1,0.02,0.23-0.08,0.3-0.12c0.24-0.15,0.41-0.38,0.64-0.55c0.15-0.12,0.34-0.21,0.53-0.17
	c0.23,0.04,0.39,0.27,0.47,0.49s0.54-0.09,0.64,0.12c0.16,0.33,0.74,0.14,0.89,0.45c0.08,0.16-0.58,1.17-0.72,1.29
	c-0.13,0.12-0.13-0.85-0.3-0.88c-0.18-0.03-0.53,0.88-0.67,0.77c-0.17-0.14-0.3-0.32-0.4-0.51c-0.07-0.14-0.12-0.3-0.26-0.37
	s-0.31-0.03-0.44,0.05c-0.31,0.19-0.57,0.51-0.97,0.44c-0.32-0.05-0.52-0.4-0.72-0.63c-0.12,0.22-0.28,0.52-0.57,0.54
	c-0.13,0.01-0.26-0.05-0.37-0.14c-0.11-0.08-0.21-0.2-0.22-0.34C3.97,64.48,4,64.39,4.03,64.31c0.16-0.38,0.43-0.74,0.64-1.09
	c0.25-0.41,0.5-0.82,0.76-1.21c0.09-0.13,0.19-0.27,0.34-0.32c0.19-0.05,0.39,0.06,0.48,0.23s0.1,0.38,0.07,0.57
	c-0.06,0.42-0.27,0.82-0.28,1.25c0,0.09-0.03,0.3,0.05,0.36C6.12,64.11,6.14,64.12,6.15,64.12z"/>
<path class="st8" d="M93.75,65.37c0.02-0.25,0.25-0.35,0.45-0.47c0.14-0.09,0.28-0.21,0.08-0.34c-0.29-0.19-0.47-0.53-0.85-0.59
	c-0.34-0.06-0.56-0.28-0.51-0.62c0.05-0.41,0.44-0.6,0.76-0.7c0.3-0.1,1.37,0.2,1.43,0.49c0.12,0.6-0.2,0.82,0.19,1.17
	c0.21,0.19,0.46,0.37,0.39,0.7c-0.08,0.33-0.32,0.46-0.65,0.53c-0.25,0.05-0.48,0.22-0.73,0.31C93.91,65.96,93.67,65.75,93.75,65.37
	z"/>
</svg>
