<svg height="512pt" viewBox="0 0 512 512" width="512pt" xmlns="http://www.w3.org/2000/svg"><path d="m82.582031 439.328125c-6.960937 5.203125-27.371093 14.535156-54.363281 6.609375-28.21875-8.261719-28.21875-41.292969-28.21875-41.292969s37.621094-82.582031 37.621094-148.644531v-58.136719c0-18.0625 16.675781-32.703125 37.246094-32.703125l-8.464844 218.507813-.46875 10.652343c0 .660157 0 1.402344.09375 2.066407.847656 15.195312 6.675781 29.726562 16.554687 42.941406zm0 0" fill="#e0ada6"/><path d="m429.417969 439.328125c6.960937 5.203125 27.371093 14.535156 54.363281 6.609375 28.21875-8.257812 28.21875-41.292969 28.21875-41.292969s-37.621094-82.582031-37.621094-148.644531v-58.136719c0-18.0625-16.675781-32.703125-37.246094-32.703125l8.464844 218.507813.46875 10.652343c0 .660157 0 1.40625-.09375 2.066407-.847656 15.195312-6.679687 29.726562-16.554687 42.941406zm0 0" fill="#e0ada6"/><path d="m454.109375 394.320312c0 .660157 0 1.40625-.082031 2.066407-3.222656 64.246093-99.757813 115.613281-198.027344 115.613281-74.984375 0-155.914062-29.894531-183.496094-72.671875-8.671875-13.210937-13.789062-27.746094-14.535156-42.941406-.082031-.660157-.082031-1.40625-.082031-2.066407l.414062-10.652343 8.585938-226.765625c2.5625-27.085938 11.316406-52.355469 24.859375-74.320313 30.472656-49.550781 101.738281-82.582031 164.253906-82.582031 90.261719 0 180.851562 68.871094 189.109375 156.902344l8.585937 226.765625zm0 0" fill="#f0beb4"/><path d="m198.191406 148.644531-80.910156 16.519531c-1.90625-9.339843 3.21875-18.6875 12.117188-22.101562l31.351562-14.945312c16.140625-6.195313 33.984375 3.585937 37.441406 20.527343zm0 0"/><path d="m313.808594 148.644531 80.910156 16.519531c1.90625-9.339843-3.21875-18.6875-12.117188-22.101562l-31.351562-14.945312c-16.140625-6.195313-33.984375 3.585937-37.441406 20.527343zm0 0"/><path d="m132.128906 214.710938h-16.515625v-16.519532h16.515625c9.878906 0 16.03125-3.550781 25.347656-8.929687 3.683594-2.128907 7.660157-4.417969 12.25-6.714844 27.292969-13.621094 48.601563-.113281 49.492188.46875l-9.015625 13.839844c-.515625-.328125-14.535156-8.816407-33.089844.46875-4.261719 2.128906-7.953125 4.265625-11.378906 6.246093-9.929687 5.726563-19.304687 11.140626-33.605469 11.140626zm0 0"/><path d="m396.386719 214.710938h-16.515625c-14.304688 0-23.679688-5.414063-33.605469-11.140626-3.429687-1.980468-7.117187-4.117187-11.378906-6.246093-18.578125-9.289063-32.570313-.792969-33.15625-.425781l-8.949219-13.882813c.898438-.578125 22.226562-14.101563 49.492188-.46875 4.589843 2.296875 8.566406 4.585937 12.25 6.714844 9.316406 5.378906 15.46875 8.929687 25.347656 8.929687h16.515625zm0 0"/><g fill="#d36c5b"><path d="m297.535156 439.679688c-.273437-1.035157-7.519531-26.777344-41.535156-26.777344-34.445312 0-41.472656 26.507812-41.535156 26.777344l-16.027344-4.007813c3.402344-13.585937 19.800781-39.285156 57.5625-39.285156s54.160156 25.699219 57.5625 39.285156zm0 0"/><path d="m82.582031 379.871094v-16.515625c.78125-.011719 20.714844-.546875 34.417969-21.097657 14.644531-21.964843 15.125-36.652343 15.128906-36.800781l16.519532.089844c0 1.949219-.507813 19.769531-17.90625 45.871094-18.75 28.128906-46.96875 28.453125-48.160157 28.453125zm0 0"/><path d="m429.417969 379.871094c-1.191407 0-29.410157-.324219-48.160157-28.453125-17.398437-26.097657-17.902343-43.921875-17.902343-45.867188h16.515625-8.257813l8.257813-.089843c.003906.144531.484375 14.832031 15.128906 36.796874 13.902344 20.855469 34.21875 21.097657 34.421875 21.097657v16.515625zm0 0"/><path d="m206.449219 264.257812h-16.515625c0-21.839843 27.308594-31.570312 30.421875-32.609374l5.222656 15.667968c-4.945313 1.679688-19.128906 8.40625-19.128906 16.941406zm0 0"/><path d="m322.0625 264.257812h-16.515625c0-8.769531-15.089844-15.59375-19.128906-16.941406l5.226562-15.667968c3.113281 1.039062 30.417969 10.769531 30.417969 32.609374zm0 0"/></g><path d="m371.613281 305.546875s-49.550781 16.515625-74.324219 16.515625c-24.773437 0-41.289062 0-41.289062 0s-16.515625 0-41.289062 0c-24.773438 0-74.324219-16.515625-74.324219-16.515625s49.550781 0 66.066406-8.257813c16.515625-8.257812 33.03125-8.257812 33.03125-8.257812s8.257813 8.257812 16.515625 8.257812c8.261719 0 16.519531-8.257812 16.519531-8.257812s16.515625 0 33.03125 8.257812c16.515625 8.257813 66.0625 8.257813 66.0625 8.257813zm0 0" fill="#f40e34"/><path d="m371.613281 305.546875s-16.519531 39.96875-40.546875 66.066406c-2.644531 2.972657-5.617187 5.695313-9.003906 8.257813-33.03125 24.773437-66.0625 24.773437-66.0625 24.773437s-33.035156 0-66.066406-24.773437c-3.386719-2.5625-6.359375-5.285156-9-8.257813-24.03125-26.097656-40.546875-66.066406-40.546875-66.066406s22.789062 26.179687 57.804687 49.550781c24.773438 16.515625 57.808594 16.515625 57.808594 16.515625s33.03125 0 57.804688-16.515625c35.015624-23.371094 57.808593-49.550781 57.808593-49.550781zm0 0" fill="#f40e34"/><path d="m371.613281 305.546875s-22.792969 26.179687-57.808593 49.550781c-24.773438 16.515625-57.804688 16.515625-57.804688 16.515625s-33.035156 0-57.808594-16.515625c-35.011718-23.371094-57.804687-49.550781-57.804687-49.550781s49.546875 16.515625 74.320312 16.515625h41.289063 41.292968c24.773438 0 74.324219-16.515625 74.324219-16.515625zm0 0" fill="#fff"/><path d="m162.394531 74.589844-10.984375-12.339844c17.992188-16.011719 38.898438-25.816406 62.128906-29.132812l2.339844 16.34375c-19.96875 2.859374-37.960937 11.308593-53.484375 25.128906zm0 0" fill="#fff"/><path d="m139.503906 102.808594-14.761718-7.40625c.125-.246094 3.0625-6.074219 9.046874-14.019532l13.195313 9.9375c-5.003906 6.644532-7.457031 11.441407-7.480469 11.488282zm0 0" fill="#fff"/><path d="m148.644531 280.773438c0 22.804687-18.484375 41.289062-41.289062 41.289062-22.804688 0-41.292969-18.484375-41.292969-41.289062 0-22.804688 18.488281-41.289063 41.292969-41.289063 22.804687 0 41.289062 18.484375 41.289062 41.289063zm0 0" fill="#f40e34"/><path d="m445.933594 280.773438c0 22.804687-18.484375 41.289062-41.289063 41.289062-22.804687 0-41.289062-18.484375-41.289062-41.289062 0-22.804688 18.484375-41.289063 41.289062-41.289063 22.804688 0 41.289063 18.484375 41.289063 41.289063zm0 0" fill="#f40e34"/><path d="m96.082031 280.773438h-2.226562c-6.226563 0-11.273438-5.046876-11.273438-11.273438v-2.226562c0-6.226563 5.046875-11.273438 11.273438-11.273438h2.226562c6.226563 0 11.273438 5.046875 11.273438 11.273438v2.226562c0 6.226562-5.046875 11.273438-11.273438 11.273438zm0 0" fill="#fff"/><path d="m393.371094 280.773438h-2.226563c-6.226562 0-11.273437-5.046876-11.273437-11.273438v-2.226562c0-6.226563 5.046875-11.273438 11.273437-11.273438h2.226563c6.226562 0 11.273437 5.046875 11.273437 11.273438v2.226562c0 6.226562-5.046875 11.273438-11.273437 11.273438zm0 0" fill="#fff"/><path d="m264.257812 256h-33.183593c-9.039063 0-16.363281-7.328125-16.363281-16.363281 0-5.109375 2.363281-9.953125 6.449218-13.019531 7.34375-5.507813 18.324219-14.667969 18.324219-20.164063 0-9.121094 7.394531-16.515625 16.515625-16.515625s16.515625 7.394531 16.515625 16.515625c0 5.496094 10.980469 14.65625 18.324219 20.164063 4.085937 3.066406 6.449218 7.910156 6.449218 13.019531 0 9.035156-7.324218 16.363281-16.363281 16.363281h-33.183593zm0 0" fill="#f072ae"/></svg>